<svg xmlns="http://www.w3.org/2000/svg" width="800" height="250" viewBox="0 0 800 250">
<rect x="0" y="0" width="800" height="250" fill="#f5e6c8" stroke="#b48a5a" stroke-width="6"/>
<path d="M 271.9,105.0 L 272.5,130.5 L 247.0,128.9 L 224.5,127.5 L 216.8,105.0 L 227.0,85.0 L 247.0,73.7 L 265.0,87.0 Z" fill="#b48a5a" stroke="#7a5832" stroke-width="2" opacity="0.85"/>
<path d="M 756.6,88.0 L 752.3,114.3 L 726.0,115.1 L 710.7,103.3 L 691.2,88.0 L 699.2,61.2 L 726.0,51.0 L 745.9,68.1 Z" fill="#b48a5a" stroke="#7a5832" stroke-width="2" opacity="0.85"/>
<path d="M 364.7,203.0 L 361.7,228.7 L 336.0,225.1 L 312.0,227.0 L 306.4,203.0 L 314.5,181.5 L 336.0,167.1 L 350.2,188.8 Z" fill="#b48a5a" stroke="#7a5832" stroke-width="2" opacity="0.85"/>
<path d="M 179.0,154.0 L 175.2,174.2 L 155.0,171.5 L 137.4,171.6 L 131.8,154.0 L 142.7,141.7 L 155.0,128.3 L 168.0,141.0 Z" fill="#b48a5a" stroke="#7a5832" stroke-width="2" opacity="0.85"/>
<path d="M 483.3,92.0 L 469.2,115.2 L 446.0,129.4 L 426.4,111.6 L 413.6,92.0 L 428.5,74.5 L 446.0,61.1 L 471.3,66.7 Z" fill="#b48a5a" stroke="#7a5832" stroke-width="2" opacity="0.85"/>
</svg>