<svg xmlns="http://www.w3.org/2000/svg" width="512" height="512" viewBox="0 0 512 512">
<rect width="100%" height="100%" fill="#f5e6c8"/>
<circle cx="122" cy="190" r="41" fill="none" stroke="#b48a5a" stroke-width="2" opacity="0.7"/>
<circle cx="136" cy="393" r="26" fill="none" stroke="#b48a5a" stroke-width="2" opacity="0.7"/>
<circle cx="318" cy="275" r="22" fill="none" stroke="#b48a5a" stroke-width="2" opacity="0.7"/>
<path d="M 0 12 Q 15 12.00, 30 12.00 Q 45 24.71, 60 24.71 Q 75 21.37, 90 21.37 Q 105 22.23, 120 22.23 Q 135 35.66, 150 35.66 Q 165 19.42, 180 19.42 Q 195 15.22, 210 15.22 Q 225 8.05, 240 8.05 Q 255 3.54, 270 3.54 Q 285 -14.59, 300 -14.59 Q 315 -3.38, 330 -3.38 Q 345 3.64, 360 3.64 Q 375 6.64, 390 6.64 Q 405 17.09, 420 17.09 Q 435 22.46, 450 22.46 Q 465 38.32, 480 38.32 Q 495 35.18, 510 35.18 Q 525 27.56, 540 27.56 " fill="none" stroke="#b48a5a" stroke-width="2" opacity="0.8"/>
<path d="M 0 24 Q 15 37.09, 30 37.09 Q 45 43.97, 60 43.97 Q 75 50.12, 90 50.12 Q 105 41.58, 120 41.58 Q 135 26.53, 150 26.53 Q 165 14.34, 180 14.34 Q 195 1.80, 210 1.80 Q 225 12.01, 240 12.01 Q 255 -1.97, 270 -1.97 Q 285 7.70, 300 7.70 Q 315 19.70, 330 19.70 Q 345 28.76, 360 28.76 Q 375 40.40, 390 40.40 Q 405 41.20, 420 41.20 Q 435 40.73, 450 40.73 Q 465 43.63, 480 43.63 Q 495 28.21, 510 28.21 Q 525 22.40, 540 22.40 " fill="none" stroke="#b48a5a" stroke-width="2" opacity="0.8"/>
<path d="M 0 37 Q 15 60.77, 30 60.77 Q 45 45.51, 60 45.51 Q 75 40.51, 90 40.51 Q 105 27.10, 120 27.10 Q 135 23.76, 150 23.76 Q 165 11.22, 180 11.22 Q 195 26.18, 210 26.18 Q 225 23.71, 240 23.71 Q 255 29.80, 270 29.80 Q 285 39.79, 300 39.79 Q 315 56.24, 330 56.24 Q 345 51.57, 360 51.57 Q 375 60.25, 390 60.25 Q 405 50.35, 420 50.35 Q 435 42.43, 450 42.43 Q 465 35.19, 480 35.19 Q 495 29.38, 510 29.38 Q 525 23.15, 540 23.15 " fill="none" stroke="#b48a5a" stroke-width="2" opacity="0.8"/>
<path d="M 0 49 Q 15 50.78, 30 50.78 Q 45 43.47, 60 43.47 Q 75 36.67, 90 36.67 Q 105 29.15, 120 29.15 Q 135 31.83, 150 31.83 Q 165 32.06, 180 32.06 Q 195 43.13, 210 43.13 Q 225 53.60, 240 53.60 Q 255 56.29, 270 56.29 Q 285 67.88, 300 67.88 Q 315 59.27, 330 59.27 Q 345 69.60, 360 69.60 Q 375 58.00, 390 58.00 Q 405 48.19, 420 48.19 Q 435 32.77, 450 32.77 Q 465 29.38, 480 29.38 Q 495 19.14, 510 19.14 Q 525 31.32, 540 31.32 " fill="none" stroke="#b48a5a" stroke-width="2" opacity="0.8"/>
<path d="M 0 62 Q 15 39.43, 30 39.43 Q 45 47.58, 60 47.58 Q 75 52.40, 90 52.40 Q 105 46.22, 120 46.22 Q 135 57.03, 150 57.03 Q 165 67.90, 180 67.90 Q 195 71.39, 210 71.39 Q 225 74.39, 240 74.39 Q 255 73.11, 270 73.11 Q 285 77.12, 300 77.12 Q 315 66.46, 330 66.46 Q 345 61.09, 360 61.09 Q 375 46.58, 390 46.58 Q 405 44.30, 420 44.30 Q 435 37.04, 450 37.04 Q 465 47.39, 480 47.39 Q 495 55.09, 510 55.09 Q 525 60.24, 540 60.24 " fill="none" stroke="#b48a5a" stroke-width="2" opacity="0.8"/>
<path d="M 0 74 Q 15 57.60, 30 57.60 Q 45 56.57, 60 56.57 Q 75 68.44, 90 68.44 Q 105 77.73, 120 77.73 Q 135 93.15, 150 93.15 Q 165 93.85, 180 93.85 Q 195 88.51, 210 88.51 Q 225 82.06, 240 82.06 Q 255 82.17, 270 82.17 Q 285 72.02, 300 72.02 Q 315 61.25, 330 61.25 Q 345 57.74, 360 57.74 Q 375 47.61, 390 47.61 Q 405 57.16, 420 57.16 Q 435 67.52, 450 67.52 Q 465 72.16, 480 72.16 Q 495 79.05, 510 79.05 Q 525 84.81, 540 84.81 " fill="none" stroke="#b48a5a" stroke-width="2" opacity="0.8"/>
<path d="M 0 87 Q 15 83.18, 30 83.18 Q 45 91.21, 60 91.21 Q 75 96.07, 90 96.07 Q 105 108.46, 120 108.46 Q 135 103.43, 150 103.43 Q 165 108.78, 180 108.78 Q 195 96.22, 210 96.22 Q 225 85.74, 240 85.74 Q 255 78.05, 270 78.05 Q 285 78.15, 300 78.15 Q 315 61.98, 330 61.98 Q 345 62.19, 360 62.19 Q 375 73.71, 390 73.71 Q 405 85.83, 420 85.83 Q 435 98.92, 450 98.92 Q 465 99.70, 480 99.70 Q 495 102.70, 510 102.70 Q 525 102.34, 540 102.34 " fill="none" stroke="#b48a5a" stroke-width="2" opacity="0.8"/>
<path d="M 0 99 Q 15 109.44, 30 109.44 Q 45 120.39, 60 120.39 Q 75 114.83, 90 114.83 Q 105 116.63, 120 116.63 Q 135 103.83, 150 103.83 Q 165 98.01, 180 98.01 Q 195 90.92, 210 90.92 Q 225 76.76, 240 76.76 Q 255 78.60, 270 78.60 Q 285 89.08, 300 89.08 Q 315 87.18, 330 87.18 Q 345 97.33, 360 97.33 Q 375 104.16, 390 104.16 Q 405 110.82, 420 110.82 Q 435 126.41, 450 126.41 Q 465 126.94, 480 126.94 Q 495 112.24, 510 112.24 Q 525 104.99, 540 104.99 " fill="none" stroke="#b48a5a" stroke-width="2" opacity="0.8"/>
<path d="M 0 112 Q 15 125.22, 30 125.22 Q 45 120.87, 60 120.87 Q 75 118.71, 90 118.71 Q 105 110.19, 120 110.19 Q 135 96.20, 150 96.20 Q 165 91.34, 180 91.34 Q 195 82.51, 210 82.51 Q 225 100.63, 240 100.63 Q 255 105.17, 270 105.17 Q 285 111.09, 300 111.09 Q 315 122.33, 330 122.33 Q 345 123.88, 360 123.88 Q 375 133.10, 390 133.10 Q 405 130.69, 420 130.69 Q 435 120.59, 450 120.59 Q 465 117.53, 480 117.53 Q 495 105.36, 510 105.36 Q 525 100.11, 540 100.11 " fill="none" stroke="#b48a5a" stroke-width="2" opacity="0.8"/>
<path d="M 0 124 Q 15 131.30, 30 131.30 Q 45 122.71, 60 122.71 Q 75 110.84, 90 110.84 Q 105 108.76, 120 108.76 Q 135 111.86, 150 111.86 Q 165 106.68, 180 106.68 Q 195 116.60, 210 116.60 Q 225 122.05, 240 122.05 Q 255 131.17, 270 131.17 Q 285 142.32, 300 142.32 Q 315 143.16, 330 143.16 Q 345 147.73, 360 147.73 Q 375 133.39, 390 133.39 Q 405 126.36, 420 126.36 Q 435 117.18, 450 117.18 Q 465 109.72, 480 109.72 Q 495 103.74, 510 103.74 Q 525 104.36, 540 104.36 " fill="none" stroke="#b48a5a" stroke-width="2" opacity="0.8"/>
<path d="M 0 137 Q 15 125.35, 30 125.35 Q 45 114.37, 60 114.37 Q 75 110.64, 90 110.64 Q 105 113.86, 120 113.86 Q 135 117.98, 150 117.98 Q 165 134.50, 180 134.50 Q 195 148.43, 210 148.43 Q 225 152.67, 240 152.67 Q 255 156.15, 270 156.15 Q 285 158.28, 300 158.28 Q 315 152.90, 330 152.90 Q 345 141.95, 360 141.95 Q 375 129.06, 390 129.06 Q 405 119.30, 420 119.30 Q 435 125.95, 450 125.95 Q 465 111.55, 480 111.55 Q 495 124.77, 510 124.77 Q 525 130.74, 540 130.74 " fill="none" stroke="#b48a5a" stroke-width="2" opacity="0.8"/>
<path d="M 0 149 Q 15 124.97, 30 124.97 Q 45 135.86, 60 135.86 Q 75 143.36, 90 143.36 Q 105 143.64, 120 143.64 Q 135 148.73, 150 148.73 Q 165 159.96, 180 159.96 Q 195 176.11, 210 176.11 Q 225 176.51, 240 176.51 Q 255 158.39, 270 158.39 Q 285 152.38, 300 152.38 Q 315 145.70, 330 145.70 Q 345 135.56, 360 135.56 Q 375 133.41, 390 133.41 Q 405 134.62, 420 134.62 Q 435 133.53, 450 133.53 Q 465 142.89, 480 142.89 Q 495 153.27, 510 153.27 Q 525 165.73, 540 165.73 " fill="none" stroke="#b48a5a" stroke-width="2" opacity="0.8"/>
<path d="M 0 162 Q 15 154.35, 30 154.35 Q 45 160.23, 60 160.23 Q 75 171.23, 90 171.23 Q 105 167.92, 120 167.92 Q 135 160.09, 150 160.09 Q 165 171.44, 180 171.44 Q 195 175.13, 210 175.13 Q 225 165.04, 240 165.04 Q 255 155.45, 270 155.45 Q 285 152.34, 300 152.34 Q 315 140.24, 330 140.24 Q 345 141.11, 360 141.11 Q 375 146.33, 390 146.33 Q 405 154.79, 420 154.79 Q 435 165.09, 450 165.09 Q 465 171.16, 480 171.16 Q 495 177.49, 510 177.49 Q 525 180.47, 540 180.47 " fill="none" stroke="#b48a5a" stroke-width="2" opacity="0.8"/>
<path d="M 0 174 Q 15 178.97, 30 178.97 Q 45 192.62, 60 192.62 Q 75 200.12, 90 200.12 Q 105 180.66, 120 180.66 Q 135 158.79, 150 158.79 Q 165 172.79, 180 172.79 Q 195 169.19, 210 169.19 Q 225 154.21, 240 154.21 Q 255 147.88, 270 147.88 Q 285 160.11, 300 160.11 Q 315 159.32, 330 159.32 Q 345 167.87, 360 167.87 Q 375 175.74, 390 175.74 Q 405 180.99, 420 180.99 Q 435 199.56, 450 199.56 Q 465 201.40, 480 201.40 Q 495 189.03, 510 189.03 Q 525 186.00, 540 186.00 " fill="none" stroke="#b48a5a" stroke-width="2" opacity="0.8"/>
<path d="M 0 187 Q 15 197.36, 30 197.36 Q 45 203.30, 60 203.30 Q 75 200.58, 90 200.58 Q 105 190.96, 120 190.96 Q 135 154.96, 150 154.96 Q 165 175.30, 180 175.30 Q 195 176.95, 210 176.95 Q 225 159.00, 240 159.00 Q 255 175.44, 270 175.44 Q 285 178.16, 300 178.16 Q 315 191.41, 330 191.41 Q 345 197.85, 360 197.85 Q 375 211.17, 390 211.17 Q 405 206.31, 420 206.31 Q 435 198.47, 450 198.47 Q 465 193.17, 480 193.17 Q 495 186.74, 510 186.74 Q 525 174.76, 540 174.76 " fill="none" stroke="#b48a5a" stroke-width="2" opacity="0.8"/>
<path d="M 0 199 Q 15 210.44, 30 210.44 Q 45 203.82, 60 203.82 Q 75 191.36, 90 191.36 Q 105 191.37, 120 191.37 Q 135 196.43, 150 196.43 Q 165 176.20, 180 176.20 Q 195 180.19, 210 180.19 Q 225 190.52, 240 190.52 Q 255 201.41, 270 201.41 Q 285 210.84, 300 210.84 Q 315 218.27, 330 218.27 Q 345 213.85, 360 213.85 Q 375 213.25, 390 213.25 Q 405 210.81, 420 210.81 Q 435 198.89, 450 198.89 Q 465 188.05, 480 188.05 Q 495 188.00, 510 188.00 Q 525 170.46, 540 170.46 " fill="none" stroke="#b48a5a" stroke-width="2" opacity="0.8"/>
<path d="M 0 212 Q 15 208.02, 30 208.02 Q 45 203.04, 60 203.04 Q 75 185.18, 90 185.18 Q 105 192.31, 120 192.31 Q 135 221.30, 150 221.30 Q 165 210.30, 180 210.30 Q 195 213.51, 210 213.51 Q 225 219.77, 240 219.77 Q 255 236.20, 270 236.20 Q 285 236.31, 300 236.31 Q 315 235.60, 330 235.60 Q 345 220.62, 360 220.62 Q 375 211.88, 390 211.88 Q 405 202.10, 420 202.10 Q 435 190.78, 450 190.78 Q 465 190.39, 480 190.39 Q 495 193.67, 510 193.67 Q 525 197.94, 540 197.94 " fill="none" stroke="#b48a5a" stroke-width="2" opacity="0.8"/>
<path d="M 0 224 Q 15 198.83, 30 198.83 Q 45 201.86, 60 201.86 Q 75 201.80, 90 201.80 Q 105 223.10, 120 223.10 Q 135 240.51, 150 240.51 Q 165 237.46, 180 237.46 Q 195 248.12, 210 248.12 Q 225 247.39, 240 247.39 Q 255 242.72, 270 242.72 Q 285 237.16, 300 237.16 Q 315 223.77, 330 223.77 Q 345 209.66, 360 209.66 Q 375 213.04, 390 213.04 Q 405 203.16, 420 203.16 Q 435 201.39, 450 201.39 Q 465 216.17, 480 216.17 Q 495 222.36, 510 222.36 Q 525 228.52, 540 228.52 " fill="none" stroke="#b48a5a" stroke-width="2" opacity="0.8"/>
<path d="M 0 237 Q 15 218.36, 30 218.36 Q 45 231.44, 60 231.44 Q 75 241.01, 90 241.01 Q 105 249.73, 120 249.73 Q 135 253.78, 150 253.78 Q 165 260.63, 180 260.63 Q 195 256.73, 210 256.73 Q 225 242.15, 240 242.15 Q 255 236.81, 270 236.81 Q 285 227.06, 300 227.06 Q 315 215.10, 330 215.10 Q 345 216.70, 360 216.70 Q 375 226.15, 390 226.15 Q 405 219.65, 420 219.65 Q 435 235.04, 450 235.04 Q 465 243.58, 480 243.58 Q 495 246.61, 510 246.61 Q 525 247.53, 540 247.53 " fill="none" stroke="#b48a5a" stroke-width="2" opacity="0.8"/>
<path d="M 0 249 Q 15 251.47, 30 251.47 Q 45 256.02, 60 256.02 Q 75 267.97, 90 267.97 Q 105 260.61, 120 260.61 Q 135 259.41, 150 259.41 Q 165 261.58, 180 261.58 Q 195 248.82, 210 248.82 Q 225 235.24, 240 235.24 Q 255 226.02, 270 226.02 Q 285 230.25, 300 230.25 Q 315 230.03, 330 230.03 Q 345 228.58, 360 228.58 Q 375 246.29, 390 246.29 Q 405 253.39, 420 253.39 Q 435 270.57, 450 270.57 Q 465 269.45, 480 269.45 Q 495 269.24, 510 269.24 Q 525 262.47, 540 262.47 " fill="none" stroke="#b48a5a" stroke-width="2" opacity="0.8"/>
<path d="M 0 262 Q 15 289.38, 30 289.38 Q 45 274.15, 60 274.15 Q 75 271.69, 90 271.69 Q 105 273.93, 120 273.93 Q 135 261.86, 150 261.86 Q 165 254.20, 180 254.20 Q 195 247.53, 210 247.53 Q 225 247.36, 240 247.36 Q 255 235.55, 270 235.55 Q 285 245.72, 300 245.72 Q 315 254.80, 330 254.80 Q 345 257.10, 360 257.10 Q 375 278.21, 390 278.21 Q 405 289.48, 420 289.48 Q 435 288.85, 450 288.85 Q 465 282.30, 480 282.30 Q 495 266.90, 510 266.90 Q 525 258.59, 540 258.59 " fill="none" stroke="#b48a5a" stroke-width="2" opacity="0.8"/>
<path d="M 0 274 Q 15 294.94, 30 294.94 Q 45 287.98, 60 287.98 Q 75 273.76, 90 273.76 Q 105 265.24, 120 265.24 Q 135 254.38, 150 254.38 Q 165 246.42, 180 246.42 Q 195 258.58, 210 258.58 Q 225 264.05, 240 264.05 Q 255 271.56, 270 271.56 Q 285 278.88, 300 278.88 Q 315 291.55, 330 291.55 Q 345 295.18, 360 295.18 Q 375 293.78, 390 293.78 Q 405 291.80, 420 291.80 Q 435 278.08, 450 278.08 Q 465 271.29, 480 271.29 Q 495 263.00, 510 263.00 Q 525 255.14, 540 255.14 " fill="none" stroke="#b48a5a" stroke-width="2" opacity="0.8"/>
<path d="M 0 287 Q 15 286.80, 30 286.80 Q 45 281.15, 60 281.15 Q 75 277.93, 90 277.93 Q 105 259.47, 120 259.47 Q 135 264.35, 150 264.35 Q 165 276.29, 180 276.29 Q 195 284.12, 210 284.12 Q 225 296.08, 240 296.08 Q 255 301.34, 270 301.34 Q 285 303.45, 300 303.45 Q 315 317.33, 330 317.33 Q 345 305.75, 360 305.75 Q 375 294.13, 390 294.13 Q 405 280.61, 420 280.61 Q 435 278.63, 450 278.63 Q 465 272.73, 480 272.73 Q 495 265.66, 510 265.66 Q 525 268.67, 540 268.67 " fill="none" stroke="#b48a5a" stroke-width="2" opacity="0.8"/>
<path d="M 0 299 Q 15 289.35, 30 289.35 Q 45 269.87, 60 269.87 Q 75 287.58, 90 287.58 Q 105 283.98, 120 283.98 Q 135 297.08, 150 297.08 Q 165 304.12, 180 304.12 Q 195 315.08, 210 315.08 Q 225 325.25, 240 325.25 Q 255 321.97, 270 321.97 Q 285 314.73, 300 314.73 Q 315 308.04, 330 308.04 Q 345 298.02, 360 298.02 Q 375 286.94, 390 286.94 Q 405 287.95, 420 287.95 Q 435 274.23, 450 274.23 Q 465 283.42, 480 283.42 Q 495 294.51, 510 294.51 Q 525 300.35, 540 300.35 " fill="none" stroke="#b48a5a" stroke-width="2" opacity="0.8"/>
<path d="M 0 312 Q 15 285.31, 30 285.31 Q 45 301.97, 60 301.97 Q 75 308.26, 90 308.26 Q 105 320.81, 120 320.81 Q 135 332.45, 150 332.45 Q 165 329.85, 180 329.85 Q 195 336.63, 210 336.63 Q 225 322.33, 240 322.33 Q 255 316.41, 270 316.41 Q 285 306.95, 300 306.95 Q 315 302.34, 330 302.34 Q 345 291.78, 360 291.78 Q 375 295.65, 390 295.65 Q 405 303.02, 420 303.02 Q 435 307.35, 450 307.35 Q 465 313.88, 480 313.88 Q 495 323.90, 510 323.90 Q 525 330.72, 540 330.72 " fill="none" stroke="#b48a5a" stroke-width="2" opacity="0.8"/>
<path d="M 0 324 Q 15 321.01, 30 321.01 Q 45 330.49, 60 330.49 Q 75 342.41, 90 342.41 Q 105 338.04, 120 338.04 Q 135 345.19, 150 345.19 Q 165 340.10, 180 340.10 Q 195 328.52, 210 328.52 Q 225 317.69, 240 317.69 Q 255 317.21, 270 317.21 Q 285 308.13, 300 308.13 Q 315 303.55, 330 303.55 Q 345 308.41, 360 308.41 Q 375 318.09, 390 318.09 Q 405 326.21, 420 326.21 Q 435 330.01, 450 330.01 Q 465 348.01, 480 348.01 Q 495 342.03, 510 342.03 Q 525 346.85, 540 346.85 " fill="none" stroke="#b48a5a" stroke-width="2" opacity="0.8"/>
<path d="M 0 337 Q 15 345.48, 30 345.48 Q 45 353.51, 60 353.51 Q 75 353.85, 90 353.85 Q 105 355.29, 120 355.29 Q 135 344.09, 150 344.09 Q 165 334.59, 180 334.59 Q 195 324.13, 210 324.13 Q 225 322.43, 240 322.43 Q 255 315.86, 270 315.86 Q 285 325.94, 300 325.94 Q 315 331.27, 330 331.27 Q 345 339.23, 360 339.23 Q 375 344.40, 390 344.40 Q 405 356.57, 420 356.57 Q 435 360.54, 450 360.54 Q 465 355.06, 480 355.06 Q 495 347.11, 510 347.11 Q 525 338.55, 540 338.55 " fill="none" stroke="#b48a5a" stroke-width="2" opacity="0.8"/>
<path d="M 0 349 Q 15 369.64, 30 369.64 Q 45 361.05, 60 361.05 Q 75 354.72, 90 354.72 Q 105 345.23, 120 345.23 Q 135 335.62, 150 335.62 Q 165 326.89, 180 326.89 Q 195 331.23, 210 331.23 Q 225 326.00, 240 326.00 Q 255 342.12, 270 342.12 Q 285 350.90, 300 350.90 Q 315 363.77, 330 363.77 Q 345 374.50, 360 374.50 Q 375 366.44, 390 366.44 Q 405 361.03, 420 361.03 Q 435 356.64, 450 356.64 Q 465 349.85, 480 349.85 Q 495 344.19, 510 344.19 Q 525 329.20, 540 329.20 " fill="none" stroke="#b48a5a" stroke-width="2" opacity="0.8"/>
<path d="M 0 362 Q 15 368.72, 30 368.72 Q 45 358.02, 60 358.02 Q 75 350.44, 90 350.44 Q 105 348.09, 120 348.09 Q 135 334.51, 150 334.51 Q 165 344.20, 180 344.20 Q 195 356.52, 210 356.52 Q 225 363.96, 240 363.96 Q 255 375.64, 270 375.64 Q 285 386.92, 300 386.92 Q 315 379.65, 330 379.65 Q 345 376.47, 360 376.47 Q 375 371.24, 390 371.24 Q 405 363.33, 420 363.33 Q 435 356.28, 450 356.28 Q 465 339.24, 480 339.24 Q 495 349.60, 510 349.60 Q 525 337.61, 540 337.61 " fill="none" stroke="#b48a5a" stroke-width="2" opacity="0.8"/>
<path d="M 0 374 Q 15 357.15, 30 357.15 Q 45 358.73, 60 358.73 Q 75 359.04, 90 359.04 Q 105 357.42, 120 357.42 Q 135 356.82, 150 356.82 Q 165 366.30, 180 366.30 Q 195 382.47, 210 382.47 Q 225 390.23, 240 390.23 Q 255 385.19, 270 385.19 Q 285 383.13, 300 383.13 Q 315 388.26, 330 388.26 Q 345 375.64, 360 375.64 Q 375 363.47, 390 363.47 Q 405 362.28, 420 362.28 Q 435 352.89, 450 352.89 Q 465 358.33, 480 358.33 Q 495 360.33, 510 360.33 Q 525 369.94, 540 369.94 " fill="none" stroke="#b48a5a" stroke-width="2" opacity="0.8"/>
<path d="M 0 387 Q 15 358.94, 30 358.94 Q 45 366.27, 60 366.27 Q 75 381.39, 90 381.39 Q 105 388.43, 120 388.43 Q 135 388.51, 150 388.51 Q 165 393.79, 180 393.79 Q 195 416.35, 210 416.35 Q 225 410.47, 240 410.47 Q 255 395.28, 270 395.28 Q 285 388.39, 300 388.39 Q 315 381.56, 330 381.56 Q 345 374.04, 360 374.04 Q 375 367.62, 390 367.62 Q 405 375.98, 420 375.98 Q 435 378.15, 450 378.15 Q 465 384.21, 480 384.21 Q 495 395.68, 510 395.68 Q 525 399.87, 540 399.87 " fill="none" stroke="#b48a5a" stroke-width="2" opacity="0.8"/>
<path d="M 0 399 Q 15 394.90, 30 394.90 Q 45 400.73, 60 400.73 Q 75 408.73, 90 408.73 Q 105 408.05, 120 408.05 Q 135 421.40, 150 421.40 Q 165 432.05, 180 432.05 Q 195 411.47, 210 411.47 Q 225 400.23, 240 400.23 Q 255 391.93, 270 391.93 Q 285 385.34, 300 385.34 Q 315 388.35, 330 388.35 Q 345 381.21, 360 381.21 Q 375 386.46, 390 386.46 Q 405 396.74, 420 396.74 Q 435 404.40, 450 404.40 Q 465 418.97, 480 418.97 Q 495 413.58, 510 413.58 Q 525 419.73, 540 419.73 " fill="none" stroke="#b48a5a" stroke-width="2" opacity="0.8"/>
<path d="M 0 412 Q 15 421.46, 30 421.46 Q 45 428.58, 60 428.58 Q 75 427.54, 90 427.54 Q 105 428.96, 120 428.96 Q 135 426.71, 150 426.71 Q 165 422.45, 180 422.45 Q 195 403.57, 210 403.57 Q 225 399.15, 240 399.15 Q 255 383.91, 270 383.91 Q 285 401.45, 300 401.45 Q 315 401.00, 330 401.00 Q 345 408.23, 360 408.23 Q 375 418.68, 390 418.68 Q 405 422.11, 420 422.11 Q 435 432.59, 450 432.59 Q 465 424.11, 480 424.11 Q 495 422.68, 510 422.68 Q 525 418.23, 540 418.23 " fill="none" stroke="#b48a5a" stroke-width="2" opacity="0.8"/>
<path d="M 0 424 Q 15 434.95, 30 434.95 Q 45 437.63, 60 437.63 Q 75 430.13, 90 430.13 Q 105 425.29, 120 425.29 Q 135 416.72, 150 416.72 Q 165 407.91, 180 407.91 Q 195 410.80, 210 410.80 Q 225 407.13, 240 407.13 Q 255 415.09, 270 415.09 Q 285 418.10, 300 418.10 Q 315 427.13, 330 427.13 Q 345 441.23, 360 441.23 Q 375 434.87, 390 434.87 Q 405 447.55, 420 447.55 Q 435 440.26, 450 440.26 Q 465 430.21, 480 430.21 Q 495 422.08, 510 422.08 Q 525 417.50, 540 417.50 " fill="none" stroke="#b48a5a" stroke-width="2" opacity="0.8"/>
<path d="M 0 437 Q 15 450.59, 30 450.59 Q 45 438.66, 60 438.66 Q 75 426.35, 90 426.35 Q 105 422.67, 120 422.67 Q 135 409.64, 150 409.64 Q 165 415.66, 180 415.66 Q 195 429.50, 210 429.50 Q 225 431.87, 240 431.87 Q 255 441.56, 270 441.56 Q 285 456.39, 300 456.39 Q 315 448.76, 330 448.76 Q 345 453.15, 360 453.15 Q 375 452.28, 390 452.28 Q 405 443.75, 420 443.75 Q 435 435.28, 450 435.28 Q 465 424.29, 480 424.29 Q 495 410.10, 510 410.10 Q 525 423.05, 540 423.05 " fill="none" stroke="#b48a5a" stroke-width="2" opacity="0.8"/>
<path d="M 0 449 Q 15 442.47, 30 442.47 Q 45 438.94, 60 438.94 Q 75 432.25, 90 432.25 Q 105 434.84, 120 434.84 Q 135 436.65, 150 436.65 Q 165 443.61, 180 443.61 Q 195 451.99, 210 451.99 Q 225 461.91, 240 461.91 Q 255 471.80, 270 471.80 Q 285 461.65, 300 461.65 Q 315 464.55, 330 464.55 Q 345 453.79, 360 453.79 Q 375 444.88, 390 444.88 Q 405 441.94, 420 441.94 Q 435 437.11, 450 437.11 Q 465 432.31, 480 432.31 Q 495 429.68, 510 429.68 Q 525 439.79, 540 439.79 " fill="none" stroke="#b48a5a" stroke-width="2" opacity="0.8"/>
<path d="M 0 462 Q 15 451.27, 30 451.27 Q 45 450.91, 60 450.91 Q 75 449.63, 90 449.63 Q 105 456.52, 120 456.52 Q 135 465.55, 150 465.55 Q 165 477.06, 180 477.06 Q 195 472.04, 210 472.04 Q 225 489.62, 240 489.62 Q 255 473.84, 270 473.84 Q 285 467.72, 300 467.72 Q 315 458.35, 330 458.35 Q 345 452.24, 360 452.24 Q 375 448.39, 390 448.39 Q 405 439.59, 420 439.59 Q 435 442.75, 450 442.75 Q 465 452.81, 480 452.81 Q 495 462.19, 510 462.19 Q 525 471.37, 540 471.37 " fill="none" stroke="#b48a5a" stroke-width="2" opacity="0.8"/>
<path d="M 0 474 Q 15 459.91, 30 459.91 Q 45 471.67, 60 471.67 Q 75 479.65, 90 479.65 Q 105 486.42, 120 486.42 Q 135 500.97, 150 500.97 Q 165 488.74, 180 488.74 Q 195 481.88, 210 481.88 Q 225 482.28, 240 482.28 Q 255 471.05, 270 471.05 Q 285 455.98, 300 455.98 Q 315 458.33, 330 458.33 Q 345 449.28, 360 449.28 Q 375 464.58, 390 464.58 Q 405 464.61, 420 464.61 Q 435 474.41, 450 474.41 Q 465 479.07, 480 479.07 Q 495 483.15, 510 483.15 Q 525 502.60, 540 502.60 " fill="none" stroke="#b48a5a" stroke-width="2" opacity="0.8"/>
<path d="M 0 487 Q 15 494.52, 30 494.52 Q 45 499.58, 60 499.58 Q 75 509.77, 90 509.77 Q 105 515.83, 120 515.83 Q 135 508.21, 150 508.21 Q 165 494.82, 180 494.82 Q 195 483.17, 210 483.17 Q 225 480.48, 240 480.48 Q 255 469.69, 270 469.69 Q 285 469.95, 300 469.95 Q 315 470.74, 330 470.74 Q 345 480.89, 360 480.89 Q 375 487.34, 390 487.34 Q 405 499.03, 420 499.03 Q 435 496.88, 450 496.88 Q 465 513.20, 480 513.20 Q 495 512.70, 510 512.70 Q 525 496.07, 540 496.07 " fill="none" stroke="#b48a5a" stroke-width="2" opacity="0.8"/>
<path d="M 0 499 Q 15 515.52, 30 515.52 Q 45 521.97, 60 521.97 Q 75 520.95, 90 520.95 Q 105 506.66, 120 506.66 Q 135 496.41, 150 496.41 Q 165 490.13, 180 490.13 Q 195 478.13, 210 478.13 Q 225 486.64, 240 486.64 Q 255 478.30, 270 478.30 Q 285 490.52, 300 490.52 Q 315 499.19, 330 499.19 Q 345 513.44, 360 513.44 Q 375 514.56, 390 514.56 Q 405 527.40, 420 527.40 Q 435 514.55, 450 514.55 Q 465 515.77, 480 515.77 Q 495 500.68, 510 500.68 Q 525 488.53, 540 488.53 " fill="none" stroke="#b48a5a" stroke-width="2" opacity="0.8"/>
</svg>