<svg xmlns="http://www.w3.org/2000/svg" width="800" height="250" viewBox="0 0 800 250">
<rect x="0" y="0" width="800" height="250" fill="#f5e6c8" stroke="#b48a5a" stroke-width="6"/>
<ellipse cx="632" cy="168" rx="18" ry="18" fill="#b48a5a" stroke="#7a5832" stroke-width="2" opacity="0.85"/>
<ellipse cx="700" cy="112" rx="16" ry="12" fill="#b48a5a" stroke="#7a5832" stroke-width="2" opacity="0.85"/>
<ellipse cx="348" cy="165" rx="16" ry="14" fill="#b48a5a" stroke="#7a5832" stroke-width="2" opacity="0.85"/>
<ellipse cx="168" cy="201" rx="16" ry="16" fill="#b48a5a" stroke="#7a5832" stroke-width="2" opacity="0.85"/>
<ellipse cx="447" cy="129" rx="12" ry="9" fill="#b48a5a" stroke="#7a5832" stroke-width="2" opacity="0.85"/>
<path d="M 0.00,16.00 L 2.00,16.00 L 4.00,16.00 L 6.00,16.00 L 8.00,16.00 L 10.00,16.00 L 12.00,16.00 L 14.00,16.00 L 16.00,16.00 L 18.00,16.00 L 20.00,16.00 L 22.00,16.00 L 24.00,16.00 L 26.00,16.00 L 28.00,16.00 L 30.00,16.00 L 32.00,16.00 L 34.00,16.00 L 36.00,16.00 L 38.00,16.00 L 40.00,16.00 L 42.00,16.00 L 44.00,16.00 L 46.00,16.00 L 48.00,16.00 L 50.00,16.00 L 52.00,16.00 L 54.00,16.00 L 56.00,16.00 L 58.00,16.00 L 60.00,16.00 L 62.00,16.00 L 64.00,16.00 L 66.00,16.00 L 68.00,16.00 L 70.00,16.00 L 72.00,16.00 L 74.00,16.00 L 76.00,16.00 L 78.00,16.00 L 80.00,16.00 L 82.00,16.00 L 84.00,16.00 L 86.00,16.00 L 88.00,16.00 L 90.00,16.00 L 92.00,16.00 L 94.00,16.00 L 96.00,16.00 L 98.00,16.00 L 100.00,16.00 L 102.00,16.00 L 104.00,16.00 L 106.00,16.00 L 108.00,16.00 L 110.00,16.00 L 112.00,16.00 L 114.00,16.00 L 116.00,16.00 L 118.00,16.00 L 120.00,16.00 L 122.00,16.00 L 124.00,16.00 L 126.00,16.00 L 128.00,16.00 L 130.00,16.00 L 132.00,16.00 L 134.00,16.00 L 136.00,16.00 L 138.00,16.00 L 140.00,16.00 L 142.00,16.00 L 144.00,16.00 L 146.00,16.00 L 148.00,16.00 L 150.00,16.00 L 152.00,16.00 L 154.00,16.00 L 156.00,16.00 L 158.00,16.00 L 160.00,16.00 L 162.00,16.00 L 164.00,16.00 L 166.00,16.00 L 168.00,16.00 L 170.00,16.00 L 172.00,16.00 L 174.00,16.00 L 176.00,16.00 L 178.00,16.00 L 180.00,16.00 L 182.00,16.00 L 184.00,16.00 L 186.00,16.00 L 188.00,16.00 L 190.00,16.00 L 192.00,16.00 L 194.00,16.00 L 196.00,16.00 L 198.00,16.00 L 200.00,16.00 L 202.00,16.00 L 204.00,16.00 L 206.00,16.00 L 208.00,16.00 L 210.00,16.00 L 212.00,16.00 L 214.00,16.00 L 216.00,16.00 L 218.00,16.00 L 220.00,16.00 L 222.00,16.00 L 224.00,16.00 L 226.00,16.00 L 228.00,16.00 L 230.00,16.00 L 232.00,16.00 L 234.00,16.00 L 236.00,16.00 L 238.00,16.00 L 240.00,16.00 L 242.00,16.00 L 244.00,16.00 L 246.00,16.00 L 248.00,16.00 L 250.00,16.00 L 252.00,16.00 L 254.00,16.00 L 256.00,16.00 L 258.00,16.00 L 260.00,16.00 L 262.00,16.00 L 264.00,16.00 L 266.00,16.00 L 268.00,16.00 L 270.00,16.00 L 272.00,16.00 L 274.00,16.00 L 276.00,16.00 L 278.00,16.00 L 280.00,16.00 L 282.00,16.00 L 284.00,16.00 L 286.00,16.00 L 288.00,16.00 L 290.00,16.00 L 292.00,16.00 L 294.00,16.00 L 296.00,16.00 L 298.00,16.00 L 300.00,16.00 L 302.00,16.00 L 304.00,16.00 L 306.00,16.00 L 308.00,16.00 L 310.00,16.00 L 312.00,16.00 L 314.00,16.00 L 316.00,16.00 L 318.00,16.00 L 320.00,16.00 L 322.00,16.00 L 324.00,16.00 L 326.00,16.00 L 328.00,16.00 L 330.00,16.00 L 332.00,16.00 L 334.00,16.00 L 336.00,16.00 L 338.00,16.00 L 340.00,16.00 L 342.00,16.00 L 344.00,16.00 L 346.00,16.00 L 348.00,16.00 L 350.00,16.00 L 352.00,16.00 L 354.00,16.00 L 356.00,16.00 L 358.00,16.00 L 360.00,16.00 L 362.00,16.00 L 364.00,16.00 L 366.00,16.00 L 368.00,16.00 L 370.00,16.00 L 372.00,16.00 L 374.00,16.00 L 376.00,16.00 L 378.00,16.00 L 380.00,16.00 L 382.00,16.00 L 384.00,16.00 L 386.00,16.00 L 388.00,16.00 L 390.00,16.00 L 392.00,16.00 L 394.00,16.00 L 396.00,16.00 L 398.00,16.00 L 400.00,16.00 L 402.00,16.00 L 404.00,16.00 L 406.00,16.00 L 408.00,16.00 L 410.00,16.00 L 412.00,16.00 L 414.00,16.00 L 416.00,16.00 L 418.00,16.00 L 420.00,16.00 L 422.00,16.00 L 424.00,16.00 L 426.00,16.00 L 428.00,16.00 L 430.00,16.00 L 432.00,16.00 L 434.00,16.00 L 436.00,16.00 L 438.00,16.00 L 440.00,16.00 L 442.00,16.00 L 444.00,16.00 L 446.00,16.00 L 448.00,16.00 L 450.00,16.00 L 452.00,16.00 L 454.00,16.00 L 456.00,16.00 L 458.00,16.00 L 460.00,16.00 L 462.00,16.00 L 464.00,16.00 L 466.00,16.00 L 468.00,16.00 L 470.00,16.00 L 472.00,16.00 L 474.00,16.00 L 476.00,16.00 L 478.00,16.00 L 480.00,16.00 L 482.00,16.00 L 484.00,16.00 L 486.00,16.00 L 488.00,16.00 L 490.00,16.00 L 492.00,16.00 L 494.00,16.00 L 496.00,16.00 L 498.00,16.00 L 500.00,16.00 L 502.00,16.00 L 504.00,16.00 L 506.00,16.00 L 508.00,16.00 L 510.00,16.00 L 512.00,16.00 L 514.00,16.00 L 516.00,16.00 L 518.00,16.00 L 520.00,16.00 L 522.00,16.00 L 524.00,16.00 L 526.00,16.00 L 528.00,16.00 L 530.00,16.00 L 532.00,16.00 L 534.00,16.00 L 536.00,16.00 L 538.00,16.00 L 540.00,16.00 L 542.00,16.00 L 544.00,16.00 L 546.00,16.00 L 548.00,16.00 L 550.00,16.00 L 552.00,16.00 L 554.00,16.00 L 556.00,16.00 L 558.00,16.00 L 560.00,16.00 L 562.00,16.00 L 564.00,16.00 L 566.00,16.00 L 568.00,16.00 L 570.00,16.00 L 572.00,16.00 L 574.00,16.00 L 576.00,16.00 L 578.00,16.00 L 580.00,16.00 L 582.00,16.00 L 584.00,16.00 L 586.00,16.00 L 588.00,16.00 L 590.00,16.00 L 592.00,16.00 L 594.00,16.00 L 596.00,16.00 L 598.00,16.00 L 600.00,16.00 L 602.00,16.00 L 604.00,16.00 L 606.00,16.00 L 608.00,16.00 L 610.00,16.00 L 612.00,16.00 L 614.00,16.00 L 616.00,16.00 L 618.00,16.00 L 620.00,16.00 L 622.00,16.00 L 624.00,16.00 L 626.00,16.00 L 628.00,16.00 L 630.00,16.00 L 632.00,16.00 L 634.00,16.00 L 636.00,16.00 L 638.00,16.00 L 640.00,16.00 L 642.00,16.00 L 644.00,16.00 L 646.00,16.00 L 648.00,16.00 L 650.00,16.00 L 652.00,16.00 L 654.00,16.00 L 656.00,16.00 L 658.00,16.00 L 660.00,16.00 L 662.00,16.00 L 664.00,16.00 L 666.00,16.00 L 668.00,16.00 L 670.00,16.00 L 672.00,16.00 L 674.00,16.00 L 676.00,16.00 L 678.00,16.00 L 680.00,16.00 L 682.00,16.00 L 684.00,16.00 L 686.00,16.00 L 688.00,16.00 L 690.00,16.00 L 692.00,16.00 L 694.00,16.00 L 696.00,16.00 L 698.00,16.00 L 700.00,16.00 L 702.00,16.00 L 704.00,16.00 L 706.00,16.00 L 708.00,16.00 L 710.00,16.00 L 712.00,16.00 L 714.00,16.00 L 716.00,16.00 L 718.00,16.00 L 720.00,16.00 L 722.00,16.00 L 724.00,16.00 L 726.00,16.00 L 728.00,16.00 L 730.00,16.00 L 732.00,16.00 L 734.00,16.00 L 736.00,16.00 L 738.00,16.00 L 740.00,16.00 L 742.00,16.00 L 744.00,16.00 L 746.00,16.00 L 748.00,16.00 L 750.00,16.00 L 752.00,16.00 L 754.00,16.00 L 756.00,16.00 L 758.00,16.00 L 760.00,16.00 L 762.00,16.00 L 764.00,16.00 L 766.00,16.00 L 768.00,16.00 L 770.00,16.00 L 772.00,16.00 L 774.00,16.00 L 776.00,16.00 L 778.00,16.00 L 780.00,16.00 L 782.00,16.00 L 784.00,16.00 L 786.00,16.00 L 788.00,16.00 L 790.00,16.00 L 792.00,16.00 L 794.00,16.00 L 796.00,16.00 L 798.00,16.00 " fill="none" stroke="#b48a5a" stroke-width="1.80" opacity="0.7"/>
<path d="M 0.00,33.00 L 2.00,33.00 L 4.00,33.00 L 6.00,33.00 L 8.00,33.00 L 10.00,33.00 L 12.00,33.00 L 14.00,33.00 L 16.00,33.00 L 18.00,33.00 L 20.00,33.00 L 22.00,33.00 L 24.00,33.00 L 26.00,33.00 L 28.00,33.00 L 30.00,33.00 L 32.00,33.00 L 34.00,33.00 L 36.00,33.00 L 38.00,33.00 L 40.00,33.00 L 42.00,33.00 L 44.00,33.00 L 46.00,33.00 L 48.00,33.00 L 50.00,33.00 L 52.00,33.00 L 54.00,33.00 L 56.00,33.00 L 58.00,33.00 L 60.00,33.00 L 62.00,33.00 L 64.00,33.00 L 66.00,33.00 L 68.00,33.00 L 70.00,33.00 L 72.00,33.00 L 74.00,33.00 L 76.00,33.00 L 78.00,33.00 L 80.00,33.00 L 82.00,33.00 L 84.00,33.00 L 86.00,33.00 L 88.00,33.00 L 90.00,33.00 L 92.00,33.00 L 94.00,33.00 L 96.00,33.00 L 98.00,33.00 L 100.00,33.00 L 102.00,33.00 L 104.00,33.00 L 106.00,33.00 L 108.00,33.00 L 110.00,33.00 L 112.00,33.00 L 114.00,33.00 L 116.00,33.00 L 118.00,33.00 L 120.00,33.00 L 122.00,33.00 L 124.00,33.00 L 126.00,33.00 L 128.00,33.00 L 130.00,33.00 L 132.00,33.00 L 134.00,33.00 L 136.00,33.00 L 138.00,33.00 L 140.00,33.00 L 142.00,33.00 L 144.00,33.00 L 146.00,33.00 L 148.00,33.00 L 150.00,33.00 L 152.00,33.00 L 154.00,33.00 L 156.00,33.00 L 158.00,33.00 L 160.00,33.00 L 162.00,33.00 L 164.00,33.00 L 166.00,33.00 L 168.00,33.00 L 170.00,33.00 L 172.00,33.00 L 174.00,33.00 L 176.00,33.00 L 178.00,33.00 L 180.00,33.00 L 182.00,33.00 L 184.00,33.00 L 186.00,33.00 L 188.00,33.00 L 190.00,33.00 L 192.00,33.00 L 194.00,33.00 L 196.00,33.00 L 198.00,33.00 L 200.00,33.00 L 202.00,33.00 L 204.00,33.00 L 206.00,33.00 L 208.00,33.00 L 210.00,33.00 L 212.00,33.00 L 214.00,33.00 L 216.00,33.00 L 218.00,33.00 L 220.00,33.00 L 222.00,33.00 L 224.00,33.00 L 226.00,33.00 L 228.00,33.00 L 230.00,33.00 L 232.00,33.00 L 234.00,33.00 L 236.00,33.00 L 238.00,33.00 L 240.00,33.00 L 242.00,33.00 L 244.00,33.00 L 246.00,33.00 L 248.00,33.00 L 250.00,33.00 L 252.00,33.00 L 254.00,33.00 L 256.00,33.00 L 258.00,33.00 L 260.00,33.00 L 262.00,33.00 L 264.00,33.00 L 266.00,33.00 L 268.00,33.00 L 270.00,33.00 L 272.00,33.00 L 274.00,33.00 L 276.00,33.00 L 278.00,33.00 L 280.00,33.00 L 282.00,33.00 L 284.00,33.00 L 286.00,33.00 L 288.00,33.00 L 290.00,33.00 L 292.00,33.00 L 294.00,33.00 L 296.00,33.00 L 298.00,33.00 L 300.00,33.00 L 302.00,33.00 L 304.00,33.00 L 306.00,33.00 L 308.00,33.00 L 310.00,33.00 L 312.00,33.00 L 314.00,33.00 L 316.00,33.00 L 318.00,33.00 L 320.00,33.00 L 322.00,33.00 L 324.00,33.00 L 326.00,33.00 L 328.00,33.00 L 330.00,33.00 L 332.00,33.00 L 334.00,33.00 L 336.00,33.00 L 338.00,33.00 L 340.00,33.00 L 342.00,33.00 L 344.00,33.00 L 346.00,33.00 L 348.00,33.00 L 350.00,33.00 L 352.00,33.00 L 354.00,33.00 L 356.00,33.00 L 358.00,33.00 L 360.00,33.00 L 362.00,33.00 L 364.00,33.00 L 366.00,33.00 L 368.00,33.00 L 370.00,33.00 L 372.00,33.00 L 374.00,33.00 L 376.00,33.00 L 378.00,33.00 L 380.00,33.00 L 382.00,33.00 L 384.00,33.00 L 386.00,33.00 L 388.00,33.00 L 390.00,33.00 L 392.00,33.00 L 394.00,33.00 L 396.00,33.00 L 398.00,33.00 L 400.00,33.00 L 402.00,33.00 L 404.00,33.00 L 406.00,33.00 L 408.00,33.00 L 410.00,33.00 L 412.00,33.00 L 414.00,33.00 L 416.00,33.00 L 418.00,33.00 L 420.00,33.00 L 422.00,33.00 L 424.00,33.00 L 426.00,33.00 L 428.00,33.00 L 430.00,33.00 L 432.00,33.00 L 434.00,33.00 L 436.00,33.00 L 438.00,33.00 L 440.00,33.00 L 442.00,33.00 L 444.00,33.00 L 446.00,33.00 L 448.00,33.00 L 450.00,33.00 L 452.00,33.00 L 454.00,33.00 L 456.00,33.00 L 458.00,33.00 L 460.00,33.00 L 462.00,33.00 L 464.00,33.00 L 466.00,33.00 L 468.00,33.00 L 470.00,33.00 L 472.00,33.00 L 474.00,33.00 L 476.00,33.00 L 478.00,33.00 L 480.00,33.00 L 482.00,33.00 L 484.00,33.00 L 486.00,33.00 L 488.00,33.00 L 490.00,33.00 L 492.00,33.00 L 494.00,33.00 L 496.00,33.00 L 498.00,33.00 L 500.00,33.00 L 502.00,33.00 L 504.00,33.00 L 506.00,33.00 L 508.00,33.00 L 510.00,33.00 L 512.00,33.00 L 514.00,33.00 L 516.00,33.00 L 518.00,33.00 L 520.00,33.00 L 522.00,33.00 L 524.00,33.00 L 526.00,33.00 L 528.00,33.00 L 530.00,33.00 L 532.00,33.00 L 534.00,33.00 L 536.00,33.00 L 538.00,33.00 L 540.00,33.00 L 542.00,33.00 L 544.00,33.00 L 546.00,33.00 L 548.00,33.00 L 550.00,33.00 L 552.00,33.00 L 554.00,33.00 L 556.00,33.00 L 558.00,33.00 L 560.00,33.00 L 562.00,33.00 L 564.00,33.00 L 566.00,33.00 L 568.00,33.00 L 570.00,33.00 L 572.00,33.00 L 574.00,33.00 L 576.00,33.00 L 578.00,33.00 L 580.00,33.00 L 582.00,33.00 L 584.00,33.00 L 586.00,33.00 L 588.00,33.00 L 590.00,33.00 L 592.00,33.00 L 594.00,33.00 L 596.00,33.00 L 598.00,33.00 L 600.00,33.00 L 602.00,33.00 L 604.00,33.00 L 606.00,33.00 L 608.00,33.00 L 610.00,33.00 L 612.00,33.00 L 614.00,33.00 L 616.00,33.00 L 618.00,33.00 L 620.00,33.00 L 622.00,33.00 L 624.00,33.00 L 626.00,33.00 L 628.00,33.00 L 630.00,33.00 L 632.00,33.00 L 634.00,33.00 L 636.00,33.00 L 638.00,33.00 L 640.00,33.00 L 642.00,33.00 L 644.00,33.00 L 646.00,33.00 L 648.00,33.00 L 650.00,33.00 L 652.00,33.00 L 654.00,33.00 L 656.00,33.00 L 658.00,33.00 L 660.00,33.00 L 662.00,33.00 L 664.00,33.00 L 666.00,33.00 L 668.00,33.00 L 670.00,33.00 L 672.00,33.00 L 674.00,33.00 L 676.00,33.00 L 678.00,33.00 L 680.00,33.00 L 682.00,33.00 L 684.00,33.00 L 686.00,33.00 L 688.00,33.00 L 690.00,33.00 L 692.00,33.00 L 694.00,33.00 L 696.00,33.00 L 698.00,33.00 L 700.00,33.00 L 702.00,33.00 L 704.00,33.00 L 706.00,33.00 L 708.00,33.00 L 710.00,33.00 L 712.00,33.00 L 714.00,33.00 L 716.00,33.00 L 718.00,33.00 L 720.00,33.00 L 722.00,33.00 L 724.00,33.00 L 726.00,33.00 L 728.00,33.00 L 730.00,33.00 L 732.00,33.00 L 734.00,33.00 L 736.00,33.00 L 738.00,33.00 L 740.00,33.00 L 742.00,33.00 L 744.00,33.00 L 746.00,33.00 L 748.00,33.00 L 750.00,33.00 L 752.00,33.00 L 754.00,33.00 L 756.00,33.00 L 758.00,33.00 L 760.00,33.00 L 762.00,33.00 L 764.00,33.00 L 766.00,33.00 L 768.00,33.00 L 770.00,33.00 L 772.00,33.00 L 774.00,33.00 L 776.00,33.00 L 778.00,33.00 L 780.00,33.00 L 782.00,33.00 L 784.00,33.00 L 786.00,33.00 L 788.00,33.00 L 790.00,33.00 L 792.00,33.00 L 794.00,33.00 L 796.00,33.00 L 798.00,33.00 " fill="none" stroke="#b48a5a" stroke-width="1.17" opacity="0.7"/>
<path d="M 0.00,50.00 L 2.00,50.00 L 4.00,50.00 L 6.00,50.00 L 8.00,50.00 L 10.00,50.00 L 12.00,50.00 L 14.00,50.00 L 16.00,50.00 L 18.00,50.00 L 20.00,50.00 L 22.00,50.00 L 24.00,50.00 L 26.00,50.00 L 28.00,50.00 L 30.00,50.00 L 32.00,50.00 L 34.00,50.00 L 36.00,50.00 L 38.00,50.00 L 40.00,50.00 L 42.00,50.00 L 44.00,50.00 L 46.00,50.00 L 48.00,50.00 L 50.00,50.00 L 52.00,50.00 L 54.00,50.00 L 56.00,50.00 L 58.00,50.00 L 60.00,50.00 L 62.00,50.00 L 64.00,50.00 L 66.00,50.00 L 68.00,50.00 L 70.00,50.00 L 72.00,50.00 L 74.00,50.00 L 76.00,50.00 L 78.00,50.00 L 80.00,50.00 L 82.00,50.00 L 84.00,50.00 L 86.00,50.00 L 88.00,50.00 L 90.00,50.00 L 92.00,50.00 L 94.00,50.00 L 96.00,50.00 L 98.00,50.00 L 100.00,50.00 L 102.00,50.00 L 104.00,50.00 L 106.00,50.00 L 108.00,50.00 L 110.00,50.00 L 112.00,50.00 L 114.00,50.00 L 116.00,50.00 L 118.00,50.00 L 120.00,50.00 L 122.00,50.00 L 124.00,50.00 L 126.00,50.00 L 128.00,50.00 L 130.00,50.00 L 132.00,50.00 L 134.00,50.00 L 136.00,50.00 L 138.00,50.00 L 140.00,50.00 L 142.00,50.00 L 144.00,50.00 L 146.00,50.00 L 148.00,50.00 L 150.00,50.00 L 152.00,50.00 L 154.00,50.00 L 156.00,50.00 L 158.00,50.00 L 160.00,50.00 L 162.00,50.00 L 164.00,50.00 L 166.00,50.00 L 168.00,50.00 L 170.00,50.00 L 172.00,50.00 L 174.00,50.00 L 176.00,50.00 L 178.00,50.00 L 180.00,50.00 L 182.00,50.00 L 184.00,50.00 L 186.00,50.00 L 188.00,50.00 L 190.00,50.00 L 192.00,50.00 L 194.00,50.00 L 196.00,50.00 L 198.00,50.00 L 200.00,50.00 L 202.00,50.00 L 204.00,50.00 L 206.00,50.00 L 208.00,50.00 L 210.00,50.00 L 212.00,50.00 L 214.00,50.00 L 216.00,50.00 L 218.00,50.00 L 220.00,50.00 L 222.00,50.00 L 224.00,50.00 L 226.00,50.00 L 228.00,50.00 L 230.00,50.00 L 232.00,50.00 L 234.00,50.00 L 236.00,50.00 L 238.00,50.00 L 240.00,50.00 L 242.00,50.00 L 244.00,50.00 L 246.00,50.00 L 248.00,50.00 L 250.00,50.00 L 252.00,50.00 L 254.00,50.00 L 256.00,50.00 L 258.00,50.00 L 260.00,50.00 L 262.00,50.00 L 264.00,50.00 L 266.00,50.00 L 268.00,50.00 L 270.00,50.00 L 272.00,50.00 L 274.00,50.00 L 276.00,50.00 L 278.00,50.00 L 280.00,50.00 L 282.00,50.00 L 284.00,50.00 L 286.00,50.00 L 288.00,50.00 L 290.00,50.00 L 292.00,50.00 L 294.00,50.00 L 296.00,50.00 L 298.00,50.00 L 300.00,50.00 L 302.00,50.00 L 304.00,50.00 L 306.00,50.00 L 308.00,50.00 L 310.00,50.00 L 312.00,50.00 L 314.00,50.00 L 316.00,50.00 L 318.00,50.00 L 320.00,50.00 L 322.00,50.00 L 324.00,50.00 L 326.00,50.00 L 328.00,50.00 L 330.00,50.00 L 332.00,50.00 L 334.00,50.00 L 336.00,50.00 L 338.00,50.00 L 340.00,50.00 L 342.00,50.00 L 344.00,50.00 L 346.00,50.00 L 348.00,50.00 L 350.00,50.00 L 352.00,50.00 L 354.00,50.00 L 356.00,50.00 L 358.00,50.00 L 360.00,50.00 L 362.00,50.00 L 364.00,50.00 L 366.00,50.00 L 368.00,50.00 L 370.00,50.00 L 372.00,50.00 L 374.00,50.00 L 376.00,50.00 L 378.00,50.00 L 380.00,50.00 L 382.00,50.00 L 384.00,50.00 L 386.00,50.00 L 388.00,50.00 L 390.00,50.00 L 392.00,50.00 L 394.00,50.00 L 396.00,50.00 L 398.00,50.00 L 400.00,50.00 L 402.00,50.00 L 404.00,50.00 L 406.00,50.00 L 408.00,50.00 L 410.00,50.00 L 412.00,50.00 L 414.00,50.00 L 416.00,50.00 L 418.00,50.00 L 420.00,50.00 L 422.00,50.00 L 424.00,50.00 L 426.00,50.00 L 428.00,50.00 L 430.00,50.00 L 432.00,50.00 L 434.00,50.00 L 436.00,50.00 L 438.00,50.00 L 440.00,50.00 L 442.00,50.00 L 444.00,50.00 L 446.00,50.00 L 448.00,50.00 L 450.00,50.00 L 452.00,50.00 L 454.00,50.00 L 456.00,50.00 L 458.00,50.00 L 460.00,50.00 L 462.00,50.00 L 464.00,50.00 L 466.00,50.00 L 468.00,50.00 L 470.00,50.00 L 472.00,50.00 L 474.00,50.00 L 476.00,50.00 L 478.00,50.00 L 480.00,50.00 L 482.00,50.00 L 484.00,50.00 L 486.00,50.00 L 488.00,50.00 L 490.00,50.00 L 492.00,50.00 L 494.00,50.00 L 496.00,50.00 L 498.00,50.00 L 500.00,50.00 L 502.00,50.00 L 504.00,50.00 L 506.00,50.00 L 508.00,50.00 L 510.00,50.00 L 512.00,50.00 L 514.00,50.00 L 516.00,50.00 L 518.00,50.00 L 520.00,50.00 L 522.00,50.00 L 524.00,50.00 L 526.00,50.00 L 528.00,50.00 L 530.00,50.00 L 532.00,50.00 L 534.00,50.00 L 536.00,50.00 L 538.00,50.00 L 540.00,50.00 L 542.00,50.00 L 544.00,50.00 L 546.00,50.00 L 548.00,50.00 L 550.00,50.00 L 552.00,50.00 L 554.00,50.00 L 556.00,50.00 L 558.00,50.00 L 560.00,50.00 L 562.00,50.00 L 564.00,50.00 L 566.00,50.00 L 568.00,50.00 L 570.00,50.00 L 572.00,50.00 L 574.00,50.00 L 576.00,50.00 L 578.00,50.00 L 580.00,50.00 L 582.00,50.00 L 584.00,50.00 L 586.00,50.00 L 588.00,50.00 L 590.00,50.00 L 592.00,50.00 L 594.00,50.00 L 596.00,50.00 L 598.00,50.00 L 600.00,50.00 L 602.00,50.00 L 604.00,50.00 L 606.00,50.00 L 608.00,50.00 L 610.00,50.00 L 612.00,50.00 L 614.00,50.00 L 616.00,50.00 L 618.00,50.00 L 620.00,50.00 L 622.00,50.00 L 624.00,50.00 L 626.00,50.00 L 628.00,50.00 L 630.00,50.00 L 632.00,50.00 L 634.00,50.00 L 636.00,50.00 L 638.00,50.00 L 640.00,50.00 L 642.00,50.00 L 644.00,50.00 L 646.00,50.00 L 648.00,50.00 L 650.00,50.00 L 652.00,50.00 L 654.00,50.00 L 656.00,50.00 L 658.00,50.00 L 660.00,50.00 L 662.00,50.00 L 664.00,50.00 L 666.00,50.00 L 668.00,50.00 L 670.00,50.00 L 672.00,50.00 L 674.00,50.00 L 676.00,50.00 L 678.00,50.00 L 680.00,50.00 L 682.00,50.00 L 684.00,50.00 L 686.00,50.00 L 688.00,50.00 L 690.00,50.00 L 692.00,50.00 L 694.00,50.00 L 696.00,50.00 L 698.00,50.00 L 700.00,50.00 L 702.00,50.00 L 704.00,50.00 L 706.00,50.00 L 708.00,50.00 L 710.00,50.00 L 712.00,50.00 L 714.00,50.00 L 716.00,50.00 L 718.00,50.00 L 720.00,50.00 L 722.00,50.00 L 724.00,50.00 L 726.00,50.00 L 728.00,50.00 L 730.00,50.00 L 732.00,50.00 L 734.00,50.00 L 736.00,50.00 L 738.00,50.00 L 740.00,50.00 L 742.00,50.00 L 744.00,50.00 L 746.00,50.00 L 748.00,50.00 L 750.00,50.00 L 752.00,50.00 L 754.00,50.00 L 756.00,50.00 L 758.00,50.00 L 760.00,50.00 L 762.00,50.00 L 764.00,50.00 L 766.00,50.00 L 768.00,50.00 L 770.00,50.00 L 772.00,50.00 L 774.00,50.00 L 776.00,50.00 L 778.00,50.00 L 780.00,50.00 L 782.00,50.00 L 784.00,50.00 L 786.00,50.00 L 788.00,50.00 L 790.00,50.00 L 792.00,50.00 L 794.00,50.00 L 796.00,50.00 L 798.00,50.00 " fill="none" stroke="#b48a5a" stroke-width="1.25" opacity="0.7"/>
<path d="M 0.00,66.00 L 2.00,66.00 L 4.00,66.00 L 6.00,66.00 L 8.00,66.00 L 10.00,66.00 L 12.00,66.00 L 14.00,66.00 L 16.00,66.00 L 18.00,66.00 L 20.00,66.00 L 22.00,66.00 L 24.00,66.00 L 26.00,66.00 L 28.00,66.00 L 30.00,66.00 L 32.00,66.00 L 34.00,66.00 L 36.00,66.00 L 38.00,66.00 L 40.00,66.00 L 42.00,66.00 L 44.00,66.00 L 46.00,66.00 L 48.00,66.00 L 50.00,66.00 L 52.00,66.00 L 54.00,66.00 L 56.00,66.00 L 58.00,66.00 L 60.00,66.00 L 62.00,66.00 L 64.00,66.00 L 66.00,66.00 L 68.00,66.00 L 70.00,66.00 L 72.00,66.00 L 74.00,66.00 L 76.00,66.00 L 78.00,66.00 L 80.00,66.00 L 82.00,66.00 L 84.00,66.00 L 86.00,66.00 L 88.00,66.00 L 90.00,66.00 L 92.00,66.00 L 94.00,66.00 L 96.00,66.00 L 98.00,66.00 L 100.00,66.00 L 102.00,66.00 L 104.00,66.00 L 106.00,66.00 L 108.00,66.00 L 110.00,66.00 L 112.00,66.00 L 114.00,66.00 L 116.00,66.00 L 118.00,66.00 L 120.00,66.00 L 122.00,66.00 L 124.00,66.00 L 126.00,66.00 L 128.00,66.00 L 130.00,66.00 L 132.00,66.00 L 134.00,66.00 L 136.00,66.00 L 138.00,66.00 L 140.00,66.00 L 142.00,66.00 L 144.00,66.00 L 146.00,66.00 L 148.00,66.00 L 150.00,66.00 L 152.00,66.00 L 154.00,66.00 L 156.00,66.00 L 158.00,66.00 L 160.00,66.00 L 162.00,66.00 L 164.00,66.00 L 166.00,66.00 L 168.00,66.00 L 170.00,66.00 L 172.00,66.00 L 174.00,66.00 L 176.00,66.00 L 178.00,66.00 L 180.00,66.00 L 182.00,66.00 L 184.00,66.00 L 186.00,66.00 L 188.00,66.00 L 190.00,66.00 L 192.00,66.00 L 194.00,66.00 L 196.00,66.00 L 198.00,66.00 L 200.00,66.00 L 202.00,66.00 L 204.00,66.00 L 206.00,66.00 L 208.00,66.00 L 210.00,66.00 L 212.00,66.00 L 214.00,66.00 L 216.00,66.00 L 218.00,66.00 L 220.00,66.00 L 222.00,66.00 L 224.00,66.00 L 226.00,66.00 L 228.00,66.00 L 230.00,66.00 L 232.00,66.00 L 234.00,66.00 L 236.00,66.00 L 238.00,66.00 L 240.00,66.00 L 242.00,66.00 L 244.00,66.00 L 246.00,66.00 L 248.00,66.00 L 250.00,66.00 L 252.00,66.00 L 254.00,66.00 L 256.00,66.00 L 258.00,66.00 L 260.00,66.00 L 262.00,66.00 L 264.00,66.00 L 266.00,66.00 L 268.00,66.00 L 270.00,66.00 L 272.00,66.00 L 274.00,66.00 L 276.00,66.00 L 278.00,66.00 L 280.00,66.00 L 282.00,66.00 L 284.00,66.00 L 286.00,66.00 L 288.00,66.00 L 290.00,66.00 L 292.00,66.00 L 294.00,66.00 L 296.00,66.00 L 298.00,66.00 L 300.00,66.00 L 302.00,66.00 L 304.00,66.00 L 306.00,66.00 L 308.00,66.00 L 310.00,66.00 L 312.00,66.00 L 314.00,66.00 L 316.00,66.00 L 318.00,66.00 L 320.00,66.00 L 322.00,66.00 L 324.00,66.00 L 326.00,66.00 L 328.00,66.00 L 330.00,66.00 L 332.00,66.00 L 334.00,66.00 L 336.00,66.00 L 338.00,66.00 L 340.00,66.00 L 342.00,66.00 L 344.00,66.00 L 346.00,66.00 L 348.00,66.00 L 350.00,66.00 L 352.00,66.00 L 354.00,66.00 L 356.00,66.00 L 358.00,66.00 L 360.00,66.00 L 362.00,66.00 L 364.00,66.00 L 366.00,66.00 L 368.00,66.00 L 370.00,66.00 L 372.00,66.00 L 374.00,66.00 L 376.00,66.00 L 378.00,66.00 L 380.00,66.00 L 382.00,66.00 L 384.00,66.00 L 386.00,66.00 L 388.00,66.00 L 390.00,66.00 L 392.00,66.00 L 394.00,66.00 L 396.00,66.00 L 398.00,66.00 L 400.00,66.00 L 402.00,66.00 L 404.00,66.00 L 406.00,66.00 L 408.00,66.00 L 410.00,66.00 L 412.00,66.00 L 414.00,66.00 L 416.00,66.00 L 418.00,66.00 L 420.00,66.00 L 422.00,66.00 L 424.00,66.00 L 426.00,66.00 L 428.00,66.00 L 430.00,66.00 L 432.00,66.00 L 434.00,66.00 L 436.00,66.00 L 438.00,66.00 L 440.00,66.00 L 442.00,66.00 L 444.00,66.00 L 446.00,66.00 L 448.00,66.00 L 450.00,66.00 L 452.00,66.00 L 454.00,66.00 L 456.00,66.00 L 458.00,66.00 L 460.00,66.00 L 462.00,66.00 L 464.00,66.00 L 466.00,66.00 L 468.00,66.00 L 470.00,66.00 L 472.00,66.00 L 474.00,66.00 L 476.00,66.00 L 478.00,66.00 L 480.00,66.00 L 482.00,66.00 L 484.00,66.00 L 486.00,66.00 L 488.00,66.00 L 490.00,66.00 L 492.00,66.00 L 494.00,66.00 L 496.00,66.00 L 498.00,66.00 L 500.00,66.00 L 502.00,66.00 L 504.00,66.00 L 506.00,66.00 L 508.00,66.00 L 510.00,66.00 L 512.00,66.00 L 514.00,66.00 L 516.00,66.00 L 518.00,66.00 L 520.00,66.00 L 522.00,66.00 L 524.00,66.00 L 526.00,66.00 L 528.00,66.00 L 530.00,66.00 L 532.00,66.00 L 534.00,66.00 L 536.00,66.00 L 538.00,66.00 L 540.00,66.00 L 542.00,66.00 L 544.00,66.00 L 546.00,66.00 L 548.00,66.00 L 550.00,66.00 L 552.00,66.00 L 554.00,66.00 L 556.00,66.00 L 558.00,66.00 L 560.00,66.00 L 562.00,66.00 L 564.00,66.00 L 566.00,66.00 L 568.00,66.00 L 570.00,66.00 L 572.00,66.00 L 574.00,66.00 L 576.00,66.00 L 578.00,66.00 L 580.00,66.00 L 582.00,66.00 L 584.00,66.00 L 586.00,66.00 L 588.00,66.00 L 590.00,66.00 L 592.00,66.00 L 594.00,66.00 L 596.00,66.00 L 598.00,66.00 L 600.00,66.00 L 602.00,66.00 L 604.00,66.00 L 606.00,66.00 L 608.00,66.00 L 610.00,66.00 L 612.00,66.00 L 614.00,66.00 L 616.00,66.00 L 618.00,66.00 L 620.00,66.00 L 622.00,66.00 L 624.00,66.00 L 626.00,66.00 L 628.00,66.00 L 630.00,66.00 L 632.00,66.00 L 634.00,66.00 L 636.00,66.00 L 638.00,66.00 L 640.00,66.00 L 642.00,66.00 L 644.00,66.00 L 646.00,66.00 L 648.00,66.00 L 650.00,66.00 L 652.00,66.00 L 654.00,66.00 L 656.00,66.00 L 658.00,66.00 L 660.00,66.00 L 662.00,66.00 L 664.00,66.00 L 666.00,66.00 L 668.00,66.00 L 670.00,66.00 L 672.00,66.00 L 674.00,66.00 L 676.00,66.00 L 678.00,66.00 L 680.00,66.00 L 682.00,66.00 L 684.00,66.00 L 686.00,66.00 L 688.00,66.00 L 690.00,66.00 L 692.00,66.00 L 694.00,66.00 L 696.00,66.00 L 698.00,66.00 L 700.00,66.00 L 702.00,66.00 L 704.00,66.00 L 706.00,66.00 L 708.00,66.00 L 710.00,66.00 L 712.00,66.00 L 714.00,66.00 L 716.00,66.00 L 718.00,66.00 L 720.00,66.00 L 722.00,66.00 L 724.00,66.00 L 726.00,66.00 L 728.00,66.00 L 730.00,66.00 L 732.00,66.00 L 734.00,66.00 L 736.00,66.00 L 738.00,66.00 L 740.00,66.00 L 742.00,66.00 L 744.00,66.00 L 746.00,66.00 L 748.00,66.00 L 750.00,66.00 L 752.00,66.00 L 754.00,66.00 L 756.00,66.00 L 758.00,66.00 L 760.00,66.00 L 762.00,66.00 L 764.00,66.00 L 766.00,66.00 L 768.00,66.00 L 770.00,66.00 L 772.00,66.00 L 774.00,66.00 L 776.00,66.00 L 778.00,66.00 L 780.00,66.00 L 782.00,66.00 L 784.00,66.00 L 786.00,66.00 L 788.00,66.00 L 790.00,66.00 L 792.00,66.00 L 794.00,66.00 L 796.00,66.00 L 798.00,66.00 " fill="none" stroke="#b48a5a" stroke-width="0.99" opacity="0.7"/>
<path d="M 0.00,83.00 L 2.00,83.00 L 4.00,83.00 L 6.00,83.00 L 8.00,83.00 L 10.00,83.00 L 12.00,83.00 L 14.00,83.00 L 16.00,83.00 L 18.00,83.00 L 20.00,83.00 L 22.00,83.00 L 24.00,83.00 L 26.00,83.00 L 28.00,83.00 L 30.00,83.00 L 32.00,83.00 L 34.00,83.00 L 36.00,83.00 L 38.00,83.00 L 40.00,83.00 L 42.00,83.00 L 44.00,83.00 L 46.00,83.00 L 48.00,83.00 L 50.00,83.00 L 52.00,83.00 L 54.00,83.00 L 56.00,83.00 L 58.00,83.00 L 60.00,83.00 L 62.00,83.00 L 64.00,83.00 L 66.00,83.00 L 68.00,83.00 L 70.00,83.00 L 72.00,83.00 L 74.00,83.00 L 76.00,83.00 L 78.00,83.00 L 80.00,83.00 L 82.00,83.00 L 84.00,83.00 L 86.00,83.00 L 88.00,83.00 L 90.00,83.00 L 92.00,83.00 L 94.00,83.00 L 96.00,83.00 L 98.00,83.00 L 100.00,83.00 L 102.00,83.00 L 104.00,83.00 L 106.00,83.00 L 108.00,83.00 L 110.00,83.00 L 112.00,83.00 L 114.00,83.00 L 116.00,83.00 L 118.00,83.00 L 120.00,83.00 L 122.00,83.00 L 124.00,83.00 L 126.00,83.00 L 128.00,83.00 L 130.00,83.00 L 132.00,83.00 L 134.00,83.00 L 136.00,83.00 L 138.00,83.00 L 140.00,83.00 L 142.00,83.00 L 144.00,83.00 L 146.00,83.00 L 148.00,83.00 L 150.00,83.00 L 152.00,83.00 L 154.00,83.00 L 156.00,83.00 L 158.00,83.00 L 160.00,83.00 L 162.00,83.00 L 164.00,83.00 L 166.00,83.00 L 168.00,83.00 L 170.00,83.00 L 172.00,83.00 L 174.00,83.00 L 176.00,83.00 L 178.00,83.00 L 180.00,83.00 L 182.00,83.00 L 184.00,83.00 L 186.00,83.00 L 188.00,83.00 L 190.00,83.00 L 192.00,83.00 L 194.00,83.00 L 196.00,83.00 L 198.00,83.00 L 200.00,83.00 L 202.00,83.00 L 204.00,83.00 L 206.00,83.00 L 208.00,83.00 L 210.00,83.00 L 212.00,83.00 L 214.00,83.00 L 216.00,83.00 L 218.00,83.00 L 220.00,83.00 L 222.00,83.00 L 224.00,83.00 L 226.00,83.00 L 228.00,83.00 L 230.00,83.00 L 232.00,83.00 L 234.00,83.00 L 236.00,83.00 L 238.00,83.00 L 240.00,83.00 L 242.00,83.00 L 244.00,83.00 L 246.00,83.00 L 248.00,83.00 L 250.00,83.00 L 252.00,83.00 L 254.00,83.00 L 256.00,83.00 L 258.00,83.00 L 260.00,83.00 L 262.00,83.00 L 264.00,83.00 L 266.00,83.00 L 268.00,83.00 L 270.00,83.00 L 272.00,83.00 L 274.00,83.00 L 276.00,83.00 L 278.00,83.00 L 280.00,83.00 L 282.00,83.00 L 284.00,83.00 L 286.00,83.00 L 288.00,83.00 L 290.00,83.00 L 292.00,83.00 L 294.00,83.00 L 296.00,83.00 L 298.00,83.00 L 300.00,83.00 L 302.00,83.00 L 304.00,83.00 L 306.00,83.00 L 308.00,83.00 L 310.00,83.00 L 312.00,83.00 L 314.00,83.00 L 316.00,83.00 L 318.00,83.00 L 320.00,83.00 L 322.00,83.00 L 324.00,83.00 L 326.00,83.00 L 328.00,83.00 L 330.00,83.00 L 332.00,83.00 L 334.00,83.00 L 336.00,83.00 L 338.00,83.00 L 340.00,83.00 L 342.00,83.00 L 344.00,83.00 L 346.00,83.00 L 348.00,83.00 L 350.00,83.00 L 352.00,83.00 L 354.00,83.00 L 356.00,83.00 L 358.00,83.00 L 360.00,83.00 L 362.00,83.00 L 364.00,83.00 L 366.00,83.00 L 368.00,83.00 L 370.00,83.00 L 372.00,83.00 L 374.00,83.00 L 376.00,83.00 L 378.00,83.00 L 380.00,83.00 L 382.00,83.00 L 384.00,83.00 L 386.00,83.00 L 388.00,83.00 L 390.00,83.00 L 392.00,83.00 L 394.00,83.00 L 396.00,83.00 L 398.00,83.00 L 400.00,83.00 L 402.00,83.00 L 404.00,83.00 L 406.00,83.00 L 408.00,83.00 L 410.00,83.00 L 412.00,83.00 L 414.00,83.00 L 416.00,83.00 L 418.00,83.00 L 420.00,83.00 L 422.00,83.00 L 424.00,83.00 L 426.00,83.00 L 428.00,83.00 L 430.00,83.00 L 432.00,83.00 L 434.00,83.00 L 436.00,83.00 L 438.00,83.00 L 440.00,83.00 L 442.00,83.00 L 444.00,83.00 L 446.00,83.00 L 448.00,83.00 L 450.00,83.00 L 452.00,83.00 L 454.00,83.00 L 456.00,83.00 L 458.00,83.00 L 460.00,83.00 L 462.00,83.00 L 464.00,83.00 L 466.00,83.00 L 468.00,83.00 L 470.00,83.00 L 472.00,83.00 L 474.00,83.00 L 476.00,83.00 L 478.00,83.00 L 480.00,83.00 L 482.00,83.00 L 484.00,83.00 L 486.00,83.00 L 488.00,83.00 L 490.00,83.00 L 492.00,83.00 L 494.00,83.00 L 496.00,83.00 L 498.00,83.00 L 500.00,83.00 L 502.00,83.00 L 504.00,83.00 L 506.00,83.00 L 508.00,83.00 L 510.00,83.00 L 512.00,83.00 L 514.00,83.00 L 516.00,83.00 L 518.00,83.00 L 520.00,83.00 L 522.00,83.00 L 524.00,83.00 L 526.00,83.00 L 528.00,83.00 L 530.00,83.00 L 532.00,83.00 L 534.00,83.00 L 536.00,83.00 L 538.00,83.00 L 540.00,83.00 L 542.00,83.00 L 544.00,83.00 L 546.00,83.00 L 548.00,83.00 L 550.00,83.00 L 552.00,83.00 L 554.00,83.00 L 556.00,83.00 L 558.00,83.00 L 560.00,83.00 L 562.00,83.00 L 564.00,83.00 L 566.00,83.00 L 568.00,83.00 L 570.00,83.00 L 572.00,83.00 L 574.00,83.00 L 576.00,83.00 L 578.00,83.00 L 580.00,83.00 L 582.00,83.00 L 584.00,83.00 L 586.00,83.00 L 588.00,83.00 L 590.00,83.00 L 592.00,83.00 L 594.00,83.00 L 596.00,83.00 L 598.00,83.00 L 600.00,83.00 L 602.00,83.00 L 604.00,83.00 L 606.00,83.00 L 608.00,83.00 L 610.00,83.00 L 612.00,83.00 L 614.00,83.00 L 616.00,83.00 L 618.00,83.00 L 620.00,83.00 L 622.00,83.00 L 624.00,83.00 L 626.00,83.00 L 628.00,83.00 L 630.00,83.00 L 632.00,83.00 L 634.00,83.00 L 636.00,83.00 L 638.00,83.00 L 640.00,83.00 L 642.00,83.00 L 644.00,83.00 L 646.00,83.00 L 648.00,83.00 L 650.00,83.00 L 652.00,83.00 L 654.00,83.00 L 656.00,83.00 L 658.00,83.00 L 660.00,83.00 L 662.00,83.00 L 664.00,83.00 L 666.00,83.00 L 668.00,83.00 L 670.00,83.00 L 672.00,83.12 L 674.00,83.39 L 676.00,83.77 L 678.00,84.22 L 680.00,84.73 L 682.00,85.26 L 684.00,85.80 L 686.00,86.31 L 688.00,86.79 L 690.00,87.21 L 692.00,87.58 L 694.00,87.87 L 696.00,88.08 L 698.00,88.21 L 700.00,88.25 L 702.00,88.21 L 704.00,88.08 L 706.00,87.87 L 708.00,87.58 L 710.00,87.21 L 712.00,86.79 L 714.00,86.31 L 716.00,85.80 L 718.00,85.26 L 720.00,84.73 L 722.00,84.22 L 724.00,83.77 L 726.00,83.39 L 728.00,83.12 L 730.00,83.00 L 732.00,83.00 L 734.00,83.00 L 736.00,83.00 L 738.00,83.00 L 740.00,83.00 L 742.00,83.00 L 744.00,83.00 L 746.00,83.00 L 748.00,83.00 L 750.00,83.00 L 752.00,83.00 L 754.00,83.00 L 756.00,83.00 L 758.00,83.00 L 760.00,83.00 L 762.00,83.00 L 764.00,83.00 L 766.00,83.00 L 768.00,83.00 L 770.00,83.00 L 772.00,83.00 L 774.00,83.00 L 776.00,83.00 L 778.00,83.00 L 780.00,83.00 L 782.00,83.00 L 784.00,83.00 L 786.00,83.00 L 788.00,83.00 L 790.00,83.00 L 792.00,83.00 L 794.00,83.00 L 796.00,83.00 L 798.00,83.00 " fill="none" stroke="#b48a5a" stroke-width="1.18" opacity="0.7"/>
<path d="M 0.00,100.00 L 2.00,100.00 L 4.00,100.00 L 6.00,100.00 L 8.00,100.00 L 10.00,100.00 L 12.00,100.00 L 14.00,100.00 L 16.00,100.00 L 18.00,100.00 L 20.00,100.00 L 22.00,100.00 L 24.00,100.00 L 26.00,100.00 L 28.00,100.00 L 30.00,100.00 L 32.00,100.00 L 34.00,100.00 L 36.00,100.00 L 38.00,100.00 L 40.00,100.00 L 42.00,100.00 L 44.00,100.00 L 46.00,100.00 L 48.00,100.00 L 50.00,100.00 L 52.00,100.00 L 54.00,100.00 L 56.00,100.00 L 58.00,100.00 L 60.00,100.00 L 62.00,100.00 L 64.00,100.00 L 66.00,100.00 L 68.00,100.00 L 70.00,100.00 L 72.00,100.00 L 74.00,100.00 L 76.00,100.00 L 78.00,100.00 L 80.00,100.00 L 82.00,100.00 L 84.00,100.00 L 86.00,100.00 L 88.00,100.00 L 90.00,100.00 L 92.00,100.00 L 94.00,100.00 L 96.00,100.00 L 98.00,100.00 L 100.00,100.00 L 102.00,100.00 L 104.00,100.00 L 106.00,100.00 L 108.00,100.00 L 110.00,100.00 L 112.00,100.00 L 114.00,100.00 L 116.00,100.00 L 118.00,100.00 L 120.00,100.00 L 122.00,100.00 L 124.00,100.00 L 126.00,100.00 L 128.00,100.00 L 130.00,100.00 L 132.00,100.00 L 134.00,100.00 L 136.00,100.00 L 138.00,100.00 L 140.00,100.00 L 142.00,100.00 L 144.00,100.00 L 146.00,100.00 L 148.00,100.00 L 150.00,100.00 L 152.00,100.00 L 154.00,100.00 L 156.00,100.00 L 158.00,100.00 L 160.00,100.00 L 162.00,100.00 L 164.00,100.00 L 166.00,100.00 L 168.00,100.00 L 170.00,100.00 L 172.00,100.00 L 174.00,100.00 L 176.00,100.00 L 178.00,100.00 L 180.00,100.00 L 182.00,100.00 L 184.00,100.00 L 186.00,100.00 L 188.00,100.00 L 190.00,100.00 L 192.00,100.00 L 194.00,100.00 L 196.00,100.00 L 198.00,100.00 L 200.00,100.00 L 202.00,100.00 L 204.00,100.00 L 206.00,100.00 L 208.00,100.00 L 210.00,100.00 L 212.00,100.00 L 214.00,100.00 L 216.00,100.00 L 218.00,100.00 L 220.00,100.00 L 222.00,100.00 L 224.00,100.00 L 226.00,100.00 L 228.00,100.00 L 230.00,100.00 L 232.00,100.00 L 234.00,100.00 L 236.00,100.00 L 238.00,100.00 L 240.00,100.00 L 242.00,100.00 L 244.00,100.00 L 246.00,100.00 L 248.00,100.00 L 250.00,100.00 L 252.00,100.00 L 254.00,100.00 L 256.00,100.00 L 258.00,100.00 L 260.00,100.00 L 262.00,100.00 L 264.00,100.00 L 266.00,100.00 L 268.00,100.00 L 270.00,100.00 L 272.00,100.00 L 274.00,100.00 L 276.00,100.00 L 278.00,100.00 L 280.00,100.00 L 282.00,100.00 L 284.00,100.00 L 286.00,100.00 L 288.00,100.00 L 290.00,100.00 L 292.00,100.00 L 294.00,100.00 L 296.00,100.00 L 298.00,100.00 L 300.00,100.00 L 302.00,100.00 L 304.00,100.00 L 306.00,100.00 L 308.00,100.00 L 310.00,100.00 L 312.00,100.00 L 314.00,100.00 L 316.00,100.00 L 318.00,100.00 L 320.00,100.00 L 322.00,100.00 L 324.00,100.00 L 326.00,100.00 L 328.00,100.00 L 330.00,100.00 L 332.00,100.00 L 334.00,100.00 L 336.00,100.00 L 338.00,100.00 L 340.00,100.00 L 342.00,100.00 L 344.00,100.00 L 346.00,100.00 L 348.00,100.00 L 350.00,100.00 L 352.00,100.00 L 354.00,100.00 L 356.00,100.00 L 358.00,100.00 L 360.00,100.00 L 362.00,100.00 L 364.00,100.00 L 366.00,100.00 L 368.00,100.00 L 370.00,100.00 L 372.00,100.00 L 374.00,100.00 L 376.00,100.00 L 378.00,100.00 L 380.00,100.00 L 382.00,100.00 L 384.00,100.00 L 386.00,100.00 L 388.00,100.00 L 390.00,100.00 L 392.00,100.00 L 394.00,100.00 L 396.00,100.00 L 398.00,100.00 L 400.00,100.00 L 402.00,100.00 L 404.00,100.00 L 406.00,100.00 L 408.00,100.00 L 410.00,100.00 L 412.00,100.00 L 414.00,100.00 L 416.00,100.00 L 418.00,100.00 L 420.00,100.00 L 422.00,100.00 L 424.00,100.00 L 426.00,100.00 L 428.00,100.00 L 430.00,100.00 L 432.00,100.00 L 434.00,100.00 L 436.00,100.01 L 438.00,100.07 L 440.00,100.16 L 442.00,100.24 L 444.00,100.31 L 446.00,100.34 L 448.00,100.34 L 450.00,100.31 L 452.00,100.24 L 454.00,100.16 L 456.00,100.07 L 458.00,100.01 L 460.00,100.00 L 462.00,100.00 L 464.00,100.00 L 466.00,100.00 L 468.00,100.00 L 470.00,100.00 L 472.00,100.00 L 474.00,100.00 L 476.00,100.00 L 478.00,100.00 L 480.00,100.00 L 482.00,100.00 L 484.00,100.00 L 486.00,100.00 L 488.00,100.00 L 490.00,100.00 L 492.00,100.00 L 494.00,100.00 L 496.00,100.00 L 498.00,100.00 L 500.00,100.00 L 502.00,100.00 L 504.00,100.00 L 506.00,100.00 L 508.00,100.00 L 510.00,100.00 L 512.00,100.00 L 514.00,100.00 L 516.00,100.00 L 518.00,100.00 L 520.00,100.00 L 522.00,100.00 L 524.00,100.00 L 526.00,100.00 L 528.00,100.00 L 530.00,100.00 L 532.00,100.00 L 534.00,100.00 L 536.00,100.00 L 538.00,100.00 L 540.00,100.00 L 542.00,100.00 L 544.00,100.00 L 546.00,100.00 L 548.00,100.00 L 550.00,100.00 L 552.00,100.00 L 554.00,100.00 L 556.00,100.00 L 558.00,100.00 L 560.00,100.00 L 562.00,100.00 L 564.00,100.00 L 566.00,100.00 L 568.00,100.00 L 570.00,100.00 L 572.00,100.00 L 574.00,100.00 L 576.00,100.00 L 578.00,100.00 L 580.00,100.00 L 582.00,100.00 L 584.00,100.00 L 586.00,100.00 L 588.00,100.00 L 590.00,100.00 L 592.00,100.00 L 594.00,100.00 L 596.00,100.00 L 598.00,100.00 L 600.00,100.00 L 602.00,100.00 L 604.00,100.00 L 606.00,100.00 L 608.00,100.00 L 610.00,100.00 L 612.00,100.00 L 614.00,100.00 L 616.00,100.00 L 618.00,100.00 L 620.00,100.00 L 622.00,100.00 L 624.00,100.00 L 626.00,100.00 L 628.00,100.00 L 630.00,100.00 L 632.00,100.00 L 634.00,100.00 L 636.00,100.00 L 638.00,100.00 L 640.00,100.00 L 642.00,100.00 L 644.00,100.00 L 646.00,100.00 L 648.00,100.00 L 650.00,100.00 L 652.00,100.00 L 654.00,100.00 L 656.00,100.00 L 658.00,100.00 L 660.00,100.00 L 662.00,100.20 L 664.00,100.67 L 666.00,101.37 L 668.00,102.24 L 670.00,103.25 L 672.00,104.34 L 674.00,105.48 L 676.00,106.61 L 678.00,107.71 L 680.00,108.72 L 682.00,109.61 L 684.00,110.37 L 686.00,110.97 L 688.00,111.39 L 690.00,111.65 L 692.00,111.75 L 708.00,111.75 L 710.00,111.65 L 712.00,111.39 L 714.00,110.97 L 716.00,110.37 L 718.00,109.61 L 720.00,108.72 L 722.00,107.71 L 724.00,106.61 L 726.00,105.48 L 728.00,104.34 L 730.00,103.25 L 732.00,102.24 L 734.00,101.37 L 736.00,100.67 L 738.00,100.20 L 740.00,100.00 L 742.00,100.00 L 744.00,100.00 L 746.00,100.00 L 748.00,100.00 L 750.00,100.00 L 752.00,100.00 L 754.00,100.00 L 756.00,100.00 L 758.00,100.00 L 760.00,100.00 L 762.00,100.00 L 764.00,100.00 L 766.00,100.00 L 768.00,100.00 L 770.00,100.00 L 772.00,100.00 L 774.00,100.00 L 776.00,100.00 L 778.00,100.00 L 780.00,100.00 L 782.00,100.00 L 784.00,100.00 L 786.00,100.00 L 788.00,100.00 L 790.00,100.00 L 792.00,100.00 L 794.00,100.00 L 796.00,100.00 L 798.00,100.00 " fill="none" stroke="#b48a5a" stroke-width="1.09" opacity="0.7"/>
<path d="M 0.00,116.00 L 2.00,116.00 L 4.00,116.00 L 6.00,116.00 L 8.00,116.00 L 10.00,116.00 L 12.00,116.00 L 14.00,116.00 L 16.00,116.00 L 18.00,116.00 L 20.00,116.00 L 22.00,116.00 L 24.00,116.00 L 26.00,116.00 L 28.00,116.00 L 30.00,116.00 L 32.00,116.00 L 34.00,116.00 L 36.00,116.00 L 38.00,116.00 L 40.00,116.00 L 42.00,116.00 L 44.00,116.00 L 46.00,116.00 L 48.00,116.00 L 50.00,116.00 L 52.00,116.00 L 54.00,116.00 L 56.00,116.00 L 58.00,116.00 L 60.00,116.00 L 62.00,116.00 L 64.00,116.00 L 66.00,116.00 L 68.00,116.00 L 70.00,116.00 L 72.00,116.00 L 74.00,116.00 L 76.00,116.00 L 78.00,116.00 L 80.00,116.00 L 82.00,116.00 L 84.00,116.00 L 86.00,116.00 L 88.00,116.00 L 90.00,116.00 L 92.00,116.00 L 94.00,116.00 L 96.00,116.00 L 98.00,116.00 L 100.00,116.00 L 102.00,116.00 L 104.00,116.00 L 106.00,116.00 L 108.00,116.00 L 110.00,116.00 L 112.00,116.00 L 114.00,116.00 L 116.00,116.00 L 118.00,116.00 L 120.00,116.00 L 122.00,116.00 L 124.00,116.00 L 126.00,116.00 L 128.00,116.00 L 130.00,116.00 L 132.00,116.00 L 134.00,116.00 L 136.00,116.00 L 138.00,116.00 L 140.00,116.00 L 142.00,116.00 L 144.00,116.00 L 146.00,116.00 L 148.00,116.00 L 150.00,116.00 L 152.00,116.00 L 154.00,116.00 L 156.00,116.00 L 158.00,116.00 L 160.00,116.00 L 162.00,116.00 L 164.00,116.00 L 166.00,116.00 L 168.00,116.00 L 170.00,116.00 L 172.00,116.00 L 174.00,116.00 L 176.00,116.00 L 178.00,116.00 L 180.00,116.00 L 182.00,116.00 L 184.00,116.00 L 186.00,116.00 L 188.00,116.00 L 190.00,116.00 L 192.00,116.00 L 194.00,116.00 L 196.00,116.00 L 198.00,116.00 L 200.00,116.00 L 202.00,116.00 L 204.00,116.00 L 206.00,116.00 L 208.00,116.00 L 210.00,116.00 L 212.00,116.00 L 214.00,116.00 L 216.00,116.00 L 218.00,116.00 L 220.00,116.00 L 222.00,116.00 L 224.00,116.00 L 226.00,116.00 L 228.00,116.00 L 230.00,116.00 L 232.00,116.00 L 234.00,116.00 L 236.00,116.00 L 238.00,116.00 L 240.00,116.00 L 242.00,116.00 L 244.00,116.00 L 246.00,116.00 L 248.00,116.00 L 250.00,116.00 L 252.00,116.00 L 254.00,116.00 L 256.00,116.00 L 258.00,116.00 L 260.00,116.00 L 262.00,116.00 L 264.00,116.00 L 266.00,116.00 L 268.00,116.00 L 270.00,116.00 L 272.00,116.00 L 274.00,116.00 L 276.00,116.00 L 278.00,116.00 L 280.00,116.00 L 282.00,116.00 L 284.00,116.00 L 286.00,116.00 L 288.00,116.00 L 290.00,116.00 L 292.00,116.00 L 294.00,116.00 L 296.00,116.00 L 298.00,116.00 L 300.00,116.00 L 302.00,116.00 L 304.00,116.00 L 306.00,116.00 L 308.00,116.00 L 310.00,116.00 L 312.00,116.00 L 314.00,116.00 L 316.00,116.00 L 318.00,116.00 L 320.00,116.00 L 322.00,116.00 L 324.00,116.00 L 326.00,116.00 L 328.00,116.00 L 330.00,116.00 L 332.00,116.00 L 334.00,116.00 L 336.00,116.00 L 338.00,116.00 L 340.00,116.00 L 342.00,116.00 L 344.00,116.00 L 346.00,116.00 L 348.00,116.00 L 350.00,116.00 L 352.00,116.00 L 354.00,116.00 L 356.00,116.00 L 358.00,116.00 L 360.00,116.00 L 362.00,116.00 L 364.00,116.00 L 366.00,116.00 L 368.00,116.00 L 370.00,116.00 L 372.00,116.00 L 374.00,116.00 L 376.00,116.00 L 378.00,116.00 L 380.00,116.00 L 382.00,116.00 L 384.00,116.00 L 386.00,116.00 L 388.00,116.00 L 390.00,116.00 L 392.00,116.00 L 394.00,116.00 L 396.00,116.00 L 398.00,116.00 L 400.00,116.00 L 402.00,116.00 L 404.00,116.00 L 406.00,116.00 L 408.00,116.00 L 410.00,116.00 L 412.00,116.00 L 414.00,116.00 L 416.00,116.00 L 418.00,116.00 L 420.00,116.13 L 422.00,116.59 L 424.00,117.30 L 426.00,118.18 L 428.00,119.15 L 430.00,120.16 L 432.00,121.13 L 434.00,122.02 L 436.00,122.79 L 438.00,123.41 L 440.00,123.88 L 442.00,124.19 L 444.00,124.38 L 446.00,124.46 L 448.00,124.46 L 450.00,124.38 L 452.00,124.19 L 454.00,123.88 L 456.00,123.41 L 458.00,122.79 L 460.00,122.02 L 462.00,121.13 L 464.00,120.16 L 466.00,119.15 L 468.00,118.18 L 470.00,117.30 L 472.00,116.59 L 474.00,116.13 L 476.00,116.00 L 478.00,116.00 L 480.00,116.00 L 482.00,116.00 L 484.00,116.00 L 486.00,116.00 L 488.00,116.00 L 490.00,116.00 L 492.00,116.00 L 494.00,116.00 L 496.00,116.00 L 498.00,116.00 L 500.00,116.00 L 502.00,116.00 L 504.00,116.00 L 506.00,116.00 L 508.00,116.00 L 510.00,116.00 L 512.00,116.00 L 514.00,116.00 L 516.00,116.00 L 518.00,116.00 L 520.00,116.00 L 522.00,116.00 L 524.00,116.00 L 526.00,116.00 L 528.00,116.00 L 530.00,116.00 L 532.00,116.00 L 534.00,116.00 L 536.00,116.00 L 538.00,116.00 L 540.00,116.00 L 542.00,116.00 L 544.00,116.00 L 546.00,116.00 L 548.00,116.00 L 550.00,116.00 L 552.00,116.00 L 554.00,116.00 L 556.00,116.00 L 558.00,116.00 L 560.00,116.00 L 562.00,116.00 L 564.00,116.00 L 566.00,116.00 L 568.00,116.00 L 570.00,116.00 L 572.00,116.00 L 574.00,116.00 L 576.00,116.00 L 578.00,116.00 L 580.00,116.00 L 582.00,116.00 L 584.00,116.00 L 586.00,116.00 L 588.00,116.00 L 590.00,116.00 L 592.00,116.00 L 594.00,116.00 L 596.00,116.00 L 598.00,116.00 L 600.00,116.00 L 602.00,116.00 L 604.00,116.00 L 606.00,116.00 L 608.00,116.00 L 610.00,116.00 L 612.00,116.00 L 614.00,116.00 L 616.00,116.00 L 618.00,116.00 L 620.00,116.01 L 622.00,116.04 L 624.00,116.07 L 626.00,116.09 L 628.00,116.12 L 630.00,116.13 L 632.00,116.13 L 634.00,116.13 L 636.00,116.12 L 638.00,116.09 L 640.00,116.07 L 642.00,116.04 L 644.00,116.01 L 646.00,116.00 L 648.00,116.00 L 650.00,116.00 L 652.00,116.00 L 654.00,116.00 L 656.00,116.00 L 658.00,116.00 L 660.00,115.86 L 662.00,115.41 L 664.00,114.70 L 666.00,113.79 L 668.00,112.71 L 670.00,111.53 L 672.00,110.30 L 674.00,109.06 L 676.00,107.86 L 678.00,106.76 L 680.00,105.80 L 682.00,105.03 L 684.00,104.50 L 686.00,104.25 L 714.00,104.25 L 716.00,104.50 L 718.00,105.03 L 720.00,105.80 L 722.00,106.76 L 724.00,107.86 L 726.00,109.06 L 728.00,110.30 L 730.00,111.53 L 732.00,112.71 L 734.00,113.79 L 736.00,114.70 L 738.00,115.41 L 740.00,115.86 L 742.00,116.00 L 744.00,116.00 L 746.00,116.00 L 748.00,116.00 L 750.00,116.00 L 752.00,116.00 L 754.00,116.00 L 756.00,116.00 L 758.00,116.00 L 760.00,116.00 L 762.00,116.00 L 764.00,116.00 L 766.00,116.00 L 768.00,116.00 L 770.00,116.00 L 772.00,116.00 L 774.00,116.00 L 776.00,116.00 L 778.00,116.00 L 780.00,116.00 L 782.00,116.00 L 784.00,116.00 L 786.00,116.00 L 788.00,116.00 L 790.00,116.00 L 792.00,116.00 L 794.00,116.00 L 796.00,116.00 L 798.00,116.00 " fill="none" stroke="#b48a5a" stroke-width="1.44" opacity="0.7"/>
<path d="M 0.00,133.00 L 2.00,133.00 L 4.00,133.00 L 6.00,133.00 L 8.00,133.00 L 10.00,133.00 L 12.00,133.00 L 14.00,133.00 L 16.00,133.00 L 18.00,133.00 L 20.00,133.00 L 22.00,133.00 L 24.00,133.00 L 26.00,133.00 L 28.00,133.00 L 30.00,133.00 L 32.00,133.00 L 34.00,133.00 L 36.00,133.00 L 38.00,133.00 L 40.00,133.00 L 42.00,133.00 L 44.00,133.00 L 46.00,133.00 L 48.00,133.00 L 50.00,133.00 L 52.00,133.00 L 54.00,133.00 L 56.00,133.00 L 58.00,133.00 L 60.00,133.00 L 62.00,133.00 L 64.00,133.00 L 66.00,133.00 L 68.00,133.00 L 70.00,133.00 L 72.00,133.00 L 74.00,133.00 L 76.00,133.00 L 78.00,133.00 L 80.00,133.00 L 82.00,133.00 L 84.00,133.00 L 86.00,133.00 L 88.00,133.00 L 90.00,133.00 L 92.00,133.00 L 94.00,133.00 L 96.00,133.00 L 98.00,133.00 L 100.00,133.00 L 102.00,133.00 L 104.00,133.00 L 106.00,133.00 L 108.00,133.00 L 110.00,133.00 L 112.00,133.00 L 114.00,133.00 L 116.00,133.00 L 118.00,133.00 L 120.00,133.00 L 122.00,133.00 L 124.00,133.00 L 126.00,133.00 L 128.00,133.00 L 130.00,133.00 L 132.00,133.00 L 134.00,133.00 L 136.00,133.00 L 138.00,133.00 L 140.00,133.00 L 142.00,133.00 L 144.00,133.00 L 146.00,133.00 L 148.00,133.00 L 150.00,133.00 L 152.00,133.00 L 154.00,133.00 L 156.00,133.00 L 158.00,133.00 L 160.00,133.00 L 162.00,133.00 L 164.00,133.00 L 166.00,133.00 L 168.00,133.00 L 170.00,133.00 L 172.00,133.00 L 174.00,133.00 L 176.00,133.00 L 178.00,133.00 L 180.00,133.00 L 182.00,133.00 L 184.00,133.00 L 186.00,133.00 L 188.00,133.00 L 190.00,133.00 L 192.00,133.00 L 194.00,133.00 L 196.00,133.00 L 198.00,133.00 L 200.00,133.00 L 202.00,133.00 L 204.00,133.00 L 206.00,133.00 L 208.00,133.00 L 210.00,133.00 L 212.00,133.00 L 214.00,133.00 L 216.00,133.00 L 218.00,133.00 L 220.00,133.00 L 222.00,133.00 L 224.00,133.00 L 226.00,133.00 L 228.00,133.00 L 230.00,133.00 L 232.00,133.00 L 234.00,133.00 L 236.00,133.00 L 238.00,133.00 L 240.00,133.00 L 242.00,133.00 L 244.00,133.00 L 246.00,133.00 L 248.00,133.00 L 250.00,133.00 L 252.00,133.00 L 254.00,133.00 L 256.00,133.00 L 258.00,133.00 L 260.00,133.00 L 262.00,133.00 L 264.00,133.00 L 266.00,133.00 L 268.00,133.00 L 270.00,133.00 L 272.00,133.00 L 274.00,133.00 L 276.00,133.00 L 278.00,133.00 L 280.00,133.00 L 282.00,133.00 L 284.00,133.00 L 286.00,133.00 L 288.00,133.00 L 290.00,133.00 L 292.00,133.00 L 294.00,133.00 L 296.00,133.00 L 298.00,133.00 L 300.00,133.00 L 302.00,133.00 L 304.00,133.00 L 306.00,133.00 L 308.00,133.00 L 310.00,133.00 L 312.00,133.00 L 314.00,133.00 L 316.00,133.00 L 318.00,133.05 L 320.00,133.24 L 322.00,133.55 L 324.00,133.93 L 326.00,134.38 L 328.00,134.86 L 330.00,135.35 L 332.00,135.84 L 334.00,136.31 L 336.00,136.74 L 338.00,137.12 L 340.00,137.44 L 342.00,137.70 L 344.00,137.89 L 346.00,138.01 L 348.00,138.05 L 350.00,138.01 L 352.00,137.89 L 354.00,137.70 L 356.00,137.44 L 358.00,137.12 L 360.00,136.74 L 362.00,136.31 L 364.00,135.84 L 366.00,135.35 L 368.00,134.86 L 370.00,134.38 L 372.00,133.93 L 374.00,133.55 L 376.00,133.24 L 378.00,133.05 L 380.00,133.00 L 382.00,133.00 L 384.00,133.00 L 386.00,133.00 L 388.00,133.00 L 390.00,133.00 L 392.00,133.00 L 394.00,133.00 L 396.00,133.00 L 398.00,133.00 L 400.00,133.00 L 402.00,133.00 L 404.00,133.00 L 406.00,133.00 L 408.00,133.00 L 410.00,133.00 L 412.00,133.00 L 414.00,133.00 L 416.00,133.00 L 418.00,132.72 L 420.00,132.08 L 422.00,131.16 L 424.00,130.04 L 426.00,128.83 L 428.00,127.60 L 430.00,126.45 L 432.00,125.45 L 434.00,124.70 L 436.00,124.26 L 458.00,124.26 L 460.00,124.70 L 462.00,125.45 L 464.00,126.45 L 466.00,127.60 L 468.00,128.83 L 470.00,130.04 L 472.00,131.16 L 474.00,132.08 L 476.00,132.72 L 478.00,133.00 L 480.00,133.00 L 482.00,133.00 L 484.00,133.00 L 486.00,133.00 L 488.00,133.00 L 490.00,133.00 L 492.00,133.00 L 494.00,133.00 L 496.00,133.00 L 498.00,133.00 L 500.00,133.00 L 502.00,133.00 L 504.00,133.00 L 506.00,133.00 L 508.00,133.00 L 510.00,133.00 L 512.00,133.00 L 514.00,133.00 L 516.00,133.00 L 518.00,133.00 L 520.00,133.00 L 522.00,133.00 L 524.00,133.00 L 526.00,133.00 L 528.00,133.00 L 530.00,133.00 L 532.00,133.00 L 534.00,133.00 L 536.00,133.00 L 538.00,133.00 L 540.00,133.00 L 542.00,133.00 L 544.00,133.00 L 546.00,133.00 L 548.00,133.00 L 550.00,133.00 L 552.00,133.00 L 554.00,133.00 L 556.00,133.00 L 558.00,133.00 L 560.00,133.00 L 562.00,133.00 L 564.00,133.00 L 566.00,133.00 L 568.00,133.00 L 570.00,133.00 L 572.00,133.00 L 574.00,133.00 L 576.00,133.00 L 578.00,133.00 L 580.00,133.00 L 582.00,133.00 L 584.00,133.00 L 586.00,133.00 L 588.00,133.00 L 590.00,133.00 L 592.00,133.02 L 594.00,133.18 L 596.00,133.47 L 598.00,133.86 L 600.00,134.33 L 602.00,134.87 L 604.00,135.45 L 606.00,136.06 L 608.00,136.68 L 610.00,137.29 L 612.00,137.90 L 614.00,138.47 L 616.00,139.01 L 618.00,139.49 L 620.00,139.93 L 622.00,140.31 L 624.00,140.62 L 626.00,140.87 L 628.00,141.05 L 630.00,141.15 L 632.00,141.19 L 634.00,141.15 L 636.00,141.05 L 638.00,140.87 L 640.00,140.62 L 642.00,140.31 L 644.00,139.93 L 646.00,139.49 L 648.00,139.01 L 650.00,138.47 L 652.00,137.90 L 654.00,137.29 L 656.00,136.68 L 658.00,136.06 L 660.00,135.45 L 662.00,134.87 L 664.00,134.32 L 666.00,133.68 L 668.00,132.90 L 670.00,132.05 L 672.00,131.19 L 674.00,130.36 L 676.00,129.51 L 678.00,128.63 L 680.00,127.75 L 682.00,126.90 L 684.00,126.12 L 686.00,125.40 L 688.00,124.78 L 690.00,124.25 L 692.00,123.82 L 694.00,123.49 L 696.00,123.26 L 698.00,123.12 L 700.00,123.08 L 702.00,123.12 L 704.00,123.26 L 706.00,123.49 L 708.00,123.82 L 710.00,124.25 L 712.00,124.78 L 714.00,125.40 L 716.00,126.12 L 718.00,126.90 L 720.00,127.75 L 722.00,128.63 L 724.00,129.51 L 726.00,130.36 L 728.00,131.16 L 730.00,131.86 L 732.00,132.43 L 734.00,132.82 L 736.00,133.00 L 738.00,133.00 L 740.00,133.00 L 742.00,133.00 L 744.00,133.00 L 746.00,133.00 L 748.00,133.00 L 750.00,133.00 L 752.00,133.00 L 754.00,133.00 L 756.00,133.00 L 758.00,133.00 L 760.00,133.00 L 762.00,133.00 L 764.00,133.00 L 766.00,133.00 L 768.00,133.00 L 770.00,133.00 L 772.00,133.00 L 774.00,133.00 L 776.00,133.00 L 778.00,133.00 L 780.00,133.00 L 782.00,133.00 L 784.00,133.00 L 786.00,133.00 L 788.00,133.00 L 790.00,133.00 L 792.00,133.00 L 794.00,133.00 L 796.00,133.00 L 798.00,133.00 " fill="none" stroke="#b48a5a" stroke-width="1.42" opacity="0.7"/>
<path d="M 0.00,150.00 L 2.00,150.00 L 4.00,150.00 L 6.00,150.00 L 8.00,150.00 L 10.00,150.00 L 12.00,150.00 L 14.00,150.00 L 16.00,150.00 L 18.00,150.00 L 20.00,150.00 L 22.00,150.00 L 24.00,150.00 L 26.00,150.00 L 28.00,150.00 L 30.00,150.00 L 32.00,150.00 L 34.00,150.00 L 36.00,150.00 L 38.00,150.00 L 40.00,150.00 L 42.00,150.00 L 44.00,150.00 L 46.00,150.00 L 48.00,150.00 L 50.00,150.00 L 52.00,150.00 L 54.00,150.00 L 56.00,150.00 L 58.00,150.00 L 60.00,150.00 L 62.00,150.00 L 64.00,150.00 L 66.00,150.00 L 68.00,150.00 L 70.00,150.00 L 72.00,150.00 L 74.00,150.00 L 76.00,150.00 L 78.00,150.00 L 80.00,150.00 L 82.00,150.00 L 84.00,150.00 L 86.00,150.00 L 88.00,150.00 L 90.00,150.00 L 92.00,150.00 L 94.00,150.00 L 96.00,150.00 L 98.00,150.00 L 100.00,150.00 L 102.00,150.00 L 104.00,150.00 L 106.00,150.00 L 108.00,150.00 L 110.00,150.00 L 112.00,150.00 L 114.00,150.00 L 116.00,150.00 L 118.00,150.00 L 120.00,150.00 L 122.00,150.00 L 124.00,150.00 L 126.00,150.00 L 128.00,150.00 L 130.00,150.00 L 132.00,150.00 L 134.00,150.00 L 136.00,150.00 L 138.00,150.00 L 140.00,150.00 L 142.00,150.00 L 144.00,150.00 L 146.00,150.00 L 148.00,150.00 L 150.00,150.00 L 152.00,150.00 L 154.00,150.00 L 156.00,150.00 L 158.00,150.00 L 160.00,150.00 L 162.00,150.00 L 164.00,150.00 L 166.00,150.00 L 168.00,150.00 L 170.00,150.00 L 172.00,150.00 L 174.00,150.00 L 176.00,150.00 L 178.00,150.00 L 180.00,150.00 L 182.00,150.00 L 184.00,150.00 L 186.00,150.00 L 188.00,150.00 L 190.00,150.00 L 192.00,150.00 L 194.00,150.00 L 196.00,150.00 L 198.00,150.00 L 200.00,150.00 L 202.00,150.00 L 204.00,150.00 L 206.00,150.00 L 208.00,150.00 L 210.00,150.00 L 212.00,150.00 L 214.00,150.00 L 216.00,150.00 L 218.00,150.00 L 220.00,150.00 L 222.00,150.00 L 224.00,150.00 L 226.00,150.00 L 228.00,150.00 L 230.00,150.00 L 232.00,150.00 L 234.00,150.00 L 236.00,150.00 L 238.00,150.00 L 240.00,150.00 L 242.00,150.00 L 244.00,150.00 L 246.00,150.00 L 248.00,150.00 L 250.00,150.00 L 252.00,150.00 L 254.00,150.00 L 256.00,150.00 L 258.00,150.00 L 260.00,150.00 L 262.00,150.00 L 264.00,150.00 L 266.00,150.00 L 268.00,150.00 L 270.00,150.00 L 272.00,150.00 L 274.00,150.00 L 276.00,150.00 L 278.00,150.00 L 280.00,150.00 L 282.00,150.00 L 284.00,150.00 L 286.00,150.00 L 288.00,150.00 L 290.00,150.00 L 292.00,150.00 L 294.00,150.00 L 296.00,150.00 L 298.00,150.00 L 300.00,150.00 L 302.00,150.00 L 304.00,150.00 L 306.00,150.01 L 308.00,150.21 L 310.00,150.66 L 312.00,151.31 L 314.00,152.13 L 316.00,153.08 L 318.00,154.11 L 320.00,155.19 L 322.00,156.29 L 324.00,157.37 L 326.00,158.39 L 328.00,159.33 L 330.00,160.17 L 332.00,160.89 L 334.00,161.48 L 336.00,161.93 L 338.00,162.24 L 340.00,162.44 L 342.00,162.55 L 344.00,162.59 L 346.00,162.60 L 350.00,162.60 L 352.00,162.59 L 354.00,162.55 L 356.00,162.44 L 358.00,162.24 L 360.00,161.93 L 362.00,161.48 L 364.00,160.89 L 366.00,160.17 L 368.00,159.33 L 370.00,158.39 L 372.00,157.37 L 374.00,156.29 L 376.00,155.19 L 378.00,154.11 L 380.00,153.08 L 382.00,152.13 L 384.00,151.31 L 386.00,150.66 L 388.00,150.21 L 390.00,150.01 L 392.00,150.00 L 394.00,150.00 L 396.00,150.00 L 398.00,150.00 L 400.00,150.00 L 402.00,150.00 L 404.00,150.00 L 406.00,150.00 L 408.00,150.00 L 410.00,150.00 L 412.00,150.00 L 414.00,150.00 L 416.00,150.00 L 418.00,150.00 L 420.00,150.00 L 422.00,150.00 L 424.00,149.99 L 426.00,149.82 L 428.00,149.45 L 430.00,148.97 L 432.00,148.41 L 434.00,147.82 L 436.00,147.26 L 438.00,146.74 L 440.00,146.30 L 442.00,145.96 L 444.00,145.72 L 446.00,145.60 L 448.00,145.60 L 450.00,145.72 L 452.00,145.96 L 454.00,146.30 L 456.00,146.74 L 458.00,147.26 L 460.00,147.82 L 462.00,148.41 L 464.00,148.97 L 466.00,149.45 L 468.00,149.82 L 470.00,149.99 L 472.00,150.00 L 474.00,150.00 L 476.00,150.00 L 478.00,150.00 L 480.00,150.00 L 482.00,150.00 L 484.00,150.00 L 486.00,150.00 L 488.00,150.00 L 490.00,150.00 L 492.00,150.00 L 494.00,150.00 L 496.00,150.00 L 498.00,150.00 L 500.00,150.00 L 502.00,150.00 L 504.00,150.00 L 506.00,150.00 L 508.00,150.00 L 510.00,150.00 L 512.00,150.00 L 514.00,150.00 L 516.00,150.00 L 518.00,150.00 L 520.00,150.00 L 522.00,150.00 L 524.00,150.00 L 526.00,150.00 L 528.00,150.00 L 530.00,150.00 L 532.00,150.00 L 534.00,150.00 L 536.00,150.00 L 538.00,150.00 L 540.00,150.00 L 542.00,150.00 L 544.00,150.00 L 546.00,150.00 L 548.00,150.00 L 550.00,150.00 L 552.00,150.00 L 554.00,150.00 L 556.00,150.00 L 558.00,150.00 L 560.00,150.00 L 562.00,150.00 L 564.00,150.00 L 566.00,150.00 L 568.00,150.00 L 570.00,150.00 L 572.00,150.00 L 574.00,150.00 L 576.00,150.00 L 578.00,150.00 L 580.00,150.00 L 582.00,150.03 L 584.00,150.25 L 586.00,150.68 L 588.00,151.29 L 590.00,152.04 L 592.00,152.92 L 594.00,153.89 L 596.00,154.93 L 598.00,156.01 L 600.00,157.11 L 602.00,158.20 L 604.00,159.26 L 606.00,160.26 L 608.00,161.20 L 610.00,162.05 L 612.00,162.80 L 614.00,163.44 L 616.00,163.97 L 618.00,164.38 L 620.00,164.69 L 622.00,164.90 L 624.00,165.02 L 626.00,165.09 L 628.00,165.11 L 630.00,165.12 L 634.00,165.12 L 636.00,165.11 L 638.00,165.09 L 640.00,165.02 L 642.00,164.90 L 644.00,164.69 L 646.00,164.38 L 648.00,163.97 L 650.00,163.44 L 652.00,162.80 L 654.00,162.05 L 656.00,161.20 L 658.00,160.26 L 660.00,159.26 L 662.00,158.20 L 664.00,157.11 L 666.00,156.01 L 668.00,154.93 L 670.00,153.89 L 672.00,152.92 L 674.00,152.04 L 676.00,151.29 L 678.00,150.68 L 680.00,150.25 L 682.00,150.03 L 684.00,149.97 L 686.00,149.90 L 688.00,149.80 L 690.00,149.69 L 692.00,149.58 L 694.00,149.49 L 696.00,149.41 L 698.00,149.36 L 700.00,149.35 L 702.00,149.36 L 704.00,149.41 L 706.00,149.49 L 708.00,149.58 L 710.00,149.69 L 712.00,149.80 L 714.00,149.90 L 716.00,149.97 L 718.00,150.00 L 720.00,150.00 L 722.00,150.00 L 724.00,150.00 L 726.00,150.00 L 728.00,150.00 L 730.00,150.00 L 732.00,150.00 L 734.00,150.00 L 736.00,150.00 L 738.00,150.00 L 740.00,150.00 L 742.00,150.00 L 744.00,150.00 L 746.00,150.00 L 748.00,150.00 L 750.00,150.00 L 752.00,150.00 L 754.00,150.00 L 756.00,150.00 L 758.00,150.00 L 760.00,150.00 L 762.00,150.00 L 764.00,150.00 L 766.00,150.00 L 768.00,150.00 L 770.00,150.00 L 772.00,150.00 L 774.00,150.00 L 776.00,150.00 L 778.00,150.00 L 780.00,150.00 L 782.00,150.00 L 784.00,150.00 L 786.00,150.00 L 788.00,150.00 L 790.00,150.00 L 792.00,150.00 L 794.00,150.00 L 796.00,150.00 L 798.00,150.00 " fill="none" stroke="#b48a5a" stroke-width="0.91" opacity="0.7"/>
<path d="M 0.00,166.00 L 2.00,166.00 L 4.00,166.00 L 6.00,166.00 L 8.00,166.00 L 10.00,166.00 L 12.00,166.00 L 14.00,166.00 L 16.00,166.00 L 18.00,166.00 L 20.00,166.00 L 22.00,166.00 L 24.00,166.00 L 26.00,166.00 L 28.00,166.00 L 30.00,166.00 L 32.00,166.00 L 34.00,166.00 L 36.00,166.00 L 38.00,166.00 L 40.00,166.00 L 42.00,166.00 L 44.00,166.00 L 46.00,166.00 L 48.00,166.00 L 50.00,166.00 L 52.00,166.00 L 54.00,166.00 L 56.00,166.00 L 58.00,166.00 L 60.00,166.00 L 62.00,166.00 L 64.00,166.00 L 66.00,166.00 L 68.00,166.00 L 70.00,166.00 L 72.00,166.00 L 74.00,166.00 L 76.00,166.00 L 78.00,166.00 L 80.00,166.00 L 82.00,166.00 L 84.00,166.00 L 86.00,166.00 L 88.00,166.00 L 90.00,166.00 L 92.00,166.00 L 94.00,166.00 L 96.00,166.00 L 98.00,166.00 L 100.00,166.00 L 102.00,166.00 L 104.00,166.00 L 106.00,166.00 L 108.00,166.00 L 110.00,166.00 L 112.00,166.00 L 114.00,166.00 L 116.00,166.00 L 118.00,166.00 L 120.00,166.00 L 122.00,166.00 L 124.00,166.00 L 126.00,166.00 L 128.00,166.00 L 130.00,166.00 L 132.00,166.00 L 134.00,166.00 L 136.00,166.01 L 138.00,166.14 L 140.00,166.37 L 142.00,166.69 L 144.00,167.08 L 146.00,167.50 L 148.00,167.95 L 150.00,168.41 L 152.00,168.86 L 154.00,169.28 L 156.00,169.67 L 158.00,170.02 L 160.00,170.31 L 162.00,170.54 L 164.00,170.71 L 166.00,170.82 L 168.00,170.85 L 170.00,170.82 L 172.00,170.71 L 174.00,170.54 L 176.00,170.31 L 178.00,170.02 L 180.00,169.67 L 182.00,169.28 L 184.00,168.86 L 186.00,168.41 L 188.00,167.95 L 190.00,167.50 L 192.00,167.08 L 194.00,166.69 L 196.00,166.37 L 198.00,166.14 L 200.00,166.01 L 202.00,166.00 L 204.00,166.00 L 206.00,166.00 L 208.00,166.00 L 210.00,166.00 L 212.00,166.00 L 214.00,166.00 L 216.00,166.00 L 218.00,166.00 L 220.00,166.00 L 222.00,166.00 L 224.00,166.00 L 226.00,166.00 L 228.00,166.00 L 230.00,166.00 L 232.00,166.00 L 234.00,166.00 L 236.00,166.00 L 238.00,166.00 L 240.00,166.00 L 242.00,166.00 L 244.00,166.00 L 246.00,166.00 L 248.00,166.00 L 250.00,166.00 L 252.00,166.00 L 254.00,166.00 L 256.00,166.00 L 258.00,166.00 L 260.00,166.00 L 262.00,166.00 L 264.00,166.00 L 266.00,166.00 L 268.00,166.00 L 270.00,166.00 L 272.00,166.00 L 274.00,166.00 L 276.00,166.00 L 278.00,166.00 L 280.00,166.00 L 282.00,166.00 L 284.00,166.00 L 286.00,166.00 L 288.00,166.00 L 290.00,166.00 L 292.00,166.00 L 294.00,166.00 L 296.00,166.00 L 298.00,166.00 L 300.00,166.00 L 302.00,166.00 L 304.00,165.96 L 306.00,165.65 L 308.00,165.07 L 310.00,164.27 L 312.00,163.29 L 314.00,162.17 L 316.00,160.96 L 318.00,159.71 L 320.00,158.46 L 322.00,157.25 L 324.00,156.13 L 326.00,155.15 L 328.00,154.34 L 330.00,153.76 L 332.00,153.44 L 364.00,153.44 L 366.00,153.76 L 368.00,154.34 L 370.00,155.15 L 372.00,156.13 L 374.00,157.25 L 376.00,158.46 L 378.00,159.71 L 380.00,160.96 L 382.00,162.17 L 384.00,163.29 L 386.00,164.27 L 388.00,165.07 L 390.00,165.65 L 392.00,165.96 L 394.00,166.00 L 396.00,166.00 L 398.00,166.00 L 400.00,166.00 L 402.00,166.00 L 404.00,166.00 L 406.00,166.00 L 408.00,166.00 L 410.00,166.00 L 412.00,166.00 L 414.00,166.00 L 416.00,166.00 L 418.00,166.00 L 420.00,166.00 L 422.00,166.00 L 424.00,166.00 L 426.00,166.00 L 428.00,166.00 L 430.00,166.00 L 432.00,166.00 L 434.00,166.00 L 436.00,166.00 L 438.00,166.00 L 440.00,166.00 L 442.00,166.00 L 444.00,166.00 L 446.00,166.00 L 448.00,166.00 L 450.00,166.00 L 452.00,166.00 L 454.00,166.00 L 456.00,166.00 L 458.00,166.00 L 460.00,166.00 L 462.00,166.00 L 464.00,166.00 L 466.00,166.00 L 468.00,166.00 L 470.00,166.00 L 472.00,166.00 L 474.00,166.00 L 476.00,166.00 L 478.00,166.00 L 480.00,166.00 L 482.00,166.00 L 484.00,166.00 L 486.00,166.00 L 488.00,166.00 L 490.00,166.00 L 492.00,166.00 L 494.00,166.00 L 496.00,166.00 L 498.00,166.00 L 500.00,166.00 L 502.00,166.00 L 504.00,166.00 L 506.00,166.00 L 508.00,166.00 L 510.00,166.00 L 512.00,166.00 L 514.00,166.00 L 516.00,166.00 L 518.00,166.00 L 520.00,166.00 L 522.00,166.00 L 524.00,166.00 L 526.00,166.00 L 528.00,166.00 L 530.00,166.00 L 532.00,166.00 L 534.00,166.00 L 536.00,166.00 L 538.00,166.00 L 540.00,166.00 L 542.00,166.00 L 544.00,166.00 L 546.00,166.00 L 548.00,166.00 L 550.00,166.00 L 552.00,166.00 L 554.00,166.00 L 556.00,166.00 L 558.00,166.00 L 560.00,166.00 L 562.00,166.00 L 564.00,166.00 L 566.00,166.00 L 568.00,166.00 L 570.00,166.00 L 572.00,166.00 L 574.00,166.00 L 576.00,166.00 L 578.00,166.00 L 580.00,166.13 L 582.00,166.51 L 584.00,167.11 L 586.00,167.89 L 588.00,168.83 L 590.00,169.89 L 592.00,171.05 L 594.00,172.27 L 596.00,173.53 L 598.00,174.78 L 600.00,176.00 L 602.00,177.16 L 604.00,178.23 L 606.00,179.18 L 608.00,179.97 L 610.00,180.58 L 612.00,180.97 L 614.00,181.12 L 650.00,181.12 L 652.00,180.97 L 654.00,180.58 L 656.00,179.97 L 658.00,179.18 L 660.00,178.23 L 662.00,177.16 L 664.00,176.00 L 666.00,174.78 L 668.00,173.53 L 670.00,172.27 L 672.00,171.05 L 674.00,169.89 L 676.00,168.83 L 678.00,167.89 L 680.00,167.11 L 682.00,166.51 L 684.00,166.13 L 686.00,166.00 L 688.00,166.00 L 690.00,166.00 L 692.00,166.00 L 694.00,166.00 L 696.00,166.00 L 698.00,166.00 L 700.00,166.00 L 702.00,166.00 L 704.00,166.00 L 706.00,166.00 L 708.00,166.00 L 710.00,166.00 L 712.00,166.00 L 714.00,166.00 L 716.00,166.00 L 718.00,166.00 L 720.00,166.00 L 722.00,166.00 L 724.00,166.00 L 726.00,166.00 L 728.00,166.00 L 730.00,166.00 L 732.00,166.00 L 734.00,166.00 L 736.00,166.00 L 738.00,166.00 L 740.00,166.00 L 742.00,166.00 L 744.00,166.00 L 746.00,166.00 L 748.00,166.00 L 750.00,166.00 L 752.00,166.00 L 754.00,166.00 L 756.00,166.00 L 758.00,166.00 L 760.00,166.00 L 762.00,166.00 L 764.00,166.00 L 766.00,166.00 L 768.00,166.00 L 770.00,166.00 L 772.00,166.00 L 774.00,166.00 L 776.00,166.00 L 778.00,166.00 L 780.00,166.00 L 782.00,166.00 L 784.00,166.00 L 786.00,166.00 L 788.00,166.00 L 790.00,166.00 L 792.00,166.00 L 794.00,166.00 L 796.00,166.00 L 798.00,166.00 " fill="none" stroke="#b48a5a" stroke-width="1.34" opacity="0.7"/>
<path d="M 0.00,183.00 L 2.00,183.00 L 4.00,183.00 L 6.00,183.00 L 8.00,183.00 L 10.00,183.00 L 12.00,183.00 L 14.00,183.00 L 16.00,183.00 L 18.00,183.00 L 20.00,183.00 L 22.00,183.00 L 24.00,183.00 L 26.00,183.00 L 28.00,183.00 L 30.00,183.00 L 32.00,183.00 L 34.00,183.00 L 36.00,183.00 L 38.00,183.00 L 40.00,183.00 L 42.00,183.00 L 44.00,183.00 L 46.00,183.00 L 48.00,183.00 L 50.00,183.00 L 52.00,183.00 L 54.00,183.00 L 56.00,183.00 L 58.00,183.00 L 60.00,183.00 L 62.00,183.00 L 64.00,183.00 L 66.00,183.00 L 68.00,183.00 L 70.00,183.00 L 72.00,183.00 L 74.00,183.00 L 76.00,183.00 L 78.00,183.00 L 80.00,183.00 L 82.00,183.00 L 84.00,183.00 L 86.00,183.00 L 88.00,183.00 L 90.00,183.00 L 92.00,183.00 L 94.00,183.00 L 96.00,183.00 L 98.00,183.00 L 100.00,183.00 L 102.00,183.00 L 104.00,183.00 L 106.00,183.00 L 108.00,183.00 L 110.00,183.00 L 112.00,183.00 L 114.00,183.00 L 116.00,183.00 L 118.00,183.00 L 120.00,183.00 L 122.00,183.00 L 124.00,183.01 L 126.00,183.20 L 128.00,183.62 L 130.00,184.22 L 132.00,184.98 L 134.00,185.87 L 136.00,186.84 L 138.00,187.86 L 140.00,188.91 L 142.00,189.96 L 144.00,190.97 L 146.00,191.93 L 148.00,192.82 L 150.00,193.61 L 152.00,194.30 L 154.00,194.88 L 156.00,195.34 L 158.00,195.69 L 160.00,195.94 L 162.00,196.11 L 164.00,196.22 L 166.00,196.27 L 168.00,196.29 L 170.00,196.27 L 172.00,196.22 L 174.00,196.11 L 176.00,195.94 L 178.00,195.69 L 180.00,195.34 L 182.00,194.88 L 184.00,194.30 L 186.00,193.61 L 188.00,192.82 L 190.00,191.93 L 192.00,190.97 L 194.00,189.96 L 196.00,188.91 L 198.00,187.86 L 200.00,186.84 L 202.00,185.87 L 204.00,184.98 L 206.00,184.22 L 208.00,183.62 L 210.00,183.20 L 212.00,183.01 L 214.00,183.00 L 216.00,183.00 L 218.00,183.00 L 220.00,183.00 L 222.00,183.00 L 224.00,183.00 L 226.00,183.00 L 228.00,183.00 L 230.00,183.00 L 232.00,183.00 L 234.00,183.00 L 236.00,183.00 L 238.00,183.00 L 240.00,183.00 L 242.00,183.00 L 244.00,183.00 L 246.00,183.00 L 248.00,183.00 L 250.00,183.00 L 252.00,183.00 L 254.00,183.00 L 256.00,183.00 L 258.00,183.00 L 260.00,183.00 L 262.00,183.00 L 264.00,183.00 L 266.00,183.00 L 268.00,183.00 L 270.00,183.00 L 272.00,183.00 L 274.00,183.00 L 276.00,183.00 L 278.00,183.00 L 280.00,183.00 L 282.00,183.00 L 284.00,183.00 L 286.00,183.00 L 288.00,183.00 L 290.00,183.00 L 292.00,183.00 L 294.00,183.00 L 296.00,183.00 L 298.00,183.00 L 300.00,183.00 L 302.00,183.00 L 304.00,183.00 L 306.00,183.00 L 308.00,182.95 L 310.00,182.66 L 312.00,182.15 L 314.00,181.47 L 316.00,180.65 L 318.00,179.73 L 320.00,178.74 L 322.00,177.72 L 324.00,176.70 L 326.00,175.71 L 328.00,174.78 L 330.00,173.92 L 332.00,173.17 L 334.00,172.51 L 336.00,171.98 L 338.00,171.55 L 340.00,171.23 L 342.00,171.00 L 344.00,170.86 L 346.00,170.78 L 348.00,170.75 L 350.00,170.78 L 352.00,170.86 L 354.00,171.00 L 356.00,171.23 L 358.00,171.55 L 360.00,171.98 L 362.00,172.51 L 364.00,173.17 L 366.00,173.92 L 368.00,174.78 L 370.00,175.71 L 372.00,176.70 L 374.00,177.72 L 376.00,178.74 L 378.00,179.73 L 380.00,180.65 L 382.00,181.47 L 384.00,182.15 L 386.00,182.66 L 388.00,182.95 L 390.00,183.00 L 392.00,183.00 L 394.00,183.00 L 396.00,183.00 L 398.00,183.00 L 400.00,183.00 L 402.00,183.00 L 404.00,183.00 L 406.00,183.00 L 408.00,183.00 L 410.00,183.00 L 412.00,183.00 L 414.00,183.00 L 416.00,183.00 L 418.00,183.00 L 420.00,183.00 L 422.00,183.00 L 424.00,183.00 L 426.00,183.00 L 428.00,183.00 L 430.00,183.00 L 432.00,183.00 L 434.00,183.00 L 436.00,183.00 L 438.00,183.00 L 440.00,183.00 L 442.00,183.00 L 444.00,183.00 L 446.00,183.00 L 448.00,183.00 L 450.00,183.00 L 452.00,183.00 L 454.00,183.00 L 456.00,183.00 L 458.00,183.00 L 460.00,183.00 L 462.00,183.00 L 464.00,183.00 L 466.00,183.00 L 468.00,183.00 L 470.00,183.00 L 472.00,183.00 L 474.00,183.00 L 476.00,183.00 L 478.00,183.00 L 480.00,183.00 L 482.00,183.00 L 484.00,183.00 L 486.00,183.00 L 488.00,183.00 L 490.00,183.00 L 492.00,183.00 L 494.00,183.00 L 496.00,183.00 L 498.00,183.00 L 500.00,183.00 L 502.00,183.00 L 504.00,183.00 L 506.00,183.00 L 508.00,183.00 L 510.00,183.00 L 512.00,183.00 L 514.00,183.00 L 516.00,183.00 L 518.00,183.00 L 520.00,183.00 L 522.00,183.00 L 524.00,183.00 L 526.00,183.00 L 528.00,183.00 L 530.00,183.00 L 532.00,183.00 L 534.00,183.00 L 536.00,183.00 L 538.00,183.00 L 540.00,183.00 L 542.00,183.00 L 544.00,183.00 L 546.00,183.00 L 548.00,183.00 L 550.00,183.00 L 552.00,183.00 L 554.00,183.00 L 556.00,183.00 L 558.00,183.00 L 560.00,183.00 L 562.00,183.00 L 564.00,183.00 L 566.00,183.00 L 568.00,183.00 L 570.00,183.00 L 572.00,183.00 L 574.00,183.00 L 576.00,183.00 L 578.00,183.00 L 580.00,183.00 L 582.00,182.89 L 584.00,182.55 L 586.00,182.01 L 588.00,181.30 L 590.00,180.44 L 592.00,179.48 L 594.00,178.42 L 596.00,177.31 L 598.00,176.17 L 600.00,175.03 L 602.00,173.90 L 604.00,172.82 L 606.00,171.81 L 608.00,170.89 L 610.00,170.07 L 612.00,169.37 L 614.00,168.81 L 616.00,168.38 L 618.00,168.09 L 620.00,167.93 L 622.00,167.88 L 642.00,167.88 L 644.00,167.93 L 646.00,168.09 L 648.00,168.38 L 650.00,168.81 L 652.00,169.37 L 654.00,170.07 L 656.00,170.89 L 658.00,171.81 L 660.00,172.82 L 662.00,173.90 L 664.00,175.03 L 666.00,176.17 L 668.00,177.31 L 670.00,178.42 L 672.00,179.48 L 674.00,180.44 L 676.00,181.30 L 678.00,182.01 L 680.00,182.55 L 682.00,182.89 L 684.00,183.00 L 686.00,183.00 L 688.00,183.00 L 690.00,183.00 L 692.00,183.00 L 694.00,183.00 L 696.00,183.00 L 698.00,183.00 L 700.00,183.00 L 702.00,183.00 L 704.00,183.00 L 706.00,183.00 L 708.00,183.00 L 710.00,183.00 L 712.00,183.00 L 714.00,183.00 L 716.00,183.00 L 718.00,183.00 L 720.00,183.00 L 722.00,183.00 L 724.00,183.00 L 726.00,183.00 L 728.00,183.00 L 730.00,183.00 L 732.00,183.00 L 734.00,183.00 L 736.00,183.00 L 738.00,183.00 L 740.00,183.00 L 742.00,183.00 L 744.00,183.00 L 746.00,183.00 L 748.00,183.00 L 750.00,183.00 L 752.00,183.00 L 754.00,183.00 L 756.00,183.00 L 758.00,183.00 L 760.00,183.00 L 762.00,183.00 L 764.00,183.00 L 766.00,183.00 L 768.00,183.00 L 770.00,183.00 L 772.00,183.00 L 774.00,183.00 L 776.00,183.00 L 778.00,183.00 L 780.00,183.00 L 782.00,183.00 L 784.00,183.00 L 786.00,183.00 L 788.00,183.00 L 790.00,183.00 L 792.00,183.00 L 794.00,183.00 L 796.00,183.00 L 798.00,183.00 " fill="none" stroke="#b48a5a" stroke-width="1.65" opacity="0.7"/>
<path d="M 0.00,200.00 L 2.00,200.00 L 4.00,200.00 L 6.00,200.00 L 8.00,200.00 L 10.00,200.00 L 12.00,200.00 L 14.00,200.00 L 16.00,200.00 L 18.00,200.00 L 20.00,200.00 L 22.00,200.00 L 24.00,200.00 L 26.00,200.00 L 28.00,200.00 L 30.00,200.00 L 32.00,200.00 L 34.00,200.00 L 36.00,200.00 L 38.00,200.00 L 40.00,200.00 L 42.00,200.00 L 44.00,200.00 L 46.00,200.00 L 48.00,200.00 L 50.00,200.00 L 52.00,200.00 L 54.00,200.00 L 56.00,200.00 L 58.00,200.00 L 60.00,200.00 L 62.00,200.00 L 64.00,200.00 L 66.00,200.00 L 68.00,200.00 L 70.00,200.00 L 72.00,200.00 L 74.00,200.00 L 76.00,200.00 L 78.00,200.00 L 80.00,200.00 L 82.00,200.00 L 84.00,200.00 L 86.00,200.00 L 88.00,200.00 L 90.00,200.00 L 92.00,200.00 L 94.00,200.00 L 96.00,200.00 L 98.00,200.00 L 100.00,200.00 L 102.00,200.00 L 104.00,200.00 L 106.00,200.00 L 108.00,200.00 L 110.00,200.00 L 112.00,200.00 L 114.00,200.00 L 116.00,200.00 L 118.00,200.00 L 120.00,200.00 L 122.00,200.15 L 124.00,200.57 L 126.00,201.24 L 128.00,202.09 L 130.00,203.11 L 132.00,204.24 L 134.00,205.46 L 136.00,206.71 L 138.00,207.96 L 140.00,209.18 L 142.00,210.31 L 144.00,211.33 L 146.00,212.19 L 148.00,212.86 L 150.00,213.28 L 152.00,213.44 L 184.00,213.44 L 186.00,213.28 L 188.00,212.86 L 190.00,212.19 L 192.00,211.33 L 194.00,210.31 L 196.00,209.18 L 198.00,207.96 L 200.00,206.71 L 202.00,205.46 L 204.00,204.24 L 206.00,203.11 L 208.00,202.09 L 210.00,201.24 L 212.00,200.57 L 214.00,200.15 L 216.00,200.00 L 218.00,200.00 L 220.00,200.00 L 222.00,200.00 L 224.00,200.00 L 226.00,200.00 L 228.00,200.00 L 230.00,200.00 L 232.00,200.00 L 234.00,200.00 L 236.00,200.00 L 238.00,200.00 L 240.00,200.00 L 242.00,200.00 L 244.00,200.00 L 246.00,200.00 L 248.00,200.00 L 250.00,200.00 L 252.00,200.00 L 254.00,200.00 L 256.00,200.00 L 258.00,200.00 L 260.00,200.00 L 262.00,200.00 L 264.00,200.00 L 266.00,200.00 L 268.00,200.00 L 270.00,200.00 L 272.00,200.00 L 274.00,200.00 L 276.00,200.00 L 278.00,200.00 L 280.00,200.00 L 282.00,200.00 L 284.00,200.00 L 286.00,200.00 L 288.00,200.00 L 290.00,200.00 L 292.00,200.00 L 294.00,200.00 L 296.00,200.00 L 298.00,200.00 L 300.00,200.00 L 302.00,200.00 L 304.00,200.00 L 306.00,200.00 L 308.00,200.00 L 310.00,200.00 L 312.00,200.00 L 314.00,200.00 L 316.00,200.00 L 318.00,200.00 L 320.00,200.00 L 322.00,199.92 L 324.00,199.74 L 326.00,199.48 L 328.00,199.17 L 330.00,198.83 L 332.00,198.47 L 334.00,198.12 L 336.00,197.79 L 338.00,197.49 L 340.00,197.23 L 342.00,197.02 L 344.00,196.86 L 346.00,196.77 L 348.00,196.73 L 350.00,196.77 L 352.00,196.86 L 354.00,197.02 L 356.00,197.23 L 358.00,197.49 L 360.00,197.79 L 362.00,198.12 L 364.00,198.47 L 366.00,198.83 L 368.00,199.17 L 370.00,199.48 L 372.00,199.74 L 374.00,199.92 L 376.00,200.00 L 378.00,200.00 L 380.00,200.00 L 382.00,200.00 L 384.00,200.00 L 386.00,200.00 L 388.00,200.00 L 390.00,200.00 L 392.00,200.00 L 394.00,200.00 L 396.00,200.00 L 398.00,200.00 L 400.00,200.00 L 402.00,200.00 L 404.00,200.00 L 406.00,200.00 L 408.00,200.00 L 410.00,200.00 L 412.00,200.00 L 414.00,200.00 L 416.00,200.00 L 418.00,200.00 L 420.00,200.00 L 422.00,200.00 L 424.00,200.00 L 426.00,200.00 L 428.00,200.00 L 430.00,200.00 L 432.00,200.00 L 434.00,200.00 L 436.00,200.00 L 438.00,200.00 L 440.00,200.00 L 442.00,200.00 L 444.00,200.00 L 446.00,200.00 L 448.00,200.00 L 450.00,200.00 L 452.00,200.00 L 454.00,200.00 L 456.00,200.00 L 458.00,200.00 L 460.00,200.00 L 462.00,200.00 L 464.00,200.00 L 466.00,200.00 L 468.00,200.00 L 470.00,200.00 L 472.00,200.00 L 474.00,200.00 L 476.00,200.00 L 478.00,200.00 L 480.00,200.00 L 482.00,200.00 L 484.00,200.00 L 486.00,200.00 L 488.00,200.00 L 490.00,200.00 L 492.00,200.00 L 494.00,200.00 L 496.00,200.00 L 498.00,200.00 L 500.00,200.00 L 502.00,200.00 L 504.00,200.00 L 506.00,200.00 L 508.00,200.00 L 510.00,200.00 L 512.00,200.00 L 514.00,200.00 L 516.00,200.00 L 518.00,200.00 L 520.00,200.00 L 522.00,200.00 L 524.00,200.00 L 526.00,200.00 L 528.00,200.00 L 530.00,200.00 L 532.00,200.00 L 534.00,200.00 L 536.00,200.00 L 538.00,200.00 L 540.00,200.00 L 542.00,200.00 L 544.00,200.00 L 546.00,200.00 L 548.00,200.00 L 550.00,200.00 L 552.00,200.00 L 554.00,200.00 L 556.00,200.00 L 558.00,200.00 L 560.00,200.00 L 562.00,200.00 L 564.00,200.00 L 566.00,200.00 L 568.00,200.00 L 570.00,200.00 L 572.00,200.00 L 574.00,200.00 L 576.00,200.00 L 578.00,200.00 L 580.00,200.00 L 582.00,200.00 L 584.00,200.00 L 586.00,200.00 L 588.00,200.00 L 590.00,199.95 L 592.00,199.74 L 594.00,199.40 L 596.00,198.94 L 598.00,198.38 L 600.00,197.76 L 602.00,197.08 L 604.00,196.37 L 606.00,195.64 L 608.00,194.92 L 610.00,194.21 L 612.00,193.53 L 614.00,192.89 L 616.00,192.30 L 618.00,191.77 L 620.00,191.29 L 622.00,190.89 L 624.00,190.56 L 626.00,190.30 L 628.00,190.11 L 630.00,190.00 L 632.00,189.96 L 634.00,190.00 L 636.00,190.11 L 638.00,190.30 L 640.00,190.56 L 642.00,190.89 L 644.00,191.29 L 646.00,191.77 L 648.00,192.30 L 650.00,192.89 L 652.00,193.53 L 654.00,194.21 L 656.00,194.92 L 658.00,195.64 L 660.00,196.37 L 662.00,197.08 L 664.00,197.76 L 666.00,198.38 L 668.00,198.94 L 670.00,199.40 L 672.00,199.74 L 674.00,199.95 L 676.00,200.00 L 678.00,200.00 L 680.00,200.00 L 682.00,200.00 L 684.00,200.00 L 686.00,200.00 L 688.00,200.00 L 690.00,200.00 L 692.00,200.00 L 694.00,200.00 L 696.00,200.00 L 698.00,200.00 L 700.00,200.00 L 702.00,200.00 L 704.00,200.00 L 706.00,200.00 L 708.00,200.00 L 710.00,200.00 L 712.00,200.00 L 714.00,200.00 L 716.00,200.00 L 718.00,200.00 L 720.00,200.00 L 722.00,200.00 L 724.00,200.00 L 726.00,200.00 L 728.00,200.00 L 730.00,200.00 L 732.00,200.00 L 734.00,200.00 L 736.00,200.00 L 738.00,200.00 L 740.00,200.00 L 742.00,200.00 L 744.00,200.00 L 746.00,200.00 L 748.00,200.00 L 750.00,200.00 L 752.00,200.00 L 754.00,200.00 L 756.00,200.00 L 758.00,200.00 L 760.00,200.00 L 762.00,200.00 L 764.00,200.00 L 766.00,200.00 L 768.00,200.00 L 770.00,200.00 L 772.00,200.00 L 774.00,200.00 L 776.00,200.00 L 778.00,200.00 L 780.00,200.00 L 782.00,200.00 L 784.00,200.00 L 786.00,200.00 L 788.00,200.00 L 790.00,200.00 L 792.00,200.00 L 794.00,200.00 L 796.00,200.00 L 798.00,200.00 " fill="none" stroke="#b48a5a" stroke-width="1.01" opacity="0.7"/>
<path d="M 0.00,216.00 L 2.00,216.00 L 4.00,216.00 L 6.00,216.00 L 8.00,216.00 L 10.00,216.00 L 12.00,216.00 L 14.00,216.00 L 16.00,216.00 L 18.00,216.00 L 20.00,216.00 L 22.00,216.00 L 24.00,216.00 L 26.00,216.00 L 28.00,216.00 L 30.00,216.00 L 32.00,216.00 L 34.00,216.00 L 36.00,216.00 L 38.00,216.00 L 40.00,216.00 L 42.00,216.00 L 44.00,216.00 L 46.00,216.00 L 48.00,216.00 L 50.00,216.00 L 52.00,216.00 L 54.00,216.00 L 56.00,216.00 L 58.00,216.00 L 60.00,216.00 L 62.00,216.00 L 64.00,216.00 L 66.00,216.00 L 68.00,216.00 L 70.00,216.00 L 72.00,216.00 L 74.00,216.00 L 76.00,216.00 L 78.00,216.00 L 80.00,216.00 L 82.00,216.00 L 84.00,216.00 L 86.00,216.00 L 88.00,216.00 L 90.00,216.00 L 92.00,216.00 L 94.00,216.00 L 96.00,216.00 L 98.00,216.00 L 100.00,216.00 L 102.00,216.00 L 104.00,216.00 L 106.00,216.00 L 108.00,216.00 L 110.00,216.00 L 112.00,216.00 L 114.00,216.00 L 116.00,216.00 L 118.00,216.00 L 120.00,216.00 L 122.00,216.00 L 124.00,215.91 L 126.00,215.58 L 128.00,215.02 L 130.00,214.29 L 132.00,213.41 L 134.00,212.42 L 136.00,211.35 L 138.00,210.25 L 140.00,209.13 L 142.00,208.04 L 144.00,206.99 L 146.00,206.02 L 148.00,205.15 L 150.00,204.40 L 152.00,203.77 L 154.00,203.29 L 156.00,202.94 L 158.00,202.72 L 160.00,202.60 L 162.00,202.56 L 174.00,202.56 L 176.00,202.60 L 178.00,202.72 L 180.00,202.94 L 182.00,203.29 L 184.00,203.77 L 186.00,204.40 L 188.00,205.15 L 190.00,206.02 L 192.00,206.99 L 194.00,208.04 L 196.00,209.13 L 198.00,210.25 L 200.00,211.35 L 202.00,212.42 L 204.00,213.41 L 206.00,214.29 L 208.00,215.02 L 210.00,215.58 L 212.00,215.91 L 214.00,216.00 L 216.00,216.00 L 218.00,216.00 L 220.00,216.00 L 222.00,216.00 L 224.00,216.00 L 226.00,216.00 L 228.00,216.00 L 230.00,216.00 L 232.00,216.00 L 234.00,216.00 L 236.00,216.00 L 238.00,216.00 L 240.00,216.00 L 242.00,216.00 L 244.00,216.00 L 246.00,216.00 L 248.00,216.00 L 250.00,216.00 L 252.00,216.00 L 254.00,216.00 L 256.00,216.00 L 258.00,216.00 L 260.00,216.00 L 262.00,216.00 L 264.00,216.00 L 266.00,216.00 L 268.00,216.00 L 270.00,216.00 L 272.00,216.00 L 274.00,216.00 L 276.00,216.00 L 278.00,216.00 L 280.00,216.00 L 282.00,216.00 L 284.00,216.00 L 286.00,216.00 L 288.00,216.00 L 290.00,216.00 L 292.00,216.00 L 294.00,216.00 L 296.00,216.00 L 298.00,216.00 L 300.00,216.00 L 302.00,216.00 L 304.00,216.00 L 306.00,216.00 L 308.00,216.00 L 310.00,216.00 L 312.00,216.00 L 314.00,216.00 L 316.00,216.00 L 318.00,216.00 L 320.00,216.00 L 322.00,216.00 L 324.00,216.00 L 326.00,216.00 L 328.00,216.00 L 330.00,216.00 L 332.00,216.00 L 334.00,216.00 L 336.00,216.00 L 338.00,216.00 L 340.00,216.00 L 342.00,216.00 L 344.00,216.00 L 346.00,216.00 L 348.00,216.00 L 350.00,216.00 L 352.00,216.00 L 354.00,216.00 L 356.00,216.00 L 358.00,216.00 L 360.00,216.00 L 362.00,216.00 L 364.00,216.00 L 366.00,216.00 L 368.00,216.00 L 370.00,216.00 L 372.00,216.00 L 374.00,216.00 L 376.00,216.00 L 378.00,216.00 L 380.00,216.00 L 382.00,216.00 L 384.00,216.00 L 386.00,216.00 L 388.00,216.00 L 390.00,216.00 L 392.00,216.00 L 394.00,216.00 L 396.00,216.00 L 398.00,216.00 L 400.00,216.00 L 402.00,216.00 L 404.00,216.00 L 406.00,216.00 L 408.00,216.00 L 410.00,216.00 L 412.00,216.00 L 414.00,216.00 L 416.00,216.00 L 418.00,216.00 L 420.00,216.00 L 422.00,216.00 L 424.00,216.00 L 426.00,216.00 L 428.00,216.00 L 430.00,216.00 L 432.00,216.00 L 434.00,216.00 L 436.00,216.00 L 438.00,216.00 L 440.00,216.00 L 442.00,216.00 L 444.00,216.00 L 446.00,216.00 L 448.00,216.00 L 450.00,216.00 L 452.00,216.00 L 454.00,216.00 L 456.00,216.00 L 458.00,216.00 L 460.00,216.00 L 462.00,216.00 L 464.00,216.00 L 466.00,216.00 L 468.00,216.00 L 470.00,216.00 L 472.00,216.00 L 474.00,216.00 L 476.00,216.00 L 478.00,216.00 L 480.00,216.00 L 482.00,216.00 L 484.00,216.00 L 486.00,216.00 L 488.00,216.00 L 490.00,216.00 L 492.00,216.00 L 494.00,216.00 L 496.00,216.00 L 498.00,216.00 L 500.00,216.00 L 502.00,216.00 L 504.00,216.00 L 506.00,216.00 L 508.00,216.00 L 510.00,216.00 L 512.00,216.00 L 514.00,216.00 L 516.00,216.00 L 518.00,216.00 L 520.00,216.00 L 522.00,216.00 L 524.00,216.00 L 526.00,216.00 L 528.00,216.00 L 530.00,216.00 L 532.00,216.00 L 534.00,216.00 L 536.00,216.00 L 538.00,216.00 L 540.00,216.00 L 542.00,216.00 L 544.00,216.00 L 546.00,216.00 L 548.00,216.00 L 550.00,216.00 L 552.00,216.00 L 554.00,216.00 L 556.00,216.00 L 558.00,216.00 L 560.00,216.00 L 562.00,216.00 L 564.00,216.00 L 566.00,216.00 L 568.00,216.00 L 570.00,216.00 L 572.00,216.00 L 574.00,216.00 L 576.00,216.00 L 578.00,216.00 L 580.00,216.00 L 582.00,216.00 L 584.00,216.00 L 586.00,216.00 L 588.00,216.00 L 590.00,216.00 L 592.00,216.00 L 594.00,216.00 L 596.00,216.00 L 598.00,216.00 L 600.00,216.00 L 602.00,216.00 L 604.00,216.00 L 606.00,216.00 L 608.00,216.00 L 610.00,215.95 L 612.00,215.87 L 614.00,215.75 L 616.00,215.62 L 618.00,215.48 L 620.00,215.34 L 622.00,215.22 L 624.00,215.10 L 626.00,215.01 L 628.00,214.94 L 630.00,214.89 L 632.00,214.88 L 634.00,214.89 L 636.00,214.94 L 638.00,215.01 L 640.00,215.10 L 642.00,215.22 L 644.00,215.34 L 646.00,215.48 L 648.00,215.62 L 650.00,215.75 L 652.00,215.87 L 654.00,215.95 L 656.00,216.00 L 658.00,216.00 L 660.00,216.00 L 662.00,216.00 L 664.00,216.00 L 666.00,216.00 L 668.00,216.00 L 670.00,216.00 L 672.00,216.00 L 674.00,216.00 L 676.00,216.00 L 678.00,216.00 L 680.00,216.00 L 682.00,216.00 L 684.00,216.00 L 686.00,216.00 L 688.00,216.00 L 690.00,216.00 L 692.00,216.00 L 694.00,216.00 L 696.00,216.00 L 698.00,216.00 L 700.00,216.00 L 702.00,216.00 L 704.00,216.00 L 706.00,216.00 L 708.00,216.00 L 710.00,216.00 L 712.00,216.00 L 714.00,216.00 L 716.00,216.00 L 718.00,216.00 L 720.00,216.00 L 722.00,216.00 L 724.00,216.00 L 726.00,216.00 L 728.00,216.00 L 730.00,216.00 L 732.00,216.00 L 734.00,216.00 L 736.00,216.00 L 738.00,216.00 L 740.00,216.00 L 742.00,216.00 L 744.00,216.00 L 746.00,216.00 L 748.00,216.00 L 750.00,216.00 L 752.00,216.00 L 754.00,216.00 L 756.00,216.00 L 758.00,216.00 L 760.00,216.00 L 762.00,216.00 L 764.00,216.00 L 766.00,216.00 L 768.00,216.00 L 770.00,216.00 L 772.00,216.00 L 774.00,216.00 L 776.00,216.00 L 778.00,216.00 L 780.00,216.00 L 782.00,216.00 L 784.00,216.00 L 786.00,216.00 L 788.00,216.00 L 790.00,216.00 L 792.00,216.00 L 794.00,216.00 L 796.00,216.00 L 798.00,216.00 " fill="none" stroke="#b48a5a" stroke-width="0.88" opacity="0.7"/>
<path d="M 0.00,233.00 L 2.00,233.00 L 4.00,233.00 L 6.00,233.00 L 8.00,233.00 L 10.00,233.00 L 12.00,233.00 L 14.00,233.00 L 16.00,233.00 L 18.00,233.00 L 20.00,233.00 L 22.00,233.00 L 24.00,233.00 L 26.00,233.00 L 28.00,233.00 L 30.00,233.00 L 32.00,233.00 L 34.00,233.00 L 36.00,233.00 L 38.00,233.00 L 40.00,233.00 L 42.00,233.00 L 44.00,233.00 L 46.00,233.00 L 48.00,233.00 L 50.00,233.00 L 52.00,233.00 L 54.00,233.00 L 56.00,233.00 L 58.00,233.00 L 60.00,233.00 L 62.00,233.00 L 64.00,233.00 L 66.00,233.00 L 68.00,233.00 L 70.00,233.00 L 72.00,233.00 L 74.00,233.00 L 76.00,233.00 L 78.00,233.00 L 80.00,233.00 L 82.00,233.00 L 84.00,233.00 L 86.00,233.00 L 88.00,233.00 L 90.00,233.00 L 92.00,233.00 L 94.00,233.00 L 96.00,233.00 L 98.00,233.00 L 100.00,233.00 L 102.00,233.00 L 104.00,233.00 L 106.00,233.00 L 108.00,233.00 L 110.00,233.00 L 112.00,233.00 L 114.00,233.00 L 116.00,233.00 L 118.00,233.00 L 120.00,233.00 L 122.00,233.00 L 124.00,233.00 L 126.00,233.00 L 128.00,233.00 L 130.00,233.00 L 132.00,233.00 L 134.00,232.93 L 136.00,232.72 L 138.00,232.38 L 140.00,231.95 L 142.00,231.45 L 144.00,230.90 L 146.00,230.32 L 148.00,229.74 L 150.00,229.16 L 152.00,228.62 L 154.00,228.10 L 156.00,227.64 L 158.00,227.24 L 160.00,226.90 L 162.00,226.63 L 164.00,226.44 L 166.00,226.32 L 168.00,226.28 L 170.00,226.32 L 172.00,226.44 L 174.00,226.63 L 176.00,226.90 L 178.00,227.24 L 180.00,227.64 L 182.00,228.10 L 184.00,228.62 L 186.00,229.16 L 188.00,229.74 L 190.00,230.32 L 192.00,230.90 L 194.00,231.45 L 196.00,231.95 L 198.00,232.38 L 200.00,232.72 L 202.00,232.93 L 204.00,233.00 L 206.00,233.00 L 208.00,233.00 L 210.00,233.00 L 212.00,233.00 L 214.00,233.00 L 216.00,233.00 L 218.00,233.00 L 220.00,233.00 L 222.00,233.00 L 224.00,233.00 L 226.00,233.00 L 228.00,233.00 L 230.00,233.00 L 232.00,233.00 L 234.00,233.00 L 236.00,233.00 L 238.00,233.00 L 240.00,233.00 L 242.00,233.00 L 244.00,233.00 L 246.00,233.00 L 248.00,233.00 L 250.00,233.00 L 252.00,233.00 L 254.00,233.00 L 256.00,233.00 L 258.00,233.00 L 260.00,233.00 L 262.00,233.00 L 264.00,233.00 L 266.00,233.00 L 268.00,233.00 L 270.00,233.00 L 272.00,233.00 L 274.00,233.00 L 276.00,233.00 L 278.00,233.00 L 280.00,233.00 L 282.00,233.00 L 284.00,233.00 L 286.00,233.00 L 288.00,233.00 L 290.00,233.00 L 292.00,233.00 L 294.00,233.00 L 296.00,233.00 L 298.00,233.00 L 300.00,233.00 L 302.00,233.00 L 304.00,233.00 L 306.00,233.00 L 308.00,233.00 L 310.00,233.00 L 312.00,233.00 L 314.00,233.00 L 316.00,233.00 L 318.00,233.00 L 320.00,233.00 L 322.00,233.00 L 324.00,233.00 L 326.00,233.00 L 328.00,233.00 L 330.00,233.00 L 332.00,233.00 L 334.00,233.00 L 336.00,233.00 L 338.00,233.00 L 340.00,233.00 L 342.00,233.00 L 344.00,233.00 L 346.00,233.00 L 348.00,233.00 L 350.00,233.00 L 352.00,233.00 L 354.00,233.00 L 356.00,233.00 L 358.00,233.00 L 360.00,233.00 L 362.00,233.00 L 364.00,233.00 L 366.00,233.00 L 368.00,233.00 L 370.00,233.00 L 372.00,233.00 L 374.00,233.00 L 376.00,233.00 L 378.00,233.00 L 380.00,233.00 L 382.00,233.00 L 384.00,233.00 L 386.00,233.00 L 388.00,233.00 L 390.00,233.00 L 392.00,233.00 L 394.00,233.00 L 396.00,233.00 L 398.00,233.00 L 400.00,233.00 L 402.00,233.00 L 404.00,233.00 L 406.00,233.00 L 408.00,233.00 L 410.00,233.00 L 412.00,233.00 L 414.00,233.00 L 416.00,233.00 L 418.00,233.00 L 420.00,233.00 L 422.00,233.00 L 424.00,233.00 L 426.00,233.00 L 428.00,233.00 L 430.00,233.00 L 432.00,233.00 L 434.00,233.00 L 436.00,233.00 L 438.00,233.00 L 440.00,233.00 L 442.00,233.00 L 444.00,233.00 L 446.00,233.00 L 448.00,233.00 L 450.00,233.00 L 452.00,233.00 L 454.00,233.00 L 456.00,233.00 L 458.00,233.00 L 460.00,233.00 L 462.00,233.00 L 464.00,233.00 L 466.00,233.00 L 468.00,233.00 L 470.00,233.00 L 472.00,233.00 L 474.00,233.00 L 476.00,233.00 L 478.00,233.00 L 480.00,233.00 L 482.00,233.00 L 484.00,233.00 L 486.00,233.00 L 488.00,233.00 L 490.00,233.00 L 492.00,233.00 L 494.00,233.00 L 496.00,233.00 L 498.00,233.00 L 500.00,233.00 L 502.00,233.00 L 504.00,233.00 L 506.00,233.00 L 508.00,233.00 L 510.00,233.00 L 512.00,233.00 L 514.00,233.00 L 516.00,233.00 L 518.00,233.00 L 520.00,233.00 L 522.00,233.00 L 524.00,233.00 L 526.00,233.00 L 528.00,233.00 L 530.00,233.00 L 532.00,233.00 L 534.00,233.00 L 536.00,233.00 L 538.00,233.00 L 540.00,233.00 L 542.00,233.00 L 544.00,233.00 L 546.00,233.00 L 548.00,233.00 L 550.00,233.00 L 552.00,233.00 L 554.00,233.00 L 556.00,233.00 L 558.00,233.00 L 560.00,233.00 L 562.00,233.00 L 564.00,233.00 L 566.00,233.00 L 568.00,233.00 L 570.00,233.00 L 572.00,233.00 L 574.00,233.00 L 576.00,233.00 L 578.00,233.00 L 580.00,233.00 L 582.00,233.00 L 584.00,233.00 L 586.00,233.00 L 588.00,233.00 L 590.00,233.00 L 592.00,233.00 L 594.00,233.00 L 596.00,233.00 L 598.00,233.00 L 600.00,233.00 L 602.00,233.00 L 604.00,233.00 L 606.00,233.00 L 608.00,233.00 L 610.00,233.00 L 612.00,233.00 L 614.00,233.00 L 616.00,233.00 L 618.00,233.00 L 620.00,233.00 L 622.00,233.00 L 624.00,233.00 L 626.00,233.00 L 628.00,233.00 L 630.00,233.00 L 632.00,233.00 L 634.00,233.00 L 636.00,233.00 L 638.00,233.00 L 640.00,233.00 L 642.00,233.00 L 644.00,233.00 L 646.00,233.00 L 648.00,233.00 L 650.00,233.00 L 652.00,233.00 L 654.00,233.00 L 656.00,233.00 L 658.00,233.00 L 660.00,233.00 L 662.00,233.00 L 664.00,233.00 L 666.00,233.00 L 668.00,233.00 L 670.00,233.00 L 672.00,233.00 L 674.00,233.00 L 676.00,233.00 L 678.00,233.00 L 680.00,233.00 L 682.00,233.00 L 684.00,233.00 L 686.00,233.00 L 688.00,233.00 L 690.00,233.00 L 692.00,233.00 L 694.00,233.00 L 696.00,233.00 L 698.00,233.00 L 700.00,233.00 L 702.00,233.00 L 704.00,233.00 L 706.00,233.00 L 708.00,233.00 L 710.00,233.00 L 712.00,233.00 L 714.00,233.00 L 716.00,233.00 L 718.00,233.00 L 720.00,233.00 L 722.00,233.00 L 724.00,233.00 L 726.00,233.00 L 728.00,233.00 L 730.00,233.00 L 732.00,233.00 L 734.00,233.00 L 736.00,233.00 L 738.00,233.00 L 740.00,233.00 L 742.00,233.00 L 744.00,233.00 L 746.00,233.00 L 748.00,233.00 L 750.00,233.00 L 752.00,233.00 L 754.00,233.00 L 756.00,233.00 L 758.00,233.00 L 760.00,233.00 L 762.00,233.00 L 764.00,233.00 L 766.00,233.00 L 768.00,233.00 L 770.00,233.00 L 772.00,233.00 L 774.00,233.00 L 776.00,233.00 L 778.00,233.00 L 780.00,233.00 L 782.00,233.00 L 784.00,233.00 L 786.00,233.00 L 788.00,233.00 L 790.00,233.00 L 792.00,233.00 L 794.00,233.00 L 796.00,233.00 L 798.00,233.00 " fill="none" stroke="#b48a5a" stroke-width="1.27" opacity="0.7"/>
</svg>