ISO-10303-21;
HEADER;
/* Generated by software containing ST-Developer
 * from STEP Tools, Inc. (www.steptools.com) 
 */

FILE_DESCRIPTION(
/* description */ (''),
/* implementation_level */ '2;1');

FILE_NAME(
/* name */ '100mm.step',
/* time_stamp */ '2025-09-02T20:04:10+08:00',
/* author */ (''),
/* organization */ (''),
/* preprocessor_version */ 'ST-DEVELOPER v20.1',
/* originating_system */ 'Autodesk Translation Framework v14.10.0.0',
/* authorisation */ '');

FILE_SCHEMA (('AUTOMOTIVE_DESIGN { 1 0 10303 214 3 1 1 }'));
ENDSEC;

DATA;
#10=MECHANICAL_DESIGN_GEOMETRIC_PRESENTATION_REPRESENTATION('',(#13),#413);
#11=SHAPE_REPRESENTATION_RELATIONSHIP('SRR','None',#420,#12);
#12=ADVANCED_BREP_SHAPE_REPRESENTATION('',(#14),#412);
#13=STYLED_ITEM('',(#430),#14);
#14=MANIFOLD_SOLID_BREP('100',#238);
#15=FACE_BOUND('',#60,.T.);
#16=FACE_BOUND('',#61,.T.);
#17=CYLINDRICAL_SURFACE('',#268,7.15);
#18=(
BOUNDED_CURVE()
B_SPLINE_CURVE(2,(#362,#363,#364),.UNSPECIFIED.,.F.,.F.)
B_SPLINE_CURVE_WITH_KNOTS((3,3),(0.00163833345783346,0.0194063713046864),
 .UNSPECIFIED.)
CURVE()
GEOMETRIC_REPRESENTATION_ITEM()
RATIONAL_B_SPLINE_CURVE((1.,1.,1.))
REPRESENTATION_ITEM('')
);
#19=(
BOUNDED_CURVE()
B_SPLINE_CURVE(2,(#367,#368,#369),.UNSPECIFIED.,.F.,.F.)
B_SPLINE_CURVE_WITH_KNOTS((3,3),(0.00163833345783342,0.0194063713046864),
 .UNSPECIFIED.)
CURVE()
GEOMETRIC_REPRESENTATION_ITEM()
RATIONAL_B_SPLINE_CURVE((1.,1.,1.))
REPRESENTATION_ITEM('')
);
#20=(
BOUNDED_CURVE()
B_SPLINE_CURVE(2,(#387,#388,#389),.UNSPECIFIED.,.F.,.F.)
B_SPLINE_CURVE_WITH_KNOTS((3,3),(0.00163833345783346,0.0194063713046864),
 .UNSPECIFIED.)
CURVE()
GEOMETRIC_REPRESENTATION_ITEM()
RATIONAL_B_SPLINE_CURVE((1.,1.,1.))
REPRESENTATION_ITEM('')
);
#21=(
BOUNDED_CURVE()
B_SPLINE_CURVE(2,(#394,#395,#396),.UNSPECIFIED.,.F.,.F.)
B_SPLINE_CURVE_WITH_KNOTS((3,3),(0.00163833345783346,0.0194063713046864),
 .UNSPECIFIED.)
CURVE()
GEOMETRIC_REPRESENTATION_ITEM()
RATIONAL_B_SPLINE_CURVE((1.,1.,1.))
REPRESENTATION_ITEM('')
);
#22=CIRCLE('',#257,0.65);
#23=CIRCLE('',#258,0.75);
#24=CIRCLE('',#265,0.65);
#25=CIRCLE('',#266,0.75);
#26=CIRCLE('',#269,7.15);
#27=CIRCLE('',#270,7.15);
#28=CONICAL_SURFACE('',#256,0.75,0.785398163397448);
#29=CONICAL_SURFACE('',#264,0.75,0.785398163397448);
#30=FACE_OUTER_BOUND('',#45,.T.);
#31=FACE_OUTER_BOUND('',#46,.T.);
#32=FACE_OUTER_BOUND('',#47,.T.);
#33=FACE_OUTER_BOUND('',#48,.T.);
#34=FACE_OUTER_BOUND('',#49,.T.);
#35=FACE_OUTER_BOUND('',#50,.T.);
#36=FACE_OUTER_BOUND('',#51,.T.);
#37=FACE_OUTER_BOUND('',#52,.T.);
#38=FACE_OUTER_BOUND('',#53,.T.);
#39=FACE_OUTER_BOUND('',#54,.T.);
#40=FACE_OUTER_BOUND('',#55,.T.);
#41=FACE_OUTER_BOUND('',#56,.T.);
#42=FACE_OUTER_BOUND('',#57,.T.);
#43=FACE_OUTER_BOUND('',#58,.T.);
#44=FACE_OUTER_BOUND('',#59,.T.);
#45=EDGE_LOOP('',(#151,#152,#153,#154));
#46=EDGE_LOOP('',(#155,#156,#157,#158));
#47=EDGE_LOOP('',(#159,#160,#161,#162));
#48=EDGE_LOOP('',(#163,#164,#165));
#49=EDGE_LOOP('',(#166,#167,#168,#169));
#50=EDGE_LOOP('',(#170,#171,#172,#173));
#51=EDGE_LOOP('',(#174,#175,#176,#177));
#52=EDGE_LOOP('',(#178,#179,#180));
#53=EDGE_LOOP('',(#181,#182,#183,#184));
#54=EDGE_LOOP('',(#185,#186,#187,#188));
#55=EDGE_LOOP('',(#189,#190,#191,#192));
#56=EDGE_LOOP('',(#193,#194,#195));
#57=EDGE_LOOP('',(#196,#197,#198,#199));
#58=EDGE_LOOP('',(#200));
#59=EDGE_LOOP('',(#201));
#60=EDGE_LOOP('',(#202,#203,#204));
#61=EDGE_LOOP('',(#205,#206,#207,#208,#209,#210));
#62=LINE('',#341,#82);
#63=LINE('',#343,#83);
#64=LINE('',#345,#84);
#65=LINE('',#346,#85);
#66=LINE('',#349,#86);
#67=LINE('',#351,#87);
#68=LINE('',#352,#88);
#69=LINE('',#354,#89);
#70=LINE('',#355,#90);
#71=LINE('',#372,#91);
#72=LINE('',#374,#92);
#73=LINE('',#375,#93);
#74=LINE('',#377,#94);
#75=LINE('',#378,#95);
#76=LINE('',#383,#96);
#77=LINE('',#384,#97);
#78=LINE('',#386,#98);
#79=LINE('',#392,#99);
#80=LINE('',#397,#100);
#81=LINE('',#406,#101);
#82=VECTOR('',#277,10.);
#83=VECTOR('',#278,10.);
#84=VECTOR('',#279,10.);
#85=VECTOR('',#280,10.);
#86=VECTOR('',#283,10.);
#87=VECTOR('',#284,10.);
#88=VECTOR('',#285,10.);
#89=VECTOR('',#288,10.);
#90=VECTOR('',#289,10.);
#91=VECTOR('',#300,10.);
#92=VECTOR('',#301,10.);
#93=VECTOR('',#302,10.);
#94=VECTOR('',#305,10.);
#95=VECTOR('',#306,10.);
#96=VECTOR('',#311,10.);
#97=VECTOR('',#312,10.);
#98=VECTOR('',#313,10.);
#99=VECTOR('',#316,10.);
#100=VECTOR('',#317,10.);
#101=VECTOR('',#330,7.15);
#102=VERTEX_POINT('',#339);
#103=VERTEX_POINT('',#340);
#104=VERTEX_POINT('',#342);
#105=VERTEX_POINT('',#344);
#106=VERTEX_POINT('',#348);
#107=VERTEX_POINT('',#350);
#108=VERTEX_POINT('',#358);
#109=VERTEX_POINT('',#359);
#110=VERTEX_POINT('',#361);
#111=VERTEX_POINT('',#365);
#112=VERTEX_POINT('',#371);
#113=VERTEX_POINT('',#373);
#114=VERTEX_POINT('',#381);
#115=VERTEX_POINT('',#382);
#116=VERTEX_POINT('',#385);
#117=VERTEX_POINT('',#391);
#118=VERTEX_POINT('',#393);
#119=VERTEX_POINT('',#403);
#120=VERTEX_POINT('',#405);
#121=EDGE_CURVE('',#102,#103,#62,.T.);
#122=EDGE_CURVE('',#104,#103,#63,.T.);
#123=EDGE_CURVE('',#105,#104,#64,.T.);
#124=EDGE_CURVE('',#105,#102,#65,.T.);
#125=EDGE_CURVE('',#103,#106,#66,.T.);
#126=EDGE_CURVE('',#107,#106,#67,.T.);
#127=EDGE_CURVE('',#104,#107,#68,.T.);
#128=EDGE_CURVE('',#106,#102,#69,.T.);
#129=EDGE_CURVE('',#107,#105,#70,.T.);
#130=EDGE_CURVE('',#108,#109,#22,.T.);
#131=EDGE_CURVE('',#110,#109,#18,.T.);
#132=EDGE_CURVE('',#111,#110,#23,.T.);
#133=EDGE_CURVE('',#111,#108,#19,.T.);
#134=EDGE_CURVE('',#109,#112,#71,.T.);
#135=EDGE_CURVE('',#113,#112,#72,.T.);
#136=EDGE_CURVE('',#110,#113,#73,.T.);
#137=EDGE_CURVE('',#112,#108,#74,.T.);
#138=EDGE_CURVE('',#113,#111,#75,.T.);
#139=EDGE_CURVE('',#114,#115,#76,.T.);
#140=EDGE_CURVE('',#113,#115,#77,.T.);
#141=EDGE_CURVE('',#116,#113,#78,.T.);
#142=EDGE_CURVE('',#116,#114,#20,.T.);
#143=EDGE_CURVE('',#115,#117,#79,.T.);
#144=EDGE_CURVE('',#118,#117,#21,.T.);
#145=EDGE_CURVE('',#113,#118,#80,.T.);
#146=EDGE_CURVE('',#117,#114,#24,.T.);
#147=EDGE_CURVE('',#118,#116,#25,.T.);
#148=EDGE_CURVE('',#119,#119,#26,.T.);
#149=EDGE_CURVE('',#119,#120,#81,.T.);
#150=EDGE_CURVE('',#120,#120,#27,.T.);
#151=ORIENTED_EDGE('',*,*,#121,.T.);
#152=ORIENTED_EDGE('',*,*,#122,.F.);
#153=ORIENTED_EDGE('',*,*,#123,.F.);
#154=ORIENTED_EDGE('',*,*,#124,.T.);
#155=ORIENTED_EDGE('',*,*,#125,.T.);
#156=ORIENTED_EDGE('',*,*,#126,.F.);
#157=ORIENTED_EDGE('',*,*,#127,.F.);
#158=ORIENTED_EDGE('',*,*,#122,.T.);
#159=ORIENTED_EDGE('',*,*,#128,.T.);
#160=ORIENTED_EDGE('',*,*,#124,.F.);
#161=ORIENTED_EDGE('',*,*,#129,.F.);
#162=ORIENTED_EDGE('',*,*,#126,.T.);
#163=ORIENTED_EDGE('',*,*,#121,.F.);
#164=ORIENTED_EDGE('',*,*,#128,.F.);
#165=ORIENTED_EDGE('',*,*,#125,.F.);
#166=ORIENTED_EDGE('',*,*,#130,.T.);
#167=ORIENTED_EDGE('',*,*,#131,.F.);
#168=ORIENTED_EDGE('',*,*,#132,.F.);
#169=ORIENTED_EDGE('',*,*,#133,.T.);
#170=ORIENTED_EDGE('',*,*,#134,.T.);
#171=ORIENTED_EDGE('',*,*,#135,.F.);
#172=ORIENTED_EDGE('',*,*,#136,.F.);
#173=ORIENTED_EDGE('',*,*,#131,.T.);
#174=ORIENTED_EDGE('',*,*,#137,.T.);
#175=ORIENTED_EDGE('',*,*,#133,.F.);
#176=ORIENTED_EDGE('',*,*,#138,.F.);
#177=ORIENTED_EDGE('',*,*,#135,.T.);
#178=ORIENTED_EDGE('',*,*,#130,.F.);
#179=ORIENTED_EDGE('',*,*,#137,.F.);
#180=ORIENTED_EDGE('',*,*,#134,.F.);
#181=ORIENTED_EDGE('',*,*,#139,.T.);
#182=ORIENTED_EDGE('',*,*,#140,.F.);
#183=ORIENTED_EDGE('',*,*,#141,.F.);
#184=ORIENTED_EDGE('',*,*,#142,.T.);
#185=ORIENTED_EDGE('',*,*,#143,.T.);
#186=ORIENTED_EDGE('',*,*,#144,.F.);
#187=ORIENTED_EDGE('',*,*,#145,.F.);
#188=ORIENTED_EDGE('',*,*,#140,.T.);
#189=ORIENTED_EDGE('',*,*,#146,.T.);
#190=ORIENTED_EDGE('',*,*,#142,.F.);
#191=ORIENTED_EDGE('',*,*,#147,.F.);
#192=ORIENTED_EDGE('',*,*,#144,.T.);
#193=ORIENTED_EDGE('',*,*,#139,.F.);
#194=ORIENTED_EDGE('',*,*,#146,.F.);
#195=ORIENTED_EDGE('',*,*,#143,.F.);
#196=ORIENTED_EDGE('',*,*,#148,.F.);
#197=ORIENTED_EDGE('',*,*,#149,.T.);
#198=ORIENTED_EDGE('',*,*,#150,.T.);
#199=ORIENTED_EDGE('',*,*,#149,.F.);
#200=ORIENTED_EDGE('',*,*,#148,.T.);
#201=ORIENTED_EDGE('',*,*,#150,.F.);
#202=ORIENTED_EDGE('',*,*,#123,.T.);
#203=ORIENTED_EDGE('',*,*,#127,.T.);
#204=ORIENTED_EDGE('',*,*,#129,.T.);
#205=ORIENTED_EDGE('',*,*,#132,.T.);
#206=ORIENTED_EDGE('',*,*,#136,.T.);
#207=ORIENTED_EDGE('',*,*,#145,.T.);
#208=ORIENTED_EDGE('',*,*,#147,.T.);
#209=ORIENTED_EDGE('',*,*,#141,.T.);
#210=ORIENTED_EDGE('',*,*,#138,.T.);
#211=PLANE('',#252);
#212=PLANE('',#253);
#213=PLANE('',#254);
#214=PLANE('',#255);
#215=PLANE('',#259);
#216=PLANE('',#260);
#217=PLANE('',#261);
#218=PLANE('',#262);
#219=PLANE('',#263);
#220=PLANE('',#267);
#221=PLANE('',#271);
#222=PLANE('',#272);
#223=ADVANCED_FACE('',(#30),#211,.T.);
#224=ADVANCED_FACE('',(#31),#212,.T.);
#225=ADVANCED_FACE('',(#32),#213,.T.);
#226=ADVANCED_FACE('',(#33),#214,.F.);
#227=ADVANCED_FACE('',(#34),#28,.T.);
#228=ADVANCED_FACE('',(#35),#215,.T.);
#229=ADVANCED_FACE('',(#36),#216,.T.);
#230=ADVANCED_FACE('',(#37),#217,.F.);
#231=ADVANCED_FACE('',(#38),#218,.T.);
#232=ADVANCED_FACE('',(#39),#219,.T.);
#233=ADVANCED_FACE('',(#40),#29,.T.);
#234=ADVANCED_FACE('',(#41),#220,.F.);
#235=ADVANCED_FACE('',(#42),#17,.T.);
#236=ADVANCED_FACE('',(#43),#221,.T.);
#237=ADVANCED_FACE('',(#44,#15,#16),#222,.F.);
#238=CLOSED_SHELL('',(#223,#224,#225,#226,#227,#228,#229,#230,#231,#232,
#233,#234,#235,#236,#237));
#239=DERIVED_UNIT_ELEMENT(#241,1.);
#240=DERIVED_UNIT_ELEMENT(#415,-3.);
#241=(
MASS_UNIT()
NAMED_UNIT(*)
SI_UNIT(.KILO.,.GRAM.)
);
#242=DERIVED_UNIT((#239,#240));
#243=MEASURE_REPRESENTATION_ITEM('density measure',
POSITIVE_RATIO_MEASURE(2700.),#242);
#244=PROPERTY_DEFINITION_REPRESENTATION(#249,#246);
#245=PROPERTY_DEFINITION_REPRESENTATION(#250,#247);
#246=REPRESENTATION('material name',(#248),#412);
#247=REPRESENTATION('density',(#243),#412);
#248=DESCRIPTIVE_REPRESENTATION_ITEM('Aluminum, Anodized Blue',
'Aluminum, Anodized Blue');
#249=PROPERTY_DEFINITION('material property','material name',#422);
#250=PROPERTY_DEFINITION('material property','density of part',#422);
#251=AXIS2_PLACEMENT_3D('',#337,#273,#274);
#252=AXIS2_PLACEMENT_3D('',#338,#275,#276);
#253=AXIS2_PLACEMENT_3D('',#347,#281,#282);
#254=AXIS2_PLACEMENT_3D('',#353,#286,#287);
#255=AXIS2_PLACEMENT_3D('',#356,#290,#291);
#256=AXIS2_PLACEMENT_3D('',#357,#292,#293);
#257=AXIS2_PLACEMENT_3D('',#360,#294,#295);
#258=AXIS2_PLACEMENT_3D('',#366,#296,#297);
#259=AXIS2_PLACEMENT_3D('',#370,#298,#299);
#260=AXIS2_PLACEMENT_3D('',#376,#303,#304);
#261=AXIS2_PLACEMENT_3D('',#379,#307,#308);
#262=AXIS2_PLACEMENT_3D('',#380,#309,#310);
#263=AXIS2_PLACEMENT_3D('',#390,#314,#315);
#264=AXIS2_PLACEMENT_3D('',#398,#318,#319);
#265=AXIS2_PLACEMENT_3D('',#399,#320,#321);
#266=AXIS2_PLACEMENT_3D('',#400,#322,#323);
#267=AXIS2_PLACEMENT_3D('',#401,#324,#325);
#268=AXIS2_PLACEMENT_3D('',#402,#326,#327);
#269=AXIS2_PLACEMENT_3D('',#404,#328,#329);
#270=AXIS2_PLACEMENT_3D('',#407,#331,#332);
#271=AXIS2_PLACEMENT_3D('',#408,#333,#334);
#272=AXIS2_PLACEMENT_3D('',#409,#335,#336);
#273=DIRECTION('axis',(0.,0.,1.));
#274=DIRECTION('refdir',(1.,0.,0.));
#275=DIRECTION('center_axis',(0.632455532033675,0.316227766016838,0.707106781186548));
#276=DIRECTION('ref_axis',(-0.447213595499958,0.894427190999916,0.));
#277=DIRECTION('',(0.447213595499958,-0.894427190999916,0.));
#278=DIRECTION('',(-0.752937760164677,0.465341127194986,0.465341127194986));
#279=DIRECTION('',(0.447213595499958,-0.894427190999916,0.));
#280=DIRECTION('',(-5.05499828678791E-16,-0.912870929175277,0.408248290463863));
#281=DIRECTION('center_axis',(1.57009245868377E-16,-0.707106781186547,0.707106781186548));
#282=DIRECTION('ref_axis',(1.,2.22044604925031E-16,0.));
#283=DIRECTION('',(-1.,-2.22044604925031E-16,0.));
#284=DIRECTION('',(0.752937760164676,0.465341127194987,0.465341127194986));
#285=DIRECTION('',(-1.,-2.22044604925031E-16,0.));
#286=DIRECTION('center_axis',(-0.632455532033676,0.316227766016838,0.707106781186547));
#287=DIRECTION('ref_axis',(-0.447213595499958,-0.894427190999916,0.));
#288=DIRECTION('',(0.447213595499958,0.894427190999916,0.));
#289=DIRECTION('',(0.447213595499958,0.894427190999916,0.));
#290=DIRECTION('center_axis',(0.,0.,-1.));
#291=DIRECTION('ref_axis',(-2.22044604925031E-16,1.,0.));
#292=DIRECTION('center_axis',(0.,0.,-1.));
#293=DIRECTION('ref_axis',(-2.22044604925031E-16,1.,0.));
#294=DIRECTION('center_axis',(0.,0.,-1.));
#295=DIRECTION('ref_axis',(-2.22044604925031E-16,1.,0.));
#296=DIRECTION('center_axis',(0.,0.,-1.));
#297=DIRECTION('ref_axis',(-2.22044604925031E-16,1.,0.));
#298=DIRECTION('center_axis',(1.57009245868378E-16,-0.707106781186548,0.707106781186547));
#299=DIRECTION('ref_axis',(1.,2.22044604925031E-16,0.));
#300=DIRECTION('',(-1.,-2.22044604925031E-16,0.));
#301=DIRECTION('',(0.577350269189626,0.577350269189626,0.577350269189626));
#302=DIRECTION('',(-1.,-2.22044604925031E-16,0.));
#303=DIRECTION('center_axis',(-0.707106781186548,-9.81307786677362E-18,
0.707106781186547));
#304=DIRECTION('ref_axis',(1.38777878078145E-17,-1.,0.));
#305=DIRECTION('',(-1.38777878078145E-17,1.,0.));
#306=DIRECTION('',(-1.38777878078145E-17,1.,0.));
#307=DIRECTION('center_axis',(0.,0.,-1.));
#308=DIRECTION('ref_axis',(-2.22044604925031E-16,1.,0.));
#309=DIRECTION('center_axis',(-1.57009245868378E-16,0.707106781186548,0.707106781186547));
#310=DIRECTION('ref_axis',(-1.,-2.22044604925031E-16,0.));
#311=DIRECTION('',(1.,2.22044604925031E-16,0.));
#312=DIRECTION('',(-0.577350269189626,-0.577350269189626,0.577350269189626));
#313=DIRECTION('',(1.,2.22044604925031E-16,0.));
#314=DIRECTION('center_axis',(0.707106781186548,9.81307786677362E-18,0.707106781186547));
#315=DIRECTION('ref_axis',(-1.38777878078145E-17,1.,0.));
#316=DIRECTION('',(1.38777878078145E-17,-1.,0.));
#317=DIRECTION('',(1.38777878078145E-17,-1.,0.));
#318=DIRECTION('center_axis',(0.,0.,-1.));
#319=DIRECTION('ref_axis',(-2.22044604925031E-16,1.,0.));
#320=DIRECTION('center_axis',(0.,0.,-1.));
#321=DIRECTION('ref_axis',(-2.22044604925031E-16,1.,0.));
#322=DIRECTION('center_axis',(0.,0.,-1.));
#323=DIRECTION('ref_axis',(-2.22044604925031E-16,1.,0.));
#324=DIRECTION('center_axis',(0.,0.,-1.));
#325=DIRECTION('ref_axis',(-2.22044604925031E-16,1.,0.));
#326=DIRECTION('center_axis',(0.,0.,-1.));
#327=DIRECTION('ref_axis',(-2.22044604925031E-16,1.,0.));
#328=DIRECTION('center_axis',(0.,0.,-1.));
#329=DIRECTION('ref_axis',(-2.22044604925031E-16,1.,0.));
#330=DIRECTION('',(0.,0.,1.));
#331=DIRECTION('center_axis',(0.,0.,-1.));
#332=DIRECTION('ref_axis',(-2.22044604925031E-16,1.,0.));
#333=DIRECTION('center_axis',(0.,0.,-1.));
#334=DIRECTION('ref_axis',(-2.22044604925031E-16,1.,0.));
#335=DIRECTION('center_axis',(0.,0.,-1.));
#336=DIRECTION('ref_axis',(-2.22044604925031E-16,1.,0.));
#337=CARTESIAN_POINT('',(0.,0.,0.));
#338=CARTESIAN_POINT('Origin',(-2.35922392732845E-16,5.75,0.));
#339=CARTESIAN_POINT('',(-3.57421265783884E-16,5.52639320225002,0.1));
#340=CARTESIAN_POINT('',(0.338196601125011,4.85,0.1));
#341=CARTESIAN_POINT('',(0.410557280900009,4.70527864045,0.1));
#342=CARTESIAN_POINT('',(0.5,4.75,0.));
#343=CARTESIAN_POINT('',(0.183084729318201,4.94586440883522,0.195864408835225));
#344=CARTESIAN_POINT('',(-2.35922392732845E-16,5.75,0.));
#345=CARTESIAN_POINT('',(1.15,3.45,0.));
#346=CARTESIAN_POINT('',(-4.64327650403125E-16,5.33333333333333,0.186338998124983));
#347=CARTESIAN_POINT('Origin',(0.5,4.75,0.));
#348=CARTESIAN_POINT('',(-0.338196601125011,4.85,0.1));
#349=CARTESIAN_POINT('',(-0.500000000000001,4.85,0.1));
#350=CARTESIAN_POINT('',(-0.5,4.75,0.));
#351=CARTESIAN_POINT('',(-0.216542364659101,4.92518645301135,0.175186453011349));
#352=CARTESIAN_POINT('',(0.25,4.75,1.38777878078145E-16));
#353=CARTESIAN_POINT('Origin',(-0.5,4.75,0.));
#354=CARTESIAN_POINT('',(-0.410557280900009,4.70527864045,0.1));
#355=CARTESIAN_POINT('',(-1.4,2.95,0.));
#356=CARTESIAN_POINT('Origin',(-1.2490009027033E-16,5.25,0.1));
#357=CARTESIAN_POINT('Origin',(3.08148791101958E-32,3.08148791101958E-32,
0.));
#358=CARTESIAN_POINT('',(0.1,0.642261628933257,0.1));
#359=CARTESIAN_POINT('',(0.642261628933257,0.1,0.1));
#360=CARTESIAN_POINT('Origin',(3.08148791101958E-32,3.08148791101958E-32,
0.1));
#361=CARTESIAN_POINT('',(0.75,1.66533453693774E-16,0.));
#362=CARTESIAN_POINT('Ctrl Pts',(0.749999999999964,3.60124256804095E-14,
3.5848602732147E-14));
#363=CARTESIAN_POINT('Ctrl Pts',(0.696130814466535,0.0538691855334632,0.0538691855334631));
#364=CARTESIAN_POINT('Ctrl Pts',(0.642261628933104,0.100000000000131,0.100000000000131));
#365=CARTESIAN_POINT('',(-1.04083408558609E-17,0.75,0.));
#366=CARTESIAN_POINT('Origin',(3.08148791101958E-32,3.08148791101958E-32,
0.));
#367=CARTESIAN_POINT('Ctrl Pts',(3.57411582968537E-14,0.749999999999964,
3.57477719301058E-14));
#368=CARTESIAN_POINT('Ctrl Pts',(0.0538691855334636,0.696130814466534,0.0538691855334636));
#369=CARTESIAN_POINT('Ctrl Pts',(0.100000000000131,0.642261628933104,0.100000000000131));
#370=CARTESIAN_POINT('Origin',(0.75,1.66533453693774E-16,0.));
#371=CARTESIAN_POINT('',(0.1,0.1,0.1));
#372=CARTESIAN_POINT('',(-0.75,0.0999999999999998,0.1));
#373=CARTESIAN_POINT('',(6.84227765783602E-48,3.08148791101958E-32,0.));
#374=CARTESIAN_POINT('',(0.125,0.125,0.125));
#375=CARTESIAN_POINT('',(0.375,8.32667268468868E-17,0.));
#376=CARTESIAN_POINT('Origin',(6.84227765783602E-48,3.08148791101958E-32,
0.));
#377=CARTESIAN_POINT('',(0.1,-0.75,0.1));
#378=CARTESIAN_POINT('',(6.84227765783602E-48,3.08148791101958E-32,0.));
#379=CARTESIAN_POINT('Origin',(0.375,0.375,0.1));
#380=CARTESIAN_POINT('Origin',(-0.75,-1.66533453693773E-16,0.));
#381=CARTESIAN_POINT('',(-0.642261628933257,-0.1,0.1));
#382=CARTESIAN_POINT('',(-0.0999999999999999,-0.1,0.1));
#383=CARTESIAN_POINT('',(-0.75,-0.1,0.1));
#384=CARTESIAN_POINT('',(-0.125,-0.125,0.125));
#385=CARTESIAN_POINT('',(-0.75,-1.66533453693773E-16,0.));
#386=CARTESIAN_POINT('',(-0.375,-8.32667268468867E-17,0.));
#387=CARTESIAN_POINT('Ctrl Pts',(-0.749999999999964,-3.60124256804095E-14,
3.5848602732147E-14));
#388=CARTESIAN_POINT('Ctrl Pts',(-0.696130814466535,-0.0538691855334632,
0.0538691855334631));
#389=CARTESIAN_POINT('Ctrl Pts',(-0.642261628933104,-0.100000000000131,
0.100000000000131));
#390=CARTESIAN_POINT('Origin',(6.84227765783602E-48,3.08148791101958E-32,
0.));
#391=CARTESIAN_POINT('',(-0.1,-0.642261628933257,0.1));
#392=CARTESIAN_POINT('',(-0.1,-0.75,0.1));
#393=CARTESIAN_POINT('',(1.04083408558609E-17,-0.75,0.));
#394=CARTESIAN_POINT('Ctrl Pts',(-3.58387364923774E-14,-0.749999999999964,
3.5848602732147E-14));
#395=CARTESIAN_POINT('Ctrl Pts',(-0.053869185533463,-0.696130814466535,
0.053869185533463));
#396=CARTESIAN_POINT('Ctrl Pts',(-0.100000000000131,-0.642261628933104,
0.100000000000131));
#397=CARTESIAN_POINT('',(6.84227765783602E-48,3.08148791101958E-32,0.));
#398=CARTESIAN_POINT('Origin',(3.08148791101958E-32,3.08148791101958E-32,
0.));
#399=CARTESIAN_POINT('Origin',(3.08148791101958E-32,3.08148791101958E-32,
0.1));
#400=CARTESIAN_POINT('Origin',(3.08148791101958E-32,3.08148791101958E-32,
0.));
#401=CARTESIAN_POINT('Origin',(-0.375,-0.375,0.1));
#402=CARTESIAN_POINT('Origin',(3.08148791101958E-32,3.08148791101958E-32,
0.));
#403=CARTESIAN_POINT('',(7.11996463823616E-16,-7.15,-100.));
#404=CARTESIAN_POINT('Origin',(3.08148791101958E-32,3.08148791101958E-32,
-100.));
#405=CARTESIAN_POINT('',(7.11996463823616E-16,-7.15,0.));
#406=CARTESIAN_POINT('',(7.11996463823616E-16,-7.15,0.));
#407=CARTESIAN_POINT('Origin',(3.08148791101958E-32,3.08148791101958E-32,
0.));
#408=CARTESIAN_POINT('Origin',(3.08148791101958E-32,3.08148791101958E-32,
-100.));
#409=CARTESIAN_POINT('Origin',(3.08148791101958E-32,3.08148791101958E-32,
0.));
#410=UNCERTAINTY_MEASURE_WITH_UNIT(LENGTH_MEASURE(0.01),#414,
'DISTANCE_ACCURACY_VALUE',
'Maximum model space distance between geometric entities at asserted c
onnectivities');
#411=UNCERTAINTY_MEASURE_WITH_UNIT(LENGTH_MEASURE(0.01),#414,
'DISTANCE_ACCURACY_VALUE',
'Maximum model space distance between geometric entities at asserted c
onnectivities');
#412=(
GEOMETRIC_REPRESENTATION_CONTEXT(3)
GLOBAL_UNCERTAINTY_ASSIGNED_CONTEXT((#410))
GLOBAL_UNIT_ASSIGNED_CONTEXT((#414,#416,#417))
REPRESENTATION_CONTEXT('','3D')
);
#413=(
GEOMETRIC_REPRESENTATION_CONTEXT(3)
GLOBAL_UNCERTAINTY_ASSIGNED_CONTEXT((#411))
GLOBAL_UNIT_ASSIGNED_CONTEXT((#414,#416,#417))
REPRESENTATION_CONTEXT('','3D')
);
#414=(
LENGTH_UNIT()
NAMED_UNIT(*)
SI_UNIT(.MILLI.,.METRE.)
);
#415=(
LENGTH_UNIT()
NAMED_UNIT(*)
SI_UNIT($,.METRE.)
);
#416=(
NAMED_UNIT(*)
PLANE_ANGLE_UNIT()
SI_UNIT($,.RADIAN.)
);
#417=(
NAMED_UNIT(*)
SI_UNIT($,.STERADIAN.)
SOLID_ANGLE_UNIT()
);
#418=SHAPE_DEFINITION_REPRESENTATION(#419,#420);
#419=PRODUCT_DEFINITION_SHAPE('',$,#422);
#420=SHAPE_REPRESENTATION('',(#251),#412);
#421=PRODUCT_DEFINITION_CONTEXT('part definition',#426,'design');
#422=PRODUCT_DEFINITION('M.Hole (Negative)','M.Hole (Negative) v2',#423,
#421);
#423=PRODUCT_DEFINITION_FORMATION('',$,#428);
#424=PRODUCT_RELATED_PRODUCT_CATEGORY('M.Hole (Negative) v2',
'M.Hole (Negative) v2',(#428));
#425=APPLICATION_PROTOCOL_DEFINITION('international standard',
'automotive_design',2009,#426);
#426=APPLICATION_CONTEXT(
'Core Data for Automotive Mechanical Design Process');
#427=PRODUCT_CONTEXT('part definition',#426,'mechanical');
#428=PRODUCT('M.Hole (Negative)','M.Hole (Negative) v2',$,(#427));
#429=PRESENTATION_STYLE_ASSIGNMENT((#431));
#430=PRESENTATION_STYLE_ASSIGNMENT((#432));
#431=SURFACE_STYLE_USAGE(.BOTH.,#433);
#432=SURFACE_STYLE_USAGE(.BOTH.,#434);
#433=SURFACE_SIDE_STYLE('',(#435));
#434=SURFACE_SIDE_STYLE('',(#436));
#435=SURFACE_STYLE_FILL_AREA(#437);
#436=SURFACE_STYLE_FILL_AREA(#438);
#437=FILL_AREA_STYLE('Aluminum - Anodized Rough (Blue)',(#439));
#438=FILL_AREA_STYLE('Aluminum - Anodized Rough (Red)',(#440));
#439=FILL_AREA_STYLE_COLOUR('Aluminum - Anodized Rough (Blue)',#441);
#440=FILL_AREA_STYLE_COLOUR('Aluminum - Anodized Rough (Red)',#442);
#441=COLOUR_RGB('Aluminum - Anodized Rough (Blue)',0.349019607843137,0.584313725490196,
0.854901960784314);
#442=COLOUR_RGB('Aluminum - Anodized Rough (Red)',0.854901960784314,0.349019607843137,
0.349019607843137);
ENDSEC;
END-ISO-10303-21;
