ISO-10303-21;
HEADER;
/* Generated by software containing ST-Developer
 * from STEP Tools, Inc. (www.steptools.com) 
 */

FILE_DESCRIPTION(
/* description */ (''),
/* implementation_level */ '2;1');

FILE_NAME(
/* name */ '25mm.step',
/* time_stamp */ '2025-09-02T20:03:54+08:00',
/* author */ (''),
/* organization */ (''),
/* preprocessor_version */ 'ST-DEVELOPER v20.1',
/* originating_system */ 'Autodesk Translation Framework v14.10.0.0',
/* authorisation */ '');

FILE_SCHEMA (('AUTOMOTIVE_DESIGN { 1 0 10303 214 3 1 1 }'));
ENDSEC;

DATA;
#10=MECHANICAL_DESIGN_GEOMETRIC_PRESENTATION_REPRESENTATION('',(#13),#413);
#11=SHAPE_REPRESENTATION_RELATIONSHIP('SRR','None',#420,#12);
#12=ADVANCED_BREP_SHAPE_REPRESENTATION('',(#14),#412);
#13=STYLED_ITEM('',(#430),#14);
#14=MANIFOLD_SOLID_BREP('25mm',#238);
#15=CYLINDRICAL_SURFACE('',#270,7.15);
#16=(
BOUNDED_CURVE()
B_SPLINE_CURVE(2,(#366,#367,#368),.UNSPECIFIED.,.F.,.F.)
B_SPLINE_CURVE_WITH_KNOTS((3,3),(0.00163833345783346,0.0194063713046864),
 .UNSPECIFIED.)
CURVE()
GEOMETRIC_REPRESENTATION_ITEM()
RATIONAL_B_SPLINE_CURVE((1.,1.,1.))
REPRESENTATION_ITEM('')
);
#17=(
BOUNDED_CURVE()
B_SPLINE_CURVE(2,(#369,#370,#371),.UNSPECIFIED.,.F.,.F.)
B_SPLINE_CURVE_WITH_KNOTS((3,3),(0.00163833345783346,0.0194063713046864),
 .UNSPECIFIED.)
CURVE()
GEOMETRIC_REPRESENTATION_ITEM()
RATIONAL_B_SPLINE_CURVE((1.,1.,1.))
REPRESENTATION_ITEM('')
);
#18=(
BOUNDED_CURVE()
B_SPLINE_CURVE(2,(#383,#384,#385),.UNSPECIFIED.,.F.,.F.)
B_SPLINE_CURVE_WITH_KNOTS((3,3),(0.00163833345783342,0.0194063713046864),
 .UNSPECIFIED.)
CURVE()
GEOMETRIC_REPRESENTATION_ITEM()
RATIONAL_B_SPLINE_CURVE((1.,1.,1.))
REPRESENTATION_ITEM('')
);
#19=(
BOUNDED_CURVE()
B_SPLINE_CURVE(2,(#388,#389,#390),.UNSPECIFIED.,.F.,.F.)
B_SPLINE_CURVE_WITH_KNOTS((3,3),(0.00163833345783346,0.0194063713046864),
 .UNSPECIFIED.)
CURVE()
GEOMETRIC_REPRESENTATION_ITEM()
RATIONAL_B_SPLINE_CURVE((1.,1.,1.))
REPRESENTATION_ITEM('')
);
#20=CONICAL_SURFACE('',#258,0.75,0.785398163397448);
#21=CONICAL_SURFACE('',#265,0.75,0.785398163397448);
#22=FACE_BOUND('',#80,.T.);
#23=FACE_BOUND('',#81,.T.);
#24=LINE('',#343,#44);
#25=LINE('',#345,#45);
#26=LINE('',#346,#46);
#27=LINE('',#351,#47);
#28=LINE('',#353,#48);
#29=LINE('',#356,#49);
#30=LINE('',#357,#50);
#31=LINE('',#361,#51);
#32=LINE('',#364,#52);
#33=LINE('',#373,#53);
#34=LINE('',#380,#54);
#35=LINE('',#381,#55);
#36=LINE('',#386,#56);
#37=LINE('',#395,#57);
#38=LINE('',#397,#58);
#39=LINE('',#398,#59);
#40=LINE('',#400,#60);
#41=LINE('',#401,#61);
#42=LINE('',#403,#62);
#43=LINE('',#408,#63);
#44=VECTOR('',#279,10.);
#45=VECTOR('',#280,10.);
#46=VECTOR('',#281,10.);
#47=VECTOR('',#284,10.);
#48=VECTOR('',#285,10.);
#49=VECTOR('',#288,10.);
#50=VECTOR('',#289,10.);
#51=VECTOR('',#292,10.);
#52=VECTOR('',#295,10.);
#53=VECTOR('',#300,10.);
#54=VECTOR('',#307,10.);
#55=VECTOR('',#308,10.);
#56=VECTOR('',#311,10.);
#57=VECTOR('',#318,10.);
#58=VECTOR('',#319,10.);
#59=VECTOR('',#320,10.);
#60=VECTOR('',#323,10.);
#61=VECTOR('',#324,10.);
#62=VECTOR('',#327,10.);
#63=VECTOR('',#334,7.15);
#64=FACE_OUTER_BOUND('',#79,.T.);
#65=FACE_OUTER_BOUND('',#82,.T.);
#66=FACE_OUTER_BOUND('',#83,.T.);
#67=FACE_OUTER_BOUND('',#84,.T.);
#68=FACE_OUTER_BOUND('',#85,.T.);
#69=FACE_OUTER_BOUND('',#86,.T.);
#70=FACE_OUTER_BOUND('',#87,.T.);
#71=FACE_OUTER_BOUND('',#88,.T.);
#72=FACE_OUTER_BOUND('',#89,.T.);
#73=FACE_OUTER_BOUND('',#90,.T.);
#74=FACE_OUTER_BOUND('',#91,.T.);
#75=FACE_OUTER_BOUND('',#92,.T.);
#76=FACE_OUTER_BOUND('',#93,.T.);
#77=FACE_OUTER_BOUND('',#94,.T.);
#78=FACE_OUTER_BOUND('',#95,.T.);
#79=EDGE_LOOP('',(#151));
#80=EDGE_LOOP('',(#152,#153,#154));
#81=EDGE_LOOP('',(#155,#156,#157,#158,#159,#160));
#82=EDGE_LOOP('',(#161,#162,#163));
#83=EDGE_LOOP('',(#164,#165,#166,#167));
#84=EDGE_LOOP('',(#168,#169,#170,#171));
#85=EDGE_LOOP('',(#172,#173,#174,#175));
#86=EDGE_LOOP('',(#176,#177,#178));
#87=EDGE_LOOP('',(#179,#180,#181,#182));
#88=EDGE_LOOP('',(#183,#184,#185,#186));
#89=EDGE_LOOP('',(#187,#188,#189,#190));
#90=EDGE_LOOP('',(#191,#192,#193));
#91=EDGE_LOOP('',(#194,#195,#196,#197));
#92=EDGE_LOOP('',(#198,#199,#200,#201));
#93=EDGE_LOOP('',(#202,#203,#204,#205));
#94=EDGE_LOOP('',(#206,#207,#208,#209));
#95=EDGE_LOOP('',(#210));
#96=CIRCLE('',#253,7.15);
#97=CIRCLE('',#254,0.75);
#98=CIRCLE('',#255,0.75);
#99=CIRCLE('',#257,0.65);
#100=CIRCLE('',#262,0.65);
#101=CIRCLE('',#271,7.15);
#102=VERTEX_POINT('',#339);
#103=VERTEX_POINT('',#341);
#104=VERTEX_POINT('',#342);
#105=VERTEX_POINT('',#344);
#106=VERTEX_POINT('',#347);
#107=VERTEX_POINT('',#348);
#108=VERTEX_POINT('',#350);
#109=VERTEX_POINT('',#352);
#110=VERTEX_POINT('',#354);
#111=VERTEX_POINT('',#359);
#112=VERTEX_POINT('',#360);
#113=VERTEX_POINT('',#362);
#114=VERTEX_POINT('',#376);
#115=VERTEX_POINT('',#377);
#116=VERTEX_POINT('',#379);
#117=VERTEX_POINT('',#393);
#118=VERTEX_POINT('',#394);
#119=VERTEX_POINT('',#396);
#120=VERTEX_POINT('',#406);
#121=EDGE_CURVE('',#102,#102,#96,.T.);
#122=EDGE_CURVE('',#103,#104,#24,.T.);
#123=EDGE_CURVE('',#104,#105,#25,.T.);
#124=EDGE_CURVE('',#105,#103,#26,.T.);
#125=EDGE_CURVE('',#106,#107,#97,.T.);
#126=EDGE_CURVE('',#107,#108,#27,.T.);
#127=EDGE_CURVE('',#108,#109,#28,.T.);
#128=EDGE_CURVE('',#109,#110,#98,.T.);
#129=EDGE_CURVE('',#110,#108,#29,.T.);
#130=EDGE_CURVE('',#108,#106,#30,.T.);
#131=EDGE_CURVE('',#111,#112,#31,.T.);
#132=EDGE_CURVE('',#113,#111,#99,.T.);
#133=EDGE_CURVE('',#112,#113,#32,.T.);
#134=EDGE_CURVE('',#110,#111,#16,.T.);
#135=EDGE_CURVE('',#109,#113,#17,.T.);
#136=EDGE_CURVE('',#108,#112,#33,.T.);
#137=EDGE_CURVE('',#114,#115,#100,.T.);
#138=EDGE_CURVE('',#116,#114,#34,.T.);
#139=EDGE_CURVE('',#115,#116,#35,.T.);
#140=EDGE_CURVE('',#106,#114,#18,.T.);
#141=EDGE_CURVE('',#108,#116,#36,.T.);
#142=EDGE_CURVE('',#107,#115,#19,.T.);
#143=EDGE_CURVE('',#117,#118,#37,.T.);
#144=EDGE_CURVE('',#119,#117,#38,.T.);
#145=EDGE_CURVE('',#118,#119,#39,.T.);
#146=EDGE_CURVE('',#103,#117,#40,.T.);
#147=EDGE_CURVE('',#105,#119,#41,.T.);
#148=EDGE_CURVE('',#104,#118,#42,.T.);
#149=EDGE_CURVE('',#120,#120,#101,.T.);
#150=EDGE_CURVE('',#120,#102,#43,.T.);
#151=ORIENTED_EDGE('',*,*,#121,.F.);
#152=ORIENTED_EDGE('',*,*,#122,.T.);
#153=ORIENTED_EDGE('',*,*,#123,.T.);
#154=ORIENTED_EDGE('',*,*,#124,.T.);
#155=ORIENTED_EDGE('',*,*,#125,.T.);
#156=ORIENTED_EDGE('',*,*,#126,.T.);
#157=ORIENTED_EDGE('',*,*,#127,.T.);
#158=ORIENTED_EDGE('',*,*,#128,.T.);
#159=ORIENTED_EDGE('',*,*,#129,.T.);
#160=ORIENTED_EDGE('',*,*,#130,.T.);
#161=ORIENTED_EDGE('',*,*,#131,.F.);
#162=ORIENTED_EDGE('',*,*,#132,.F.);
#163=ORIENTED_EDGE('',*,*,#133,.F.);
#164=ORIENTED_EDGE('',*,*,#132,.T.);
#165=ORIENTED_EDGE('',*,*,#134,.F.);
#166=ORIENTED_EDGE('',*,*,#128,.F.);
#167=ORIENTED_EDGE('',*,*,#135,.T.);
#168=ORIENTED_EDGE('',*,*,#133,.T.);
#169=ORIENTED_EDGE('',*,*,#135,.F.);
#170=ORIENTED_EDGE('',*,*,#127,.F.);
#171=ORIENTED_EDGE('',*,*,#136,.T.);
#172=ORIENTED_EDGE('',*,*,#131,.T.);
#173=ORIENTED_EDGE('',*,*,#136,.F.);
#174=ORIENTED_EDGE('',*,*,#129,.F.);
#175=ORIENTED_EDGE('',*,*,#134,.T.);
#176=ORIENTED_EDGE('',*,*,#137,.F.);
#177=ORIENTED_EDGE('',*,*,#138,.F.);
#178=ORIENTED_EDGE('',*,*,#139,.F.);
#179=ORIENTED_EDGE('',*,*,#138,.T.);
#180=ORIENTED_EDGE('',*,*,#140,.F.);
#181=ORIENTED_EDGE('',*,*,#130,.F.);
#182=ORIENTED_EDGE('',*,*,#141,.T.);
#183=ORIENTED_EDGE('',*,*,#139,.T.);
#184=ORIENTED_EDGE('',*,*,#141,.F.);
#185=ORIENTED_EDGE('',*,*,#126,.F.);
#186=ORIENTED_EDGE('',*,*,#142,.T.);
#187=ORIENTED_EDGE('',*,*,#137,.T.);
#188=ORIENTED_EDGE('',*,*,#142,.F.);
#189=ORIENTED_EDGE('',*,*,#125,.F.);
#190=ORIENTED_EDGE('',*,*,#140,.T.);
#191=ORIENTED_EDGE('',*,*,#143,.F.);
#192=ORIENTED_EDGE('',*,*,#144,.F.);
#193=ORIENTED_EDGE('',*,*,#145,.F.);
#194=ORIENTED_EDGE('',*,*,#144,.T.);
#195=ORIENTED_EDGE('',*,*,#146,.F.);
#196=ORIENTED_EDGE('',*,*,#124,.F.);
#197=ORIENTED_EDGE('',*,*,#147,.T.);
#198=ORIENTED_EDGE('',*,*,#145,.T.);
#199=ORIENTED_EDGE('',*,*,#147,.F.);
#200=ORIENTED_EDGE('',*,*,#123,.F.);
#201=ORIENTED_EDGE('',*,*,#148,.T.);
#202=ORIENTED_EDGE('',*,*,#143,.T.);
#203=ORIENTED_EDGE('',*,*,#148,.F.);
#204=ORIENTED_EDGE('',*,*,#122,.F.);
#205=ORIENTED_EDGE('',*,*,#146,.T.);
#206=ORIENTED_EDGE('',*,*,#149,.F.);
#207=ORIENTED_EDGE('',*,*,#150,.T.);
#208=ORIENTED_EDGE('',*,*,#121,.T.);
#209=ORIENTED_EDGE('',*,*,#150,.F.);
#210=ORIENTED_EDGE('',*,*,#149,.T.);
#211=PLANE('',#252);
#212=PLANE('',#256);
#213=PLANE('',#259);
#214=PLANE('',#260);
#215=PLANE('',#261);
#216=PLANE('',#263);
#217=PLANE('',#264);
#218=PLANE('',#266);
#219=PLANE('',#267);
#220=PLANE('',#268);
#221=PLANE('',#269);
#222=PLANE('',#272);
#223=ADVANCED_FACE('',(#64,#22,#23),#211,.F.);
#224=ADVANCED_FACE('',(#65),#212,.F.);
#225=ADVANCED_FACE('',(#66),#20,.T.);
#226=ADVANCED_FACE('',(#67),#213,.T.);
#227=ADVANCED_FACE('',(#68),#214,.T.);
#228=ADVANCED_FACE('',(#69),#215,.F.);
#229=ADVANCED_FACE('',(#70),#216,.T.);
#230=ADVANCED_FACE('',(#71),#217,.T.);
#231=ADVANCED_FACE('',(#72),#21,.T.);
#232=ADVANCED_FACE('',(#73),#218,.F.);
#233=ADVANCED_FACE('',(#74),#219,.T.);
#234=ADVANCED_FACE('',(#75),#220,.T.);
#235=ADVANCED_FACE('',(#76),#221,.T.);
#236=ADVANCED_FACE('',(#77),#15,.T.);
#237=ADVANCED_FACE('',(#78),#222,.T.);
#238=CLOSED_SHELL('',(#223,#224,#225,#226,#227,#228,#229,#230,#231,#232,
#233,#234,#235,#236,#237));
#239=DERIVED_UNIT_ELEMENT(#241,1.);
#240=DERIVED_UNIT_ELEMENT(#415,-3.);
#241=(
MASS_UNIT()
NAMED_UNIT(*)
SI_UNIT(.KILO.,.GRAM.)
);
#242=DERIVED_UNIT((#239,#240));
#243=MEASURE_REPRESENTATION_ITEM('density measure',
POSITIVE_RATIO_MEASURE(2700.),#242);
#244=PROPERTY_DEFINITION_REPRESENTATION(#249,#246);
#245=PROPERTY_DEFINITION_REPRESENTATION(#250,#247);
#246=REPRESENTATION('material name',(#248),#412);
#247=REPRESENTATION('density',(#243),#412);
#248=DESCRIPTIVE_REPRESENTATION_ITEM('Aluminum, Anodized Blue',
'Aluminum, Anodized Blue');
#249=PROPERTY_DEFINITION('material property','material name',#422);
#250=PROPERTY_DEFINITION('material property','density of part',#422);
#251=AXIS2_PLACEMENT_3D('',#337,#273,#274);
#252=AXIS2_PLACEMENT_3D('',#338,#275,#276);
#253=AXIS2_PLACEMENT_3D('',#340,#277,#278);
#254=AXIS2_PLACEMENT_3D('',#349,#282,#283);
#255=AXIS2_PLACEMENT_3D('',#355,#286,#287);
#256=AXIS2_PLACEMENT_3D('',#358,#290,#291);
#257=AXIS2_PLACEMENT_3D('',#363,#293,#294);
#258=AXIS2_PLACEMENT_3D('',#365,#296,#297);
#259=AXIS2_PLACEMENT_3D('',#372,#298,#299);
#260=AXIS2_PLACEMENT_3D('',#374,#301,#302);
#261=AXIS2_PLACEMENT_3D('',#375,#303,#304);
#262=AXIS2_PLACEMENT_3D('',#378,#305,#306);
#263=AXIS2_PLACEMENT_3D('',#382,#309,#310);
#264=AXIS2_PLACEMENT_3D('',#387,#312,#313);
#265=AXIS2_PLACEMENT_3D('',#391,#314,#315);
#266=AXIS2_PLACEMENT_3D('',#392,#316,#317);
#267=AXIS2_PLACEMENT_3D('',#399,#321,#322);
#268=AXIS2_PLACEMENT_3D('',#402,#325,#326);
#269=AXIS2_PLACEMENT_3D('',#404,#328,#329);
#270=AXIS2_PLACEMENT_3D('',#405,#330,#331);
#271=AXIS2_PLACEMENT_3D('',#407,#332,#333);
#272=AXIS2_PLACEMENT_3D('',#409,#335,#336);
#273=DIRECTION('axis',(0.,0.,1.));
#274=DIRECTION('refdir',(1.,0.,0.));
#275=DIRECTION('center_axis',(0.,0.,-1.));
#276=DIRECTION('ref_axis',(-2.22044604925031E-16,1.,0.));
#277=DIRECTION('center_axis',(0.,0.,-1.));
#278=DIRECTION('ref_axis',(-2.22044604925031E-16,1.,0.));
#279=DIRECTION('',(0.447213595499958,-0.894427190999916,0.));
#280=DIRECTION('',(-1.,-2.22044604925031E-16,0.));
#281=DIRECTION('',(0.447213595499958,0.894427190999916,0.));
#282=DIRECTION('center_axis',(0.,0.,-1.));
#283=DIRECTION('ref_axis',(-2.22044604925031E-16,1.,0.));
#284=DIRECTION('',(-1.,-2.22044604925031E-16,0.));
#285=DIRECTION('',(1.38777878078145E-17,-1.,0.));
#286=DIRECTION('center_axis',(0.,0.,-1.));
#287=DIRECTION('ref_axis',(-2.22044604925031E-16,1.,0.));
#288=DIRECTION('',(1.,2.22044604925031E-16,0.));
#289=DIRECTION('',(-1.38777878078145E-17,1.,0.));
#290=DIRECTION('center_axis',(0.,0.,-1.));
#291=DIRECTION('ref_axis',(-2.22044604925031E-16,1.,0.));
#292=DIRECTION('',(1.,2.22044604925031E-16,0.));
#293=DIRECTION('center_axis',(0.,0.,-1.));
#294=DIRECTION('ref_axis',(-2.22044604925031E-16,1.,0.));
#295=DIRECTION('',(1.38777878078145E-17,-1.,0.));
#296=DIRECTION('center_axis',(0.,0.,-1.));
#297=DIRECTION('ref_axis',(-2.22044604925031E-16,1.,0.));
#298=DIRECTION('center_axis',(0.707106781186548,9.81307786677362E-18,0.707106781186547));
#299=DIRECTION('ref_axis',(-1.38777878078145E-17,1.,0.));
#300=DIRECTION('',(-0.577350269189626,-0.577350269189626,0.577350269189626));
#301=DIRECTION('center_axis',(-1.57009245868378E-16,0.707106781186548,0.707106781186547));
#302=DIRECTION('ref_axis',(-1.,-2.22044604925031E-16,0.));
#303=DIRECTION('center_axis',(0.,0.,-1.));
#304=DIRECTION('ref_axis',(-2.22044604925031E-16,1.,0.));
#305=DIRECTION('center_axis',(0.,0.,-1.));
#306=DIRECTION('ref_axis',(-2.22044604925031E-16,1.,0.));
#307=DIRECTION('',(-1.38777878078145E-17,1.,0.));
#308=DIRECTION('',(-1.,-2.22044604925031E-16,0.));
#309=DIRECTION('center_axis',(-0.707106781186548,-9.81307786677362E-18,
0.707106781186547));
#310=DIRECTION('ref_axis',(1.38777878078145E-17,-1.,0.));
#311=DIRECTION('',(0.577350269189626,0.577350269189626,0.577350269189626));
#312=DIRECTION('center_axis',(1.57009245868378E-16,-0.707106781186548,0.707106781186547));
#313=DIRECTION('ref_axis',(1.,2.22044604925031E-16,0.));
#314=DIRECTION('center_axis',(0.,0.,-1.));
#315=DIRECTION('ref_axis',(-2.22044604925031E-16,1.,0.));
#316=DIRECTION('center_axis',(0.,0.,-1.));
#317=DIRECTION('ref_axis',(-2.22044604925031E-16,1.,0.));
#318=DIRECTION('',(0.447213595499958,-0.894427190999916,0.));
#319=DIRECTION('',(0.447213595499958,0.894427190999916,0.));
#320=DIRECTION('',(-1.,-2.22044604925031E-16,0.));
#321=DIRECTION('center_axis',(-0.632455532033676,0.316227766016838,0.707106781186547));
#322=DIRECTION('ref_axis',(-0.447213595499958,-0.894427190999916,0.));
#323=DIRECTION('',(-5.05499828678791E-16,-0.912870929175277,0.408248290463863));
#324=DIRECTION('',(0.752937760164676,0.465341127194987,0.465341127194986));
#325=DIRECTION('center_axis',(1.57009245868377E-16,-0.707106781186547,0.707106781186548));
#326=DIRECTION('ref_axis',(1.,2.22044604925031E-16,0.));
#327=DIRECTION('',(-0.752937760164677,0.465341127194986,0.465341127194986));
#328=DIRECTION('center_axis',(0.632455532033675,0.316227766016838,0.707106781186548));
#329=DIRECTION('ref_axis',(-0.447213595499958,0.894427190999916,0.));
#330=DIRECTION('center_axis',(0.,0.,-1.));
#331=DIRECTION('ref_axis',(-2.22044604925031E-16,1.,0.));
#332=DIRECTION('center_axis',(0.,0.,-1.));
#333=DIRECTION('ref_axis',(-2.22044604925031E-16,1.,0.));
#334=DIRECTION('',(0.,0.,1.));
#335=DIRECTION('center_axis',(0.,0.,-1.));
#336=DIRECTION('ref_axis',(-2.22044604925031E-16,1.,0.));
#337=CARTESIAN_POINT('',(0.,0.,0.));
#338=CARTESIAN_POINT('Origin',(3.08148791101958E-32,3.08148791101958E-32,
0.));
#339=CARTESIAN_POINT('',(7.11996463823616E-16,-7.15,0.));
#340=CARTESIAN_POINT('Origin',(3.08148791101958E-32,3.08148791101958E-32,
0.));
#341=CARTESIAN_POINT('',(-2.35922392732845E-16,5.75,0.));
#342=CARTESIAN_POINT('',(0.5,4.75,0.));
#343=CARTESIAN_POINT('',(1.15,3.45,0.));
#344=CARTESIAN_POINT('',(-0.5,4.75,0.));
#345=CARTESIAN_POINT('',(0.25,4.75,1.38777878078145E-16));
#346=CARTESIAN_POINT('',(-1.4,2.95,0.));
#347=CARTESIAN_POINT('',(-1.04083408558609E-17,0.75,0.));
#348=CARTESIAN_POINT('',(0.75,1.66533453693774E-16,0.));
#349=CARTESIAN_POINT('Origin',(3.08148791101958E-32,3.08148791101958E-32,
0.));
#350=CARTESIAN_POINT('',(6.84227765783602E-48,3.08148791101958E-32,0.));
#351=CARTESIAN_POINT('',(0.375,8.32667268468868E-17,0.));
#352=CARTESIAN_POINT('',(1.04083408558609E-17,-0.75,0.));
#353=CARTESIAN_POINT('',(6.84227765783602E-48,3.08148791101958E-32,0.));
#354=CARTESIAN_POINT('',(-0.75,-1.66533453693773E-16,0.));
#355=CARTESIAN_POINT('Origin',(3.08148791101958E-32,3.08148791101958E-32,
0.));
#356=CARTESIAN_POINT('',(-0.375,-8.32667268468867E-17,0.));
#357=CARTESIAN_POINT('',(6.84227765783602E-48,3.08148791101958E-32,0.));
#358=CARTESIAN_POINT('Origin',(-0.375,-0.375,0.1));
#359=CARTESIAN_POINT('',(-0.642261628933257,-0.1,0.1));
#360=CARTESIAN_POINT('',(-0.0999999999999999,-0.1,0.1));
#361=CARTESIAN_POINT('',(-0.75,-0.1,0.1));
#362=CARTESIAN_POINT('',(-0.1,-0.642261628933257,0.1));
#363=CARTESIAN_POINT('Origin',(3.08148791101958E-32,3.08148791101958E-32,
0.1));
#364=CARTESIAN_POINT('',(-0.1,-0.75,0.1));
#365=CARTESIAN_POINT('Origin',(3.08148791101958E-32,3.08148791101958E-32,
0.));
#366=CARTESIAN_POINT('Ctrl Pts',(-0.749999999999964,-3.60124256804095E-14,
3.5848602732147E-14));
#367=CARTESIAN_POINT('Ctrl Pts',(-0.696130814466535,-0.0538691855334632,
0.0538691855334631));
#368=CARTESIAN_POINT('Ctrl Pts',(-0.642261628933104,-0.100000000000131,
0.100000000000131));
#369=CARTESIAN_POINT('Ctrl Pts',(-3.58387364923774E-14,-0.749999999999964,
3.5848602732147E-14));
#370=CARTESIAN_POINT('Ctrl Pts',(-0.053869185533463,-0.696130814466535,
0.053869185533463));
#371=CARTESIAN_POINT('Ctrl Pts',(-0.100000000000131,-0.642261628933104,
0.100000000000131));
#372=CARTESIAN_POINT('Origin',(6.84227765783602E-48,3.08148791101958E-32,
0.));
#373=CARTESIAN_POINT('',(-0.125,-0.125,0.125));
#374=CARTESIAN_POINT('Origin',(-0.75,-1.66533453693773E-16,0.));
#375=CARTESIAN_POINT('Origin',(0.375,0.375,0.1));
#376=CARTESIAN_POINT('',(0.1,0.642261628933257,0.1));
#377=CARTESIAN_POINT('',(0.642261628933257,0.1,0.1));
#378=CARTESIAN_POINT('Origin',(3.08148791101958E-32,3.08148791101958E-32,
0.1));
#379=CARTESIAN_POINT('',(0.1,0.1,0.1));
#380=CARTESIAN_POINT('',(0.1,-0.75,0.1));
#381=CARTESIAN_POINT('',(-0.75,0.0999999999999998,0.1));
#382=CARTESIAN_POINT('Origin',(6.84227765783602E-48,3.08148791101958E-32,
0.));
#383=CARTESIAN_POINT('Ctrl Pts',(3.57411582968537E-14,0.749999999999964,
3.57477719301058E-14));
#384=CARTESIAN_POINT('Ctrl Pts',(0.0538691855334636,0.696130814466534,0.0538691855334636));
#385=CARTESIAN_POINT('Ctrl Pts',(0.100000000000131,0.642261628933104,0.100000000000131));
#386=CARTESIAN_POINT('',(0.125,0.125,0.125));
#387=CARTESIAN_POINT('Origin',(0.75,1.66533453693774E-16,0.));
#388=CARTESIAN_POINT('Ctrl Pts',(0.749999999999964,3.60124256804095E-14,
3.5848602732147E-14));
#389=CARTESIAN_POINT('Ctrl Pts',(0.696130814466535,0.0538691855334632,0.0538691855334631));
#390=CARTESIAN_POINT('Ctrl Pts',(0.642261628933104,0.100000000000131,0.100000000000131));
#391=CARTESIAN_POINT('Origin',(3.08148791101958E-32,3.08148791101958E-32,
0.));
#392=CARTESIAN_POINT('Origin',(-1.2490009027033E-16,5.25,0.1));
#393=CARTESIAN_POINT('',(-3.57421265783884E-16,5.52639320225002,0.1));
#394=CARTESIAN_POINT('',(0.338196601125011,4.85,0.1));
#395=CARTESIAN_POINT('',(0.410557280900009,4.70527864045,0.1));
#396=CARTESIAN_POINT('',(-0.338196601125011,4.85,0.1));
#397=CARTESIAN_POINT('',(-0.410557280900009,4.70527864045,0.1));
#398=CARTESIAN_POINT('',(-0.500000000000001,4.85,0.1));
#399=CARTESIAN_POINT('Origin',(-0.5,4.75,0.));
#400=CARTESIAN_POINT('',(-4.64327650403125E-16,5.33333333333333,0.186338998124983));
#401=CARTESIAN_POINT('',(-0.216542364659101,4.92518645301135,0.175186453011349));
#402=CARTESIAN_POINT('Origin',(0.5,4.75,0.));
#403=CARTESIAN_POINT('',(0.183084729318201,4.94586440883522,0.195864408835225));
#404=CARTESIAN_POINT('Origin',(-2.35922392732845E-16,5.75,0.));
#405=CARTESIAN_POINT('Origin',(3.08148791101958E-32,3.08148791101958E-32,
0.));
#406=CARTESIAN_POINT('',(7.11996463823616E-16,-7.15,-25.));
#407=CARTESIAN_POINT('Origin',(3.08148791101958E-32,3.08148791101958E-32,
-25.));
#408=CARTESIAN_POINT('',(7.11996463823616E-16,-7.15,0.));
#409=CARTESIAN_POINT('Origin',(3.08148791101958E-32,3.08148791101958E-32,
-25.));
#410=UNCERTAINTY_MEASURE_WITH_UNIT(LENGTH_MEASURE(0.01),#414,
'DISTANCE_ACCURACY_VALUE',
'Maximum model space distance between geometric entities at asserted c
onnectivities');
#411=UNCERTAINTY_MEASURE_WITH_UNIT(LENGTH_MEASURE(0.01),#414,
'DISTANCE_ACCURACY_VALUE',
'Maximum model space distance between geometric entities at asserted c
onnectivities');
#412=(
GEOMETRIC_REPRESENTATION_CONTEXT(3)
GLOBAL_UNCERTAINTY_ASSIGNED_CONTEXT((#410))
GLOBAL_UNIT_ASSIGNED_CONTEXT((#414,#416,#417))
REPRESENTATION_CONTEXT('','3D')
);
#413=(
GEOMETRIC_REPRESENTATION_CONTEXT(3)
GLOBAL_UNCERTAINTY_ASSIGNED_CONTEXT((#411))
GLOBAL_UNIT_ASSIGNED_CONTEXT((#414,#416,#417))
REPRESENTATION_CONTEXT('','3D')
);
#414=(
LENGTH_UNIT()
NAMED_UNIT(*)
SI_UNIT(.MILLI.,.METRE.)
);
#415=(
LENGTH_UNIT()
NAMED_UNIT(*)
SI_UNIT($,.METRE.)
);
#416=(
NAMED_UNIT(*)
PLANE_ANGLE_UNIT()
SI_UNIT($,.RADIAN.)
);
#417=(
NAMED_UNIT(*)
SI_UNIT($,.STERADIAN.)
SOLID_ANGLE_UNIT()
);
#418=SHAPE_DEFINITION_REPRESENTATION(#419,#420);
#419=PRODUCT_DEFINITION_SHAPE('',$,#422);
#420=SHAPE_REPRESENTATION('',(#251),#412);
#421=PRODUCT_DEFINITION_CONTEXT('part definition',#426,'design');
#422=PRODUCT_DEFINITION('M.Hole (Negative)','M.Hole (Negative) v2',#423,
#421);
#423=PRODUCT_DEFINITION_FORMATION('',$,#428);
#424=PRODUCT_RELATED_PRODUCT_CATEGORY('M.Hole (Negative) v2',
'M.Hole (Negative) v2',(#428));
#425=APPLICATION_PROTOCOL_DEFINITION('international standard',
'automotive_design',2009,#426);
#426=APPLICATION_CONTEXT(
'Core Data for Automotive Mechanical Design Process');
#427=PRODUCT_CONTEXT('part definition',#426,'mechanical');
#428=PRODUCT('M.Hole (Negative)','M.Hole (Negative) v2',$,(#427));
#429=PRESENTATION_STYLE_ASSIGNMENT((#431));
#430=PRESENTATION_STYLE_ASSIGNMENT((#432));
#431=SURFACE_STYLE_USAGE(.BOTH.,#433);
#432=SURFACE_STYLE_USAGE(.BOTH.,#434);
#433=SURFACE_SIDE_STYLE('',(#435));
#434=SURFACE_SIDE_STYLE('',(#436));
#435=SURFACE_STYLE_FILL_AREA(#437);
#436=SURFACE_STYLE_FILL_AREA(#438);
#437=FILL_AREA_STYLE('Aluminum - Anodized Rough (Blue)',(#439));
#438=FILL_AREA_STYLE('Aluminum - Anodized Rough (Red)',(#440));
#439=FILL_AREA_STYLE_COLOUR('Aluminum - Anodized Rough (Blue)',#441);
#440=FILL_AREA_STYLE_COLOUR('Aluminum - Anodized Rough (Red)',#442);
#441=COLOUR_RGB('Aluminum - Anodized Rough (Blue)',0.349019607843137,0.584313725490196,
0.854901960784314);
#442=COLOUR_RGB('Aluminum - Anodized Rough (Red)',0.854901960784314,0.349019607843137,
0.349019607843137);
ENDSEC;
END-ISO-10303-21;
