ISO-10303-21;
HEADER;
/* Generated by software containing ST-Developer
 * from STEP Tools, Inc. (www.steptools.com) 
 */

FILE_DESCRIPTION(
/* description */ (''),
/* implementation_level */ '2;1');

FILE_NAME(
/* name */ 'Bottom Chamfer.step',
/* time_stamp */ '2025-09-02T23:27:10+08:00',
/* author */ (''),
/* organization */ (''),
/* preprocessor_version */ 'ST-DEVELOPER v20.1',
/* originating_system */ 'Autodesk Translation Framework v14.10.0.0',
/* authorisation */ '');

FILE_SCHEMA (('AUTOMOTIVE_DESIGN { 1 0 10303 214 3 1 1 }'));
ENDSEC;

DATA;
#10=MECHANICAL_DESIGN_GEOMETRIC_PRESENTATION_REPRESENTATION('',(#13),#304);
#11=SHAPE_REPRESENTATION_RELATIONSHIP('SRR','None',#311,#12);
#12=ADVANCED_BREP_SHAPE_REPRESENTATION('',(#14),#303);
#13=STYLED_ITEM('',(#321),#14);
#14=MANIFOLD_SOLID_BREP('Bottom Chamfer',#169);
#15=FACE_BOUND('',#47,.T.);
#16=CIRCLE('',#186,0.65);
#17=CIRCLE('',#187,0.75);
#18=CIRCLE('',#190,0.65);
#19=CIRCLE('',#191,0.75);
#20=CIRCLE('',#196,5.8);
#21=CIRCLE('',#198,7.95);
#22=CONICAL_SURFACE('',#185,0.75,0.785398163397448);
#23=CONICAL_SURFACE('',#189,0.75,0.785398163397448);
#24=CONICAL_SURFACE('',#197,6.875,0.785398163397448);
#25=FACE_OUTER_BOUND('',#36,.T.);
#26=FACE_OUTER_BOUND('',#37,.T.);
#27=FACE_OUTER_BOUND('',#38,.T.);
#28=FACE_OUTER_BOUND('',#39,.T.);
#29=FACE_OUTER_BOUND('',#40,.T.);
#30=FACE_OUTER_BOUND('',#41,.T.);
#31=FACE_OUTER_BOUND('',#42,.T.);
#32=FACE_OUTER_BOUND('',#43,.T.);
#33=FACE_OUTER_BOUND('',#44,.T.);
#34=FACE_OUTER_BOUND('',#45,.T.);
#35=FACE_OUTER_BOUND('',#46,.T.);
#36=EDGE_LOOP('',(#108,#109,#110,#111));
#37=EDGE_LOOP('',(#112,#113,#114,#115));
#38=EDGE_LOOP('',(#116,#117,#118,#119));
#39=EDGE_LOOP('',(#120,#121,#122));
#40=EDGE_LOOP('',(#123,#124,#125,#126));
#41=EDGE_LOOP('',(#127,#128,#129,#130));
#42=EDGE_LOOP('',(#131,#132,#133,#134));
#43=EDGE_LOOP('',(#135,#136,#137));
#44=EDGE_LOOP('',(#138));
#45=EDGE_LOOP('',(#139,#140,#141,#142));
#46=EDGE_LOOP('',(#143));
#47=EDGE_LOOP('',(#144,#145,#146,#147,#148,#149));
#48=(
BOUNDED_CURVE()
B_SPLINE_CURVE(2,(#256,#257,#258),.UNSPECIFIED.,.F.,.F.)
B_SPLINE_CURVE_WITH_KNOTS((3,3),(0.00163833345783343,0.0194063713046864),
 .UNSPECIFIED.)
CURVE()
GEOMETRIC_REPRESENTATION_ITEM()
RATIONAL_B_SPLINE_CURVE((1.,1.,1.))
REPRESENTATION_ITEM('')
);
#49=(
BOUNDED_CURVE()
B_SPLINE_CURVE(2,(#263,#264,#265),.UNSPECIFIED.,.F.,.F.)
B_SPLINE_CURVE_WITH_KNOTS((3,3),(0.00163833345783343,0.0194063713046864),
 .UNSPECIFIED.)
CURVE()
GEOMETRIC_REPRESENTATION_ITEM()
RATIONAL_B_SPLINE_CURVE((1.,1.,1.))
REPRESENTATION_ITEM('')
);
#50=(
BOUNDED_CURVE()
B_SPLINE_CURVE(2,(#276,#277,#278),.UNSPECIFIED.,.F.,.F.)
B_SPLINE_CURVE_WITH_KNOTS((3,3),(0.00163833345783343,0.0194063713046864),
 .UNSPECIFIED.)
CURVE()
GEOMETRIC_REPRESENTATION_ITEM()
RATIONAL_B_SPLINE_CURVE((1.,1.,1.))
REPRESENTATION_ITEM('')
);
#51=(
BOUNDED_CURVE()
B_SPLINE_CURVE(2,(#281,#282,#283),.UNSPECIFIED.,.F.,.F.)
B_SPLINE_CURVE_WITH_KNOTS((3,3),(0.00163833345783343,0.0194063713046864),
 .UNSPECIFIED.)
CURVE()
GEOMETRIC_REPRESENTATION_ITEM()
RATIONAL_B_SPLINE_CURVE((1.,1.,1.))
REPRESENTATION_ITEM('')
);
#52=LINE('',#251,#63);
#53=LINE('',#253,#64);
#54=LINE('',#255,#65);
#55=LINE('',#261,#66);
#56=LINE('',#266,#67);
#57=LINE('',#286,#68);
#58=LINE('',#287,#69);
#59=LINE('',#288,#70);
#60=LINE('',#290,#71);
#61=LINE('',#291,#72);
#62=LINE('',#299,#73);
#63=VECTOR('',#204,10.);
#64=VECTOR('',#205,10.);
#65=VECTOR('',#206,10.);
#66=VECTOR('',#209,10.);
#67=VECTOR('',#210,10.);
#68=VECTOR('',#227,10.);
#69=VECTOR('',#228,10.);
#70=VECTOR('',#229,10.);
#71=VECTOR('',#232,10.);
#72=VECTOR('',#233,10.);
#73=VECTOR('',#244,6.875);
#74=VERTEX_POINT('',#249);
#75=VERTEX_POINT('',#250);
#76=VERTEX_POINT('',#252);
#77=VERTEX_POINT('',#254);
#78=VERTEX_POINT('',#260);
#79=VERTEX_POINT('',#262);
#80=VERTEX_POINT('',#272);
#81=VERTEX_POINT('',#273);
#82=VERTEX_POINT('',#275);
#83=VERTEX_POINT('',#279);
#84=VERTEX_POINT('',#285);
#85=VERTEX_POINT('',#294);
#86=VERTEX_POINT('',#297);
#87=EDGE_CURVE('',#74,#75,#52,.T.);
#88=EDGE_CURVE('',#76,#75,#53,.T.);
#89=EDGE_CURVE('',#77,#76,#54,.T.);
#90=EDGE_CURVE('',#77,#74,#48,.T.);
#91=EDGE_CURVE('',#75,#78,#55,.T.);
#92=EDGE_CURVE('',#79,#78,#49,.T.);
#93=EDGE_CURVE('',#76,#79,#56,.T.);
#94=EDGE_CURVE('',#78,#74,#16,.T.);
#95=EDGE_CURVE('',#79,#77,#17,.T.);
#96=EDGE_CURVE('',#80,#81,#18,.T.);
#97=EDGE_CURVE('',#82,#81,#50,.T.);
#98=EDGE_CURVE('',#83,#82,#19,.T.);
#99=EDGE_CURVE('',#83,#80,#51,.T.);
#100=EDGE_CURVE('',#81,#84,#57,.T.);
#101=EDGE_CURVE('',#76,#84,#58,.T.);
#102=EDGE_CURVE('',#82,#76,#59,.T.);
#103=EDGE_CURVE('',#84,#80,#60,.T.);
#104=EDGE_CURVE('',#76,#83,#61,.T.);
#105=EDGE_CURVE('',#85,#85,#20,.T.);
#106=EDGE_CURVE('',#86,#86,#21,.T.);
#107=EDGE_CURVE('',#86,#85,#62,.T.);
#108=ORIENTED_EDGE('',*,*,#87,.T.);
#109=ORIENTED_EDGE('',*,*,#88,.F.);
#110=ORIENTED_EDGE('',*,*,#89,.F.);
#111=ORIENTED_EDGE('',*,*,#90,.T.);
#112=ORIENTED_EDGE('',*,*,#91,.T.);
#113=ORIENTED_EDGE('',*,*,#92,.F.);
#114=ORIENTED_EDGE('',*,*,#93,.F.);
#115=ORIENTED_EDGE('',*,*,#88,.T.);
#116=ORIENTED_EDGE('',*,*,#94,.T.);
#117=ORIENTED_EDGE('',*,*,#90,.F.);
#118=ORIENTED_EDGE('',*,*,#95,.F.);
#119=ORIENTED_EDGE('',*,*,#92,.T.);
#120=ORIENTED_EDGE('',*,*,#87,.F.);
#121=ORIENTED_EDGE('',*,*,#94,.F.);
#122=ORIENTED_EDGE('',*,*,#91,.F.);
#123=ORIENTED_EDGE('',*,*,#96,.T.);
#124=ORIENTED_EDGE('',*,*,#97,.F.);
#125=ORIENTED_EDGE('',*,*,#98,.F.);
#126=ORIENTED_EDGE('',*,*,#99,.T.);
#127=ORIENTED_EDGE('',*,*,#100,.T.);
#128=ORIENTED_EDGE('',*,*,#101,.F.);
#129=ORIENTED_EDGE('',*,*,#102,.F.);
#130=ORIENTED_EDGE('',*,*,#97,.T.);
#131=ORIENTED_EDGE('',*,*,#103,.T.);
#132=ORIENTED_EDGE('',*,*,#99,.F.);
#133=ORIENTED_EDGE('',*,*,#104,.F.);
#134=ORIENTED_EDGE('',*,*,#101,.T.);
#135=ORIENTED_EDGE('',*,*,#96,.F.);
#136=ORIENTED_EDGE('',*,*,#103,.F.);
#137=ORIENTED_EDGE('',*,*,#100,.F.);
#138=ORIENTED_EDGE('',*,*,#105,.F.);
#139=ORIENTED_EDGE('',*,*,#106,.F.);
#140=ORIENTED_EDGE('',*,*,#107,.T.);
#141=ORIENTED_EDGE('',*,*,#105,.T.);
#142=ORIENTED_EDGE('',*,*,#107,.F.);
#143=ORIENTED_EDGE('',*,*,#106,.T.);
#144=ORIENTED_EDGE('',*,*,#98,.T.);
#145=ORIENTED_EDGE('',*,*,#102,.T.);
#146=ORIENTED_EDGE('',*,*,#93,.T.);
#147=ORIENTED_EDGE('',*,*,#95,.T.);
#148=ORIENTED_EDGE('',*,*,#89,.T.);
#149=ORIENTED_EDGE('',*,*,#104,.T.);
#150=PLANE('',#183);
#151=PLANE('',#184);
#152=PLANE('',#188);
#153=PLANE('',#192);
#154=PLANE('',#193);
#155=PLANE('',#194);
#156=PLANE('',#195);
#157=PLANE('',#199);
#158=ADVANCED_FACE('',(#25),#150,.T.);
#159=ADVANCED_FACE('',(#26),#151,.T.);
#160=ADVANCED_FACE('',(#27),#22,.T.);
#161=ADVANCED_FACE('',(#28),#152,.T.);
#162=ADVANCED_FACE('',(#29),#23,.T.);
#163=ADVANCED_FACE('',(#30),#153,.T.);
#164=ADVANCED_FACE('',(#31),#154,.T.);
#165=ADVANCED_FACE('',(#32),#155,.T.);
#166=ADVANCED_FACE('',(#33),#156,.T.);
#167=ADVANCED_FACE('',(#34),#24,.T.);
#168=ADVANCED_FACE('',(#35,#15),#157,.T.);
#169=CLOSED_SHELL('',(#158,#159,#160,#161,#162,#163,#164,#165,#166,#167,
#168));
#170=DERIVED_UNIT_ELEMENT(#172,1.);
#171=DERIVED_UNIT_ELEMENT(#306,-3.);
#172=(
MASS_UNIT()
NAMED_UNIT(*)
SI_UNIT(.KILO.,.GRAM.)
);
#173=DERIVED_UNIT((#170,#171));
#174=MEASURE_REPRESENTATION_ITEM('density measure',
POSITIVE_RATIO_MEASURE(1541.),#173);
#175=PROPERTY_DEFINITION_REPRESENTATION(#180,#177);
#176=PROPERTY_DEFINITION_REPRESENTATION(#181,#178);
#177=REPRESENTATION('material name',(#179),#303);
#178=REPRESENTATION('density',(#174),#303);
#179=DESCRIPTIVE_REPRESENTATION_ITEM('PET Plastic','PET Plastic');
#180=PROPERTY_DEFINITION('material property','material name',#313);
#181=PROPERTY_DEFINITION('material property','density of part',#313);
#182=AXIS2_PLACEMENT_3D('',#247,#200,#201);
#183=AXIS2_PLACEMENT_3D('',#248,#202,#203);
#184=AXIS2_PLACEMENT_3D('',#259,#207,#208);
#185=AXIS2_PLACEMENT_3D('',#267,#211,#212);
#186=AXIS2_PLACEMENT_3D('',#268,#213,#214);
#187=AXIS2_PLACEMENT_3D('',#269,#215,#216);
#188=AXIS2_PLACEMENT_3D('',#270,#217,#218);
#189=AXIS2_PLACEMENT_3D('',#271,#219,#220);
#190=AXIS2_PLACEMENT_3D('',#274,#221,#222);
#191=AXIS2_PLACEMENT_3D('',#280,#223,#224);
#192=AXIS2_PLACEMENT_3D('',#284,#225,#226);
#193=AXIS2_PLACEMENT_3D('',#289,#230,#231);
#194=AXIS2_PLACEMENT_3D('',#292,#234,#235);
#195=AXIS2_PLACEMENT_3D('',#293,#236,#237);
#196=AXIS2_PLACEMENT_3D('',#295,#238,#239);
#197=AXIS2_PLACEMENT_3D('',#296,#240,#241);
#198=AXIS2_PLACEMENT_3D('',#298,#242,#243);
#199=AXIS2_PLACEMENT_3D('',#300,#245,#246);
#200=DIRECTION('axis',(0.,0.,1.));
#201=DIRECTION('refdir',(1.,0.,0.));
#202=DIRECTION('center_axis',(-5.79058677468142E-17,-0.707106781186547,
-0.707106781186548));
#203=DIRECTION('ref_axis',(-1.,-3.46944695195361E-17,1.16585733028063E-16));
#204=DIRECTION('',(1.,3.46944695195361E-17,-1.16585733028063E-16));
#205=DIRECTION('',(-0.577350269189626,0.577350269189626,-0.577350269189626));
#206=DIRECTION('',(1.,3.46944695195362E-17,-1.16585733028063E-16));
#207=DIRECTION('center_axis',(0.707106781186548,2.4532694666934E-17,-0.707106781186547));
#208=DIRECTION('ref_axis',(3.46944695195361E-17,-1.,-4.04488016095493E-33));
#209=DIRECTION('',(-3.46944695195361E-17,1.,4.04488016095493E-33));
#210=DIRECTION('',(-3.46944695195361E-17,1.,4.04488016095493E-33));
#211=DIRECTION('center_axis',(0.,0.,1.));
#212=DIRECTION('ref_axis',(1.,0.,0.));
#213=DIRECTION('center_axis',(1.16585733028063E-16,0.,1.));
#214=DIRECTION('ref_axis',(1.,0.,0.));
#215=DIRECTION('center_axis',(1.16585733028063E-16,0.,1.));
#216=DIRECTION('ref_axis',(1.,0.,0.));
#217=DIRECTION('center_axis',(-1.16585733028063E-16,0.,-1.));
#218=DIRECTION('ref_axis',(-1.,0.,1.16585733028063E-16));
#219=DIRECTION('center_axis',(0.,0.,1.));
#220=DIRECTION('ref_axis',(1.,0.,0.));
#221=DIRECTION('center_axis',(1.16585733028063E-16,0.,1.));
#222=DIRECTION('ref_axis',(1.,0.,0.));
#223=DIRECTION('center_axis',(1.16585733028063E-16,0.,1.));
#224=DIRECTION('ref_axis',(1.,0.,0.));
#225=DIRECTION('center_axis',(-1.06971257080682E-16,0.707106781186548,-0.707106781186547));
#226=DIRECTION('ref_axis',(1.,3.46944695195361E-17,-1.16585733028063E-16));
#227=DIRECTION('',(-1.,-3.46944695195361E-17,1.16585733028063E-16));
#228=DIRECTION('',(0.577350269189626,-0.577350269189626,-0.577350269189626));
#229=DIRECTION('',(-1.,-3.46944695195361E-17,1.16585733028063E-16));
#230=DIRECTION('center_axis',(-0.707106781186548,-2.4532694666934E-17,-0.707106781186547));
#231=DIRECTION('ref_axis',(-3.46944695195361E-17,1.,4.04488016095493E-33));
#232=DIRECTION('',(3.46944695195361E-17,-1.,-4.04488016095493E-33));
#233=DIRECTION('',(3.46944695195361E-17,-1.,-4.04488016095493E-33));
#234=DIRECTION('center_axis',(-1.16585733028063E-16,0.,-1.));
#235=DIRECTION('ref_axis',(-1.,0.,1.16585733028063E-16));
#236=DIRECTION('center_axis',(1.16585733028063E-16,0.,1.));
#237=DIRECTION('ref_axis',(1.,0.,-1.16585733028063E-16));
#238=DIRECTION('center_axis',(-1.16585733028063E-16,0.,-1.));
#239=DIRECTION('ref_axis',(1.,0.,-1.16585733028063E-16));
#240=DIRECTION('center_axis',(-1.16585733028063E-16,0.,-1.));
#241=DIRECTION('ref_axis',(-1.,0.,1.60760844449437E-16));
#242=DIRECTION('center_axis',(-1.16585733028063E-16,0.,-1.));
#243=DIRECTION('ref_axis',(1.,0.,-1.16585733028063E-16));
#244=DIRECTION('',(-0.707106781186547,8.65956056235493E-17,0.707106781186548));
#245=DIRECTION('center_axis',(-1.16585733028063E-16,0.,-1.));
#246=DIRECTION('ref_axis',(-1.,0.,1.16585733028063E-16));
#247=CARTESIAN_POINT('',(0.,0.,0.));
#248=CARTESIAN_POINT('Origin',(-0.75,-2.60208521396521E-17,7.84999999999999));
#249=CARTESIAN_POINT('',(-0.642261628933257,0.0999999999999998,7.74999999999999));
#250=CARTESIAN_POINT('',(-0.0999999999999992,0.0999999999999996,7.74999999999999));
#251=CARTESIAN_POINT('',(-0.375,0.1,7.74999999999999));
#252=CARTESIAN_POINT('',(0.,0.,7.84999999999999));
#253=CARTESIAN_POINT('',(-0.125,0.125,7.72499999999999));
#254=CARTESIAN_POINT('',(-0.75,-2.60208521396521E-17,7.84999999999999));
#255=CARTESIAN_POINT('',(-0.374999999999999,-7.85899008981119E-17,7.84999999999999));
#256=CARTESIAN_POINT('Ctrl Pts',(-0.749999999999964,3.56420622182885E-14,
7.84999999999996));
#257=CARTESIAN_POINT('Ctrl Pts',(-0.696130814466533,0.053869185533464,7.79613081446653));
#258=CARTESIAN_POINT('Ctrl Pts',(-0.642261628933104,0.10000000000013,7.74999999999986));
#259=CARTESIAN_POINT('Origin',(0.,0.,7.84999999999999));
#260=CARTESIAN_POINT('',(-0.0999999999999998,0.642261628933257,7.74999999999999));
#261=CARTESIAN_POINT('',(-0.1,-3.46944695195363E-18,7.74999999999999));
#262=CARTESIAN_POINT('',(-2.60208521396521E-17,0.75,7.84999999999999));
#263=CARTESIAN_POINT('Ctrl Pts',(-3.56772987888943E-14,0.749999999999964,
7.84999999999996));
#264=CARTESIAN_POINT('Ctrl Pts',(-0.0538691855334641,0.696130814466533,
7.79613081446653));
#265=CARTESIAN_POINT('Ctrl Pts',(-0.100000000000131,0.642261628933104,7.74999999999986));
#266=CARTESIAN_POINT('',(3.12292990680664E-16,-1.08348396463351E-32,7.84999999999999));
#267=CARTESIAN_POINT('Origin',(0.,0.,7.84999999999999));
#268=CARTESIAN_POINT('Origin',(0.,0.,7.74999999999999));
#269=CARTESIAN_POINT('Origin',(0.,0.,7.84999999999999));
#270=CARTESIAN_POINT('Origin',(0.,0.,7.74999999999999));
#271=CARTESIAN_POINT('Origin',(0.,0.,7.84999999999999));
#272=CARTESIAN_POINT('',(0.0999999999999998,-0.642261628933257,7.74999999999999));
#273=CARTESIAN_POINT('',(0.642261628933257,-0.0999999999999998,7.74999999999999));
#274=CARTESIAN_POINT('Origin',(0.,0.,7.74999999999999));
#275=CARTESIAN_POINT('',(0.75,2.60208521396521E-17,7.84999999999999));
#276=CARTESIAN_POINT('Ctrl Pts',(0.749999999999964,-3.56073677487689E-14,
7.84999999999996));
#277=CARTESIAN_POINT('Ctrl Pts',(0.696130814466533,-0.053869185533464,7.79613081446653));
#278=CARTESIAN_POINT('Ctrl Pts',(0.642261628933104,-0.10000000000013,7.74999999999986));
#279=CARTESIAN_POINT('',(2.60208521396521E-17,-0.75,7.84999999999999));
#280=CARTESIAN_POINT('Origin',(0.,0.,7.84999999999999));
#281=CARTESIAN_POINT('Ctrl Pts',(3.56772987888943E-14,-0.749999999999964,
7.84999999999996));
#282=CARTESIAN_POINT('Ctrl Pts',(0.0538691855334641,-0.696130814466533,
7.79613081446653));
#283=CARTESIAN_POINT('Ctrl Pts',(0.100000000000131,-0.642261628933104,7.74999999999986));
#284=CARTESIAN_POINT('Origin',(0.75,2.60208521396521E-17,7.84999999999999));
#285=CARTESIAN_POINT('',(0.0999999999999993,-0.0999999999999998,7.74999999999999));
#286=CARTESIAN_POINT('',(0.375000000000001,-0.1,7.74999999999999));
#287=CARTESIAN_POINT('',(0.125,-0.125,7.72499999999999));
#288=CARTESIAN_POINT('',(0.375000000000001,-5.25690487584595E-17,7.84999999999999));
#289=CARTESIAN_POINT('Origin',(0.,0.,7.84999999999999));
#290=CARTESIAN_POINT('',(0.1,3.4694469519536E-18,7.74999999999999));
#291=CARTESIAN_POINT('',(3.12292990680664E-16,-1.08348396463351E-32,7.84999999999999));
#292=CARTESIAN_POINT('Origin',(0.,0.,7.74999999999999));
#293=CARTESIAN_POINT('Origin',(-5.8,0.,10.));
#294=CARTESIAN_POINT('',(5.8,-7.10295143505465E-16,10.));
#295=CARTESIAN_POINT('Origin',(-3.38963670212154E-31,0.,10.));
#296=CARTESIAN_POINT('Origin',(-1.25329663005169E-16,0.,8.92499999999999));
#297=CARTESIAN_POINT('',(7.95,-9.73594205322146E-16,7.84999999999999));
#298=CARTESIAN_POINT('Origin',(-2.50659326010338E-16,0.,7.84999999999999));
#299=CARTESIAN_POINT('',(6.875,-8.41944674413806E-16,8.92499999999999));
#300=CARTESIAN_POINT('Origin',(1.24917196272266E-15,0.,7.84999999999999));
#301=UNCERTAINTY_MEASURE_WITH_UNIT(LENGTH_MEASURE(0.01),#305,
'DISTANCE_ACCURACY_VALUE',
'Maximum model space distance between geometric entities at asserted c
onnectivities');
#302=UNCERTAINTY_MEASURE_WITH_UNIT(LENGTH_MEASURE(0.01),#305,
'DISTANCE_ACCURACY_VALUE',
'Maximum model space distance between geometric entities at asserted c
onnectivities');
#303=(
GEOMETRIC_REPRESENTATION_CONTEXT(3)
GLOBAL_UNCERTAINTY_ASSIGNED_CONTEXT((#301))
GLOBAL_UNIT_ASSIGNED_CONTEXT((#305,#307,#308))
REPRESENTATION_CONTEXT('','3D')
);
#304=(
GEOMETRIC_REPRESENTATION_CONTEXT(3)
GLOBAL_UNCERTAINTY_ASSIGNED_CONTEXT((#302))
GLOBAL_UNIT_ASSIGNED_CONTEXT((#305,#307,#308))
REPRESENTATION_CONTEXT('','3D')
);
#305=(
LENGTH_UNIT()
NAMED_UNIT(*)
SI_UNIT(.MILLI.,.METRE.)
);
#306=(
LENGTH_UNIT()
NAMED_UNIT(*)
SI_UNIT($,.METRE.)
);
#307=(
NAMED_UNIT(*)
PLANE_ANGLE_UNIT()
SI_UNIT($,.RADIAN.)
);
#308=(
NAMED_UNIT(*)
SI_UNIT($,.STERADIAN.)
SOLID_ANGLE_UNIT()
);
#309=SHAPE_DEFINITION_REPRESENTATION(#310,#311);
#310=PRODUCT_DEFINITION_SHAPE('',$,#313);
#311=SHAPE_REPRESENTATION('',(#182),#303);
#312=PRODUCT_DEFINITION_CONTEXT('part definition',#317,'design');
#313=PRODUCT_DEFINITION('M.Vertical Chamfered (Negative)',
'M.Vertical Chamfered (Negative) v2',#314,#312);
#314=PRODUCT_DEFINITION_FORMATION('',$,#319);
#315=PRODUCT_RELATED_PRODUCT_CATEGORY(
'M.Vertical Chamfered (Negative) v2',
'M.Vertical Chamfered (Negative) v2',(#319));
#316=APPLICATION_PROTOCOL_DEFINITION('international standard',
'automotive_design',2009,#317);
#317=APPLICATION_CONTEXT(
'Core Data for Automotive Mechanical Design Process');
#318=PRODUCT_CONTEXT('part definition',#317,'mechanical');
#319=PRODUCT('M.Vertical Chamfered (Negative)',
'M.Vertical Chamfered (Negative) v2',$,(#318));
#320=PRESENTATION_STYLE_ASSIGNMENT((#322));
#321=PRESENTATION_STYLE_ASSIGNMENT((#323));
#322=SURFACE_STYLE_USAGE(.BOTH.,#324);
#323=SURFACE_STYLE_USAGE(.BOTH.,#325);
#324=SURFACE_SIDE_STYLE('',(#326));
#325=SURFACE_SIDE_STYLE('',(#327));
#326=SURFACE_STYLE_FILL_AREA(#328);
#327=SURFACE_STYLE_FILL_AREA(#329);
#328=FILL_AREA_STYLE('Plastic - Matte (Green)',(#330));
#329=FILL_AREA_STYLE('Plastic - Matte (Red)',(#331));
#330=FILL_AREA_STYLE_COLOUR('Plastic - Matte (Green)',#332);
#331=FILL_AREA_STYLE_COLOUR('Plastic - Matte (Red)',#333);
#332=COLOUR_RGB('Plastic - Matte (Green)',0.266666666666667,0.588235294117647,
0.282352941176471);
#333=COLOUR_RGB('Plastic - Matte (Red)',0.768627450980392,0.207843137254902,
0.152941176470588);
ENDSEC;
END-ISO-10303-21;
